<svg width="358" height="384" viewBox="0 0 358 384" fill="none" xmlns="http://www.w3.org/2000/svg">
<g opacity="0.4">
<path d="M304.362 321.575C300.815 321.575 297.38 319.702 295.504 316.36L252.333 244.174C249.54 239.217 250.631 233.008 255.514 230.163L306.055 199.119C307.645 198.198 311.111 197.401 312.823 197.401C316.371 197.401 319.674 199.45 321.549 202.793L353.222 255.794L354.893 278.89C357.686 283.847 345.128 291.142 340.235 293.978L309.398 320.209C307.818 321.14 306.075 321.575 304.362 321.575Z" fill="#142C2B"/>
<path d="M232.997 352.619C227.359 352.619 222.803 347.994 222.803 342.271V280.185C222.803 274.462 227.359 269.837 232.997 269.837H334.935C353.794 269.837 350.735 251.407 350.735 251.407C350.735 251.407 354.069 257.223 354.558 258.144C357.892 264.497 360.104 274.204 354.905 284.065L323.416 347.414C321.938 350.405 318.411 352.619 314.547 352.619H232.997Z" fill="#2A5F5E"/>
<path d="M222.805 383.663C220.154 383.663 217.545 382.608 215.598 380.631L154.435 318.545C150.449 314.499 150.449 307.959 154.435 303.913L215.598 241.826C217.545 239.85 220.154 238.794 222.805 238.794C224.12 238.794 225.445 239.042 226.709 239.581C230.521 241.174 232.999 244.961 232.999 249.142V373.315C232.999 377.496 230.521 381.283 226.709 382.877C225.445 383.415 224.12 383.663 222.805 383.663Z" fill="#2A5F5E"/>
<path d="M208.459 55.6243C210.07 58.8321 209.988 62.785 207.909 66.0135L164.147 137.827C161.058 142.618 155.115 144.439 150.405 141.304L100.211 109.702C98.682 108.677 96.3985 105.904 95.6238 104.362C94.0132 101.155 94.3088 97.2431 96.3883 94.0146L128.519 41.3029L148.03 29.3098C151.119 24.5188 163.219 32.5694 167.939 35.7151L204.953 51.6921C206.502 52.7165 207.685 54.0928 208.459 55.6243Z" fill="#142C2B"/>
<path d="M268.107 106.083C270.665 111.184 268.688 117.403 263.652 120.011L209.146 148.198C204.13 150.785 197.994 148.767 195.445 143.676L149.145 51.4772C140.592 34.4137 125.801 45.5479 125.801 45.5479C125.801 45.5479 129.389 39.898 129.98 39.0288C134.048 33.1306 141.55 26.7356 152.57 26.9529L222.489 26.6632C225.792 26.6632 229.329 28.8259 231.093 32.3235L268.107 106.083Z" fill="#2A5F5E"/>
<path d="M299.98 101.217C301.183 103.608 301.438 106.443 300.591 109.102L273.873 192.62C272.14 198.052 266.391 201.022 261.029 199.263L178.765 172.121C176.135 171.262 174.035 169.378 172.822 166.988C172.22 165.808 171.843 164.484 171.731 163.097C171.405 158.917 173.607 154.964 177.277 153.07L286.269 96.6955C289.939 94.7915 294.373 95.3089 297.513 98.0407C298.563 98.9306 299.389 100.027 299.98 101.217Z" fill="#2A5F5E"/>
<path d="M32.941 275.445C34.7861 272.371 38.1399 270.374 41.932 270.488L125.124 270.54C130.761 270.716 135.409 274.886 135.267 280.598L135.124 340.563C135.073 342.426 133.942 345.862 133.055 347.331C131.21 350.404 127.764 352.215 123.972 352.101L62.9109 352.018L42.5946 341.474C36.9778 341.298 37.3651 326.625 37.5078 320.923L31.4629 280.526C31.5037 278.673 32.0541 276.924 32.941 275.445Z" fill="#142C2B"/>
<path d="M43.911 197.423C46.8366 192.539 53.1058 190.986 57.9173 193.956L110.171 226.231C114.993 229.201 116.512 235.554 113.586 240.449L60.6085 328.85C50.8224 345.2 67.9175 352.133 67.9175 352.133C67.9175 352.133 61.2915 351.988 60.2619 351.926C53.167 351.533 43.86 348.397 38.2534 338.774L1.29056 278.55C-0.452586 275.704 -0.483168 271.492 1.52502 268.14L43.911 197.423Z" fill="#2A5F5E"/>
<path d="M23.0742 172.454C24.4606 170.136 26.693 168.439 29.374 167.756L113.422 146.998C118.896 145.632 124.401 149.036 125.736 154.593L146.195 239.9C146.848 242.632 146.369 245.426 144.993 247.734C144.32 248.862 143.412 249.886 142.301 250.714C138.978 253.177 134.513 253.363 130.986 251.19L26.4993 186.671C22.9723 184.488 21.0864 180.37 21.7184 176.241C21.9223 174.854 22.3912 173.592 23.0742 172.454Z" fill="#2A5F5E"/>
</g>
</svg>
