<svg width="1439" height="675" viewBox="0 0 1439 675" fill="none" xmlns="http://www.w3.org/2000/svg">
<path d="M0 0H1439V635.294H0V312.188V0Z" fill="#D3E2E2"/>
<path d="M880.883 406.136C994.645 401.682 1048.52 361.63 1162.41 358.584C1276.29 355.539 1439 429.635 1439 429.635V603.529H0V448.711C0 448.711 99.7443 368.754 189.625 368.261C237.749 367.996 259.401 390.114 307.525 390.377C377.291 390.759 403.132 355.725 471.149 346.144C631.479 323.559 716.755 412.562 880.883 406.136Z" fill="#90B7B6"/>
<path d="M558.117 490.366C444.355 486.199 390.477 448.736 276.593 445.888C162.709 443.04 0 512.346 0 512.346V675H1439V530.189C1439 530.189 1339.26 455.4 1249.37 454.939C1201.25 454.692 1179.6 475.38 1131.48 475.626C1061.71 475.983 1035.87 443.213 967.851 434.251C807.521 413.126 722.245 496.376 558.117 490.366Z" fill="#2A5F5E"/>
</svg>
