<?xml version="1.0" encoding="UTF-8"?><svg id="Layer_1" xmlns="http://www.w3.org/2000/svg" width="562.03" height="729.1" viewBox="0 0 562.03 729.1"><defs><style>.cls-1{fill:#fb9433;}.cls-1,.cls-2,.cls-3,.cls-4,.cls-5,.cls-6,.cls-7,.cls-8,.cls-9,.cls-10,.cls-11,.cls-12,.cls-13,.cls-14,.cls-15,.cls-16,.cls-17,.cls-18,.cls-19,.cls-20,.cls-21,.cls-22,.cls-23,.cls-24{stroke-width:0px;}.cls-2{fill:#87b9b8;}.cls-3{fill:#99c4c2;}.cls-4{fill:#86b9b7;}.cls-5{fill:#88bab9;}.cls-6{fill:#95c1c0;}.cls-7{fill:#95c1bf;}.cls-8{fill:#a1c9c8;}.cls-9{fill:#3e3a26;}.cls-10{fill:#181818;}.cls-11{fill:#070707;}.cls-12{fill:#0b0b0b;}.cls-13{fill:#a3cfcf;}.cls-14{fill:#d8d8d8;}.cls-15{fill:#89bbb9;}.cls-16{fill:#9dc6c5;}.cls-17{fill:#8cbdbb;}.cls-18{fill:#8dbdbb;}.cls-19{fill:#8bbcba;}.cls-20{fill:#8abbba;}.cls-21{fill:#9ec7c5;}.cls-22{fill:#84aaa9;}.cls-23{fill:#86b8b7;}.cls-24{fill:#e9c003;}</style></defs><path class="cls-14" d="m288.44,47.76c-.55-.7-2.04-.57-3,0-.24.14-.73.44-1,1.03-.41.9-.06,1.88,0,2.07.96,3.14-8.61,19.85-5,29.99,1.37,3.85,3.2,4.85,4,5.17,1.24.51,2.78.51,3,0,.2-.46-.78-1.07-2-3.1-.6-1-.9-1.5-1-2.07-.32-1.8,1.44-3.19,3-5.17.65-.82,3.66-4.63,4-9.31.23-3.1-.73-6.37-1-7.24-.51-1.64-.78-1.79-1-3.1-.51-3.03,0-6.2,0-6.21.17-1.06.35-1.63,0-2.07Z"/><path class="cls-14" d="m273.44,9.94c-1.32-1.32-4.18-.29-5,0-11.06,3.96-20.91,57.01-11,77.76,1.29,2.7,4.24,8.88,9,9.33,2.25.21,4.8-.81,5-2.07.32-2.05-5.72-3.44-6-7.26-.07-1.01.29-1.73,1-3.11,2.86-5.53,4.29-8.3,5-9.33,3.36-4.88,4.62-10.47,6-16.59.48-2.14,2.62-11.62,1-18.66-.72-3.13-2-6.22-2-6.22-1.01-2.43-1.37-2.63-2-4.15-1.93-4.65-1.4-9.72-1-13.48.38-3.62.99-5.23,0-6.22Z"/><path class="cls-12" d="m286.44,85.75c-1.51,2.37-3.63,1.87-4.93.28-1.84-2.25-2.93-1.31-4.94-.26-2.23,1.17-5,1.28-7.54,1.85,6.53-4.04,8.14-6.63,5.97-16.39-1.81-8.17-.27-15.82,4.75-22.64.51-.02,1.02-.04,1.54-.06,1.83.62,3.65,1.24,5.48,1.85-.27,5.35-.54,10.69-.79,16.04-.06,1.35.17,2.75-.14,4.03-.23.93-.98,2.11-1.79,2.4-.57.21-1.61-.87-2.43-1.37-2.72,5.9-1.14,14.25,4.98,14.27,0,0-.17,0-.17,0Z"/><path class="cls-13" d="m270.79,94.57c-.8-1.37-1.8-2.67-2.3-4.13-.27-.78.34-1.87.55-2.81,2.54-.57,5.32-.68,7.54-1.85,2-1.05,3.09-1.99,4.94.26,1.3,1.59,3.41,2.08,4.93-.28,1.52.34,3.04.68,4.56,1.02,0,0-.03-.04-.03-.04,2.09,2.16,4.04,4.47,6.29,6.45,6.87,6.06,14.84,11.19,20.56,18.17,9.61,11.75,20.83,22.28,28.27,35.81,3.36,6.12,7.83,11.63,11.42,17.63,6.99,11.68,13.67,23.54,20.56,35.27,2.32,3.94,5.41,7.5,7.28,11.62,5.63,12.41,10.86,25,16.19,37.53,1.95,4.59,4.68,9.1,5.47,13.91,2.47,14.93,9.13,27.88,17.41,40.18,2.1,3.12,4.95,5.72,7.12,8.8,7.16,10.14,14.13,20.41,21.25,30.57,3.55,5.07,7.78,9.73,10.79,15.08,3.7,6.56,6.12,13.83,9.7,20.46,3.71,6.87,7.65,13.73,12.36,19.92,9.23,12.11,19.44,23.47,28.53,35.67,6.18,8.3,11.21,17.46,16.6,26.33,6.08,10.01,12.38,19.92,17.86,30.26,5.15,9.7,8.15,20.26,8.99,31.3.33,4.28.78,8.61.51,12.87-.36,5.74-1.88,11.44-1.96,17.17-.1,6.45-.41,12.71-3.56,18.45-4.26,7.77-7.65,16.49-16.34,20.47-5.3,2.43-11.15,3.68-16.79,5.34-2.31.68-4.85,1.85-7.03,1.44-11.07-2.1-21.1-6.63-29.3-14.55-15.25-14.71-24.38-33.4-33.8-51.93-4.82-9.48-9.82-18.9-15.24-28.04-1.97-3.32-5.41-5.75-8.18-8.59-.44-.79-.89-1.58-1.7-3.04-2.91,6.91-8.7,9.17-13.7,12.47-4.27,2.82-8.18,6.17-12.25,9.28-2.43,1.39-4.86,2.77-7.28,4.16,0,0,.05,0,.05,0-4.77,2.96-9.56,5.9-14.32,8.89-4.54,2.85-9.02,5.81-13.59,8.61-2.99,1.83-6.14,3.4-9.14,5.22-7.83,4.74-15.63,9.51-23.4,14.33-10.84,6.72-21.61,13.57-32.51,20.2-3.02,1.84-2.51,3.34-.33,5.24,4.37,3.81,8.84,7.5,13.05,11.47,14.62,13.8,26.36,29.9,36.88,46.93,3.4,5.51,6.48,11.19,7.29,17.81.33,2.66.58,5.46,1.6,7.88,4.21,10,4.49,20.14,1.83,30.51-1.59,6.2-.72,12.64-3.35,18.94-3.81,9.16-10.31,12.59-19.4,12.97-4.37,1.52-8.36.54-12.51-1.27-4.29-1.87-8.87-4-13.39-4.16-5.42-.19-10.1-1.58-14.52-4.26-9.68-5.88-20.97-8.93-28.47-18.63-5.56-7.2-12.89-13.01-19.25-19.63-8.61-8.96-17.22-17.94-25.5-27.2-5.83-6.52-11.18-13.47-16.6-20.34-4.92-6.25-9.61-12.67-14.48-18.96-.41-.53-1.34-.65-2.03-.96-5.5-7.51-11.16-14.92-16.48-22.56-8.48-12.19-16.68-24.58-25.12-36.8-5.99-8.67-12.64-16.92-18.15-25.88-6.21-10.09-11.46-20.76-17.13-31.18-.32-1.27-.34-2.72-.99-3.79-3.66-5.99-7.48-11.87-11.23-17.81-5.59-8.86-11.38-17.61-16.7-26.64-5.92-10.07-11.22-20.5-17.11-30.59-8.77-15.02-17.88-29.83-26.7-44.82-3.07-5.22-5.65-10.73-8.52-16.07-2.09-3.89-4.34-7.68-6.45-11.56-2.63-4.83-5.12-9.74-7.78-14.56-1.43-2.59-3.65-4.89-4.5-7.63-1.94-6.25-5.47-11.36-9.81-16.07,4.86-6.1,9.59-12.31,14.63-18.26,4.79-5.65,9.77-11.15,14.91-16.49,6.92-7.18,13.88-14.34,21.19-21.1,4.02-3.72,8.7-6.77,13.27-9.85,4-2.69,8.32-4.89,12.35-7.54,1.59-1.04,2.75-2.72,4.11-4.11,0,0-.02.02-.02.02,1.33-.6,2.76-1.04,3.97-1.82,3.95-2.58,7.76-5.37,11.72-7.93,13.43-8.68,26.96-17.22,40.34-25.98,4.57-2.99,8.81-6.48,13.2-9.74,2.01-.82,4.23-1.33,6-2.51,4-2.68,8.12-5.33,11.59-8.63,8.29-7.85,16.17-16.13,24.34-24.12,5.47-5.35,11.37-10.26,16.65-15.78,6.29-6.59,12.03-13.7,18.16-20.45,2.67-2.93,5.73-5.51,8.61-8.24,4.01-1.94,8.02-3.87,12.02-5.81,2.76-1.3,5.53-2.59,8.29-3.89,1.02.98,2.09,1.91,3.04,2.95,2.55,2.81,7.27,2.93,9.96.2.07-.39.14-.78.21-1.17Zm84.73,131.3c-.39-6.06-.59-12.13-1.2-18.17-1.03-10.35-4.33-19.98-9.66-28.93-6.41-10.77-12.65-21.63-19.16-32.34-2.51-4.12-5.46-8-8.44-11.8-.66-.83-2.87-1.56-3.42-1.12-1.11.88-2.04,2.54-2.18,3.96-.13,1.33.89,2.75,1.36,4.15.59,1.75,1.45,3.48,1.65,5.28.99,9.03,2.06,18.12,7.64,25.62,7.94,10.67,7.35,22.64,6.67,34.91-.48,8.66-2.48,17.68,2.46,25.78,3.27,5.37,7.07,10.42,10.67,15.59,2.47,3.54,6.5,6.32,5.36,11.59-.11.51.92,1.5,1.62,1.86.29.15,1.51-.71,1.65-1.28.46-1.81.31-3.81.94-5.53,3.52-9.58,4.17-19.48,4.04-29.57Zm-130.9,282.63c-.18.35-.35.7-.53,1.04.71.6,1.32,1.52,2.13,1.76,5.78,1.69,11.57,3.4,17.43,4.76,2.46.57,5.23-.11,7.64.55,9.18,2.51,18.32.61,27.46.07,2.67-.16,5.3-.9,7.98-1.14,15.07-1.37,29.72-4.5,43.97-9.69,6.63-2.41,13.59-3.88,20.34-6,2.22-.7,4.3-1.97,6.24-3.29.6-.41.5-1.83.73-2.8-.84-.16-1.66-.39-2.51-.45-2.53-.18-5.11-.05-7.59-.48-7-1.22-13.94-.94-20.8.68-11.09,2.62-21.32,7.77-32.81,9.65-15.98,2.61-31.92,4.7-48.08,5-6.29.12-12.59,0-18.88.02-.91,0-1.82.21-2.73.32Zm35.3-374.71l-1.26.59c-.07,1.05-.51,2.26-.14,3.12,2.02,4.74-.5,6.96-4.19,9.34-5.52,3.56-11.72,6.9-15.66,11.89-5.02,6.35-8.88,13.96-11.76,21.58-3.4,8.99-5.15,18.59-11.44,26.32-.65.8-.82,2.01-1.21,3.02,1.12.04,2.31.36,3.34.08,19.17-5.09,30.98-17.62,36.7-36.35,1.81-5.92,3.92-11.74,5.78-17.65,1.88-5.98,4.98-11.86,2.26-18.38-.54-1.3-1.61-2.39-2.43-3.58Zm195.47,326.31c-4.39,1.05-7.88,1.32-10.76,2.79-1.61.82-2.57,3.55-3.08,5.6-.25.99,1,3.26,1.92,3.47,4.39,1.02,4.56,4.73,5.13,7.83,1.49,8.1,5.78,14.82,10.53,21.11,4.42,5.87,10.51,10.51,14.73,16.5,6.71,9.51,12.42,19.73,18.68,29.56,3.54,5.56,7.17,11.09,11.14,16.35,2.26,3,5.69,4.71,9.62,4.14,3.9-.56,6.15-3.21,6.99-6.96,2.22-9.9,3.01-19.9,1.29-29.96-.52-3.04-1.38-6.04-2.23-9.01-3.04-10.54-8.23-19.73-16.46-27.19-3.79-3.43-7.36-7.19-10.55-11.19-5.04-6.3-10.5-11.87-18.26-14.81-2.62-.99-4.98-2.67-7.57-3.8-3.84-1.67-7.77-3.12-11.11-4.45Zm-197.4,151.98c1.03,3.22,1.74,6.56,3.12,9.6,3.63,7.96,7.22,15.98,11.44,23.63,4.22,7.63,8.71,15.21,13.96,22.14,5.11,6.75,11.07,12.93,17.18,18.81,3.1,2.98,7.2,5.08,11.14,6.97,2.42,1.16,5.22.13,5.27-3.06.08-5.1.4-10.45-.91-15.28-2.01-7.35-5.18-14.4-8.17-21.44-1.36-3.2-4.06-5.89-5.15-9.14-5.81-17.4-17.44-29.9-32.63-39.41-3.75-2.35-7.77-4.39-11.88-6.01-3.5-1.38-7.25,1-7.8,4.3-.76,4.61,1.23,8.57,4.43,8.9ZM107.24,267.16c-3.74,2.09-7.3,3.71-10.45,5.91-7.87,5.49-16.62,8.85-25.75,11.49-4.77,1.38-9.46,3.06-14.13,4.75-4.28,1.55-8.42,3.52-12.75,4.92-4.61,1.49-9.37,2.52-14.06,3.75.03.41.05.81.08,1.22,1.33.24,2.67.69,4.01.7,11.58.13,22.76-2.03,33.37-6.63,11.23-4.87,22.38-9.93,33.44-15.17,4.2-1.99,7.06-7.29,6.24-10.95Zm-25.26,79.36c.44-.59.87-1.18,1.31-1.78-5.76-6.12-9.71-14.5-18.32-17.21-6.9-2.17-14.22-.42-21.03,2.21,12.25,7.08,23.99,14.74,38.04,16.78Zm142.79-205.77c1.66-1.42,3.31-2.76,4.88-4.18,7.78-7.03,15.58-14.04,23.22-21.21.78-.73.59-2.5.85-3.78-1.14.38-2.47.51-3.39,1.19-5.39,3.96-10.91,7.8-15.94,12.19-4.01,3.5-7.44,7.69-10.98,11.7-.58.66-.55,2.01-.49,3.02.02.33,1.01.61,1.84,1.07Zm-140.2,209.23c2.47.12,4.14.2,5.81.28-.1-1.11.23-2.78-.36-3.23-2.21-1.66-3.6-.24-5.45,2.95Z"/><path class="cls-18" d="m425.92,494.33c2.77,2.84,6.22,5.28,8.18,8.59,5.42,9.14,10.42,18.56,15.24,28.04,9.42,18.53,18.56,37.23,33.8,51.93,8.21,7.92,18.23,12.46,29.3,14.55,2.18.41,4.73-.76,7.03-1.44,5.64-1.66,11.49-2.91,16.79-5.34,8.69-3.99,12.08-12.7,16.34-20.47,3.15-5.75,3.46-12.01,3.56-18.45.09-5.73,1.6-11.43,1.96-17.17.27-4.26-.18-8.59-.51-12.87-.84-11.04-3.85-21.59-8.99-31.3-5.48-10.34-11.78-20.25-17.86-30.26-5.39-8.87-10.42-18.03-16.6-26.33-9.08-12.21-19.3-23.57-28.53-35.67-4.72-6.19-8.66-13.05-12.36-19.92-3.58-6.63-6-13.9-9.7-20.46-3.02-5.35-7.24-10.01-10.79-15.08-7.12-10.16-14.09-20.44-21.25-30.57-2.17-3.08-5.02-5.68-7.12-8.8-8.27-12.3-14.94-25.25-17.41-40.18-.79-4.81-3.52-9.31-5.47-13.91-5.33-12.54-10.56-25.13-16.19-37.53-1.87-4.12-4.96-7.68-7.28-11.62-6.9-11.73-13.58-23.59-20.56-35.27-3.59-6.01-8.06-11.51-11.42-17.63-7.44-13.54-18.65-24.06-28.27-35.81-5.72-6.99-13.69-12.11-20.56-18.17-2.24-1.98-4.2-4.29-6.29-6.45.77.19,1.68.19,2.28.61,14.05,10.04,27.3,20.64,38.46,34.31,9.65,11.83,17.05,25,26,37.19,5.78,7.88,9.49,17.28,14.19,25.97,1.22,2.25,2.47,4.54,4.05,6.54,11.13,14.06,18.94,29.82,24.83,46.7,3.11,8.93,8.1,17.3,10.4,26.39,4.13,16.31,12.17,30.17,22.45,43.18,6.2,7.84,11.49,16.41,17.27,24.59,2.96,4.2,5.77,8.57,9.24,12.32,6.09,6.59,8.19,15.14,12.2,22.75,5.08,9.66,10.05,19.52,16.41,28.33,8.99,12.45,19.97,23.49,28.67,36.12,9.55,13.87,17.47,28.87,26.11,43.38,2.49,4.18,5.19,8.25,7.46,12.55,6,11.38,9.48,23.51,10.71,36.36.51,5.31.57,10.35-.75,15.62-1.03,4.12-1.29,8.67-.76,12.89,1.15,9.02-2.86,16.32-6.8,23.71-1.59,2.98-3.61,5.72-5.43,8.57-5.37,8.41-13.42,12.57-22.91,14.41-.66.13-1.37.12-2,.34-13.49,4.85-24.88-.38-35.69-7.65-13.07-8.78-21.62-21.47-28.87-35.06-9.37-17.53-18.39-35.25-27.65-52.84-1.43-2.72-3.35-5.19-5.04-7.78.04-.63.08-1.26.13-1.88Z"/><path class="cls-11" d="m275.4,11.1c-.45.31-1.15.75-2.07,1.17-1.99.91-3.18.63-4.01,1.28-1.63,1.28-2.34,3.39-2.69,5.87.14,3.78.27,7.57.4,11.35l.36,8.85c.16,3.01.32,6.02.49,9.03.09,1.59.15,3.31.21,5.59.08,2.99.11,5.5.11,7.35-.2,1.15-.75,3.24-2.53,4.58-.2.15-.4.28-.61.4-1.73.9-2.59.78-3.06.47-1-.65-1.14-2.76-2.04-3.76-.5-.56-1.11-.75-1.11-.75-.15-.05-.27-.07-.35-.08-.18.21-.36.42-.54.63-.38,4.11-.76,8.22-1.13,12.33.14,2.75.28,5.49.42,8.24.15,1.08.29,2.16.44,3.24,1.61,1.31,3.22,2.63,4.83,3.94.62,1.12,1.24,2.25,1.86,3.38.42.43.84.87,1.26,1.3.58.06,1.15.12,1.72.18.69-.07,1.38-.14,2.07-.21.39.09.78.17,1.16.26-2.69,2.73-7.41,2.61-9.96-.2-.95-1.05-2.02-1.98-3.04-2.96-3.37-1.87-4.65-1.27-8.29,3.89-4.01,1.94-8.02,3.88-12.02,5.81-1.36,0-2.71.01-4.06.01.09-.69-.08-1.67.3-2.01,2.65-2.27,5.7-4.15,8.05-6.68,1.94-2.09,3.9-4.76,4.43-7.45,1.35-6.76,1.01-13.49-1.11-20.32-3.22-10.35-4.02-20.48-2.07-30.27,1.02-5.1,4.24-11.3,8.33-20.13.56-1.21,1.03-2.2,1.34-2.85,1.7-3.44,3.39-6.89,5.09-10.33,3.2-2.26,5.67-2.34,6.95-2.22.8.08,1.63.28,6.28,2.38,1.9.86,3.48,1.59,4.59,2.12-.1.31-.2.62-.3.93.11,1.88.21,3.76.31,5.64Z"/><path class="cls-7" d="m335.67,726.2c9.1-.38,15.59-3.81,19.4-12.97,2.62-6.3,1.76-12.74,3.35-18.94,2.66-10.37,2.38-20.51-1.83-30.51-1.02-2.43-1.28-5.22-1.6-7.88-.81-6.62-3.89-12.31-7.29-17.81-10.52-17.03-22.26-33.13-36.88-46.93-4.21-3.97-8.69-7.66-13.05-11.47-2.18-1.9-2.69-3.4.33-5.24,10.9-6.63,21.67-13.48,32.51-20.2,7.78-4.82,15.58-9.59,23.4-14.33,3-1.82,6.15-3.38,9.14-5.22,4.57-2.8,9.05-5.76,13.59-8.61,4.76-2.99,9.54-5.93,14.32-8.89-1,1.26-1.77,2.9-3.05,3.72-14.54,9.26-29.16,18.4-43.76,27.56-11.05,6.93-22.15,13.79-33.14,20.81-3.84,2.46-7.44,5.3-11.51,8.23,3.59,3.24,6.67,6.25,10,8.96,13.47,11,23.38,25.08,33.55,38.92,3.43,4.67,6.44,9.72,9.07,14.89,2.24,4.41,3.91,9.16,5.39,13.89,1.69,5.41,2.67,11.03,4.35,16.44,2.23,7.17,1.21,14.17-.22,21.25-1.43,7.1-2.37,14.32-4.16,21.33-2.36,9.27-9.37,13.22-18.32,14.47-1.19.17-2.36.52-3.54.79,0-.75-.01-1.51-.02-2.26Z"/><path class="cls-21" d="m2.24,304.81c4.33,4.7,7.87,9.82,9.81,16.07.85,2.74,3.07,5.04,4.5,7.63,2.65,4.82,5.15,9.72,7.78,14.56,2.11,3.88,4.36,7.68,6.45,11.56,2.88,5.34,5.45,10.85,8.52,16.07,8.82,14.99,17.93,29.81,26.7,44.82,5.89,10.09,11.19,20.52,17.11,30.59,5.31,9.03,11.1,17.78,16.7,26.64,3.75,5.93,7.57,11.82,11.23,17.81.65,1.07.68,2.52.99,3.79-3.47-5.13-7-10.22-10.39-15.4-6.05-9.26-12.05-18.56-18-27.88-1.45-2.27-2.61-4.73-3.95-7.08-2.13-3.74-4.27-7.48-6.47-11.18-5.54-9.26-11.18-18.46-16.66-27.76-7.2-12.23-14.84-24.25-21.24-36.89-4.86-9.59-12.21-17.94-14.63-28.79-.34-1.51-1.52-2.84-2.33-4.24-3.4-5.95-6.73-11.94-10.23-17.83-2.48-4.17-5.18-8.21-7.78-12.31.63-.06,1.26-.12,1.89-.18Z"/><path class="cls-8" d="m335.67,726.2c0,.75.01,1.51.02,2.26-5.12,1.57-9.61.05-14.41-1.95-4.74-1.97-10.2-2.13-15.14-3.72-5.21-1.67-10.22-4.01-15.25-6.2-3.09-1.35-5.99-3.11-9.08-4.46-5.68-2.49-10.25-6.32-14.5-10.8-6.84-7.2-14.17-13.95-21.07-21.1-5.52-5.72-10.76-11.71-16.02-17.67-7.69-8.7-15.47-17.33-22.88-26.26-5.85-7.06-11.23-14.51-16.75-21.84-.79-1.05-1.13-2.43-1.68-3.66.69.31,1.62.43,2.03.96,4.86,6.29,9.56,12.71,14.48,18.96,5.42,6.88,10.77,13.82,16.6,20.34,8.28,9.27,16.89,18.24,25.5,27.2,6.36,6.61,13.69,12.42,19.25,19.63,7.5,9.7,18.79,12.76,28.47,18.63,4.42,2.68,9.1,4.07,14.52,4.26,4.52.16,9.11,2.29,13.39,4.16,4.15,1.81,8.14,2.79,12.51,1.27Z"/><path class="cls-17" d="m2.24,304.81c-.63.06-1.26.12-1.89.18-.06-1.31-.71-3.13-.09-3.86,8.59-10.04,17.26-20.02,26.12-29.83,5.97-6.61,11.76-13.55,18.58-19.19,8.12-6.71,17.25-12.21,25.96-18.2,2.67-1.84,5.38-3.63,8.17-5.28,1.06-.63,2.4-.8,3.61-1.17-1.36,1.39-2.53,3.07-4.11,4.11-4.03,2.65-8.35,4.84-12.35,7.54-4.57,3.08-9.25,6.12-13.27,9.85-7.31,6.77-14.28,13.92-21.19,21.1-5.14,5.33-10.12,10.84-14.91,16.49-5.04,5.95-9.77,12.16-14.63,18.26Z"/><path class="cls-6" d="m233.21,102.29c1.35,0,2.7,0,4.05,0-2.88,2.74-5.95,5.31-8.61,8.24-6.14,6.74-11.88,13.85-18.16,20.45-5.27,5.53-11.18,10.44-16.65,15.78-8.16,7.99-16.05,16.27-24.34,24.12-3.47,3.29-7.59,5.95-11.59,8.63-1.77,1.18-3.99,1.7-6,2.51-.79-.27-1.57-.54-2.36-.81,1.82-1.32,3.51-2.93,5.5-3.92,7.8-3.87,13.64-9.92,19.42-16.24,4.81-5.26,10.37-9.82,15.42-14.86,9.03-9.02,17.92-18.18,26.88-27.27,5.47-5.55,10.96-11.09,16.44-16.63Z"/><path class="cls-17" d="m149.56,181.2c.79.27,1.57.54,2.36.81-4.39,3.26-8.63,6.75-13.2,9.74-13.38,8.76-26.91,17.3-40.34,25.98-3.96,2.56-7.77,5.35-11.72,7.93-1.2.79-2.64,1.22-3.97,1.82-.12-4.04,3.53-4.74,5.91-6.24,10.48-6.58,21.22-12.74,31.66-19.38,5.6-3.57,10.78-7.81,16.15-11.75.82-.45,1.65-.89,2.47-1.34,1.71-1.15,3.41-2.3,5.12-3.46,1.02-.8,2.04-1.59,3.06-2.38,0,0,.08-.07.08-.07.78-.53,1.57-1.06,2.35-1.59l.08-.07Z"/><path class="cls-24" d="m270.7,4.61c-.51.22-1.05.63-1.55.78-.24.07-.43.05-.49.05,0,0-.35,0-5.89.57-1.54.16-4.17,1.55-8.86,7.27-.65.4-1.68.9-3,1-.36.03-.7.02-1,0,.6-1.09,1.54-2.54,3-4,.88-.88,2.2-2.01,4-3-1.27.56-2.61,1.22-4,2-2.33,1.31-4.33,2.69-6,4v-1c.24-.25.58-.6,1-1,2.39-2.3,4.52-3.69,5-4,1.46-.94,3.46-2.06,6-3l-12,6v-1c.7-.6,1.57-1.28,2.6-1.99,1-.68,2.13-1.37,3.4-2.01,1.82-.92,3.53-1.56,5-2-3.67,1-7.33,2-11,3,2.37-1.72,4.47-2.56,6-3,1.7-.49,4.53-1.03,4.53-1.03,0,0,0,0,0,0,0,0,.21-.06.21-.06,1.58-.22,3.92-.36,6.69.15,2.8.51,4.96,1.5,6.37,2.27Z"/><path class="cls-16" d="m425.92,494.33c-.04.63-.08,1.26-.13,1.88-1.08.48-2.26.82-3.22,1.47-8.11,5.43-16.18,10.92-24.26,16.38-.01-.34-.03-.68-.04-1.03,4.07-3.11,7.98-6.46,12.25-9.28,5-3.3,10.79-5.56,13.7-12.47.82,1.46,1.26,2.25,1.7,3.04Z"/><path class="cls-10" d="m281.29,48.53c-.51.02-1.02.04-1.54.06.27-4.36,3.28-6.58,6.99-5,2.09.89,4.03,2.15,6.98,3.75-2.87.65-4.84,1.1-6.81,1.55-1.1-1.28-2.21-2.56-3.31-3.84-.77,1.16-1.54,2.32-2.31,3.48Z"/><path class="cls-1" d="m275.09,5.46c.1-.31.2-.62.3-.93l7.06,2.51c.44.33.62.85.46,1.24-.11.27-.34.4-.45.45-2.35.79-4.7,1.58-7.06,2.37-.1-1.88-.21-3.76-.31-5.65Z"/><path class="cls-14" d="m281.29,48.53c-.22-1.01.53-2.23,1.66-3.08.38-.16.7-.19.95-.17,1.3.09,2.49,1.54,3.01,3.61-.05.5-.1,1-.15,1.49-2.81.91-5.16-.4-5.48-1.85Z"/><path class="cls-9" d="m267.39,39.62c-.12-2.95-.24-5.9-.36-8.85.12,2.95.24,5.9.36,8.85Z"/><path class="cls-7" d="m398.27,513.05c.01.34.03.68.04,1.03-2.44,1.04-4.88,2.09-7.32,3.13,2.43-1.39,4.86-2.77,7.28-4.16Z"/><path class="cls-18" d="m286.44,85.75s.17,0,.17,0c-.23-.68-.45-1.36-.68-2.03.86-.09,2.04-.58,2.51-.2,1.05.85,1.74,2.14,2.57,3.25-1.52-.34-3.04-.68-4.56-1.02Z"/><path class="cls-9" d="m268.09,54.24c-.07-1.86-.14-3.72-.21-5.58.07,1.86.14,3.72.21,5.58Z"/><path class="cls-9" d="m265.67,66.18c.84-1.53,1.69-3.05,2.53-4.58-.84,1.53-1.69,3.05-2.53,4.58Z"/><path class="cls-9" d="m264.37,94.21c-.62-1.13-1.24-2.25-1.86-3.38.62,1.13,1.24,2.25,1.86,3.38Z"/><path class="cls-9" d="m257.68,86.89c-.14-1.08-.29-2.16-.43-3.24.14,1.08.29,2.16.43,3.24Z"/><path class="cls-6" d="m147.05,182.93c-1.02.79-2.04,1.59-3.06,2.38,1.02-.79,2.04-1.59,3.06-2.38Z"/><path class="cls-6" d="m149.48,181.27c-.78.53-1.57,1.06-2.35,1.59.78-.53,1.57-1.06,2.35-1.59Z"/><path class="cls-6" d="m138.88,188.77c-.82.45-1.65.89-2.47,1.34.82-.45,1.65-.89,2.47-1.34Z"/><path class="cls-9" d="m270.58,95.74c-.39-.09-.77-.17-1.16-.26.45-.31.91-.61,1.36-.92-.07.39-.14.78-.21,1.17Z"/><path class="cls-9" d="m267.35,95.69c-.57-.06-1.14-.12-1.72-.18.57.06,1.14.12,1.72.18Z"/><path class="cls-9" d="m257.64,2.2s-.21.06-.21.06c-.08.04-.17.08-.26.13.15-.06.31-.12.46-.18Z"/><path class="cls-9" d="m258.49,62.45c.24.05.47.11.71.16-.24-.04-.48-.1-.71-.16Z"/><path class="cls-23" d="m355.52,225.87c.13,10.08-.52,19.99-4.04,29.57-.63,1.72-.48,3.72-.94,5.53-.14.57-1.36,1.43-1.65,1.28-.71-.35-1.74-1.34-1.62-1.86,1.14-5.28-2.89-8.05-5.36-11.59-3.6-5.17-7.4-10.22-10.67-15.59-4.93-8.1-2.94-17.13-2.46-25.78.68-12.27,1.27-24.24-6.67-34.91-5.59-7.51-6.65-16.6-7.64-25.62-.2-1.8-1.06-3.53-1.65-5.28-.47-1.4-1.49-2.83-1.36-4.15.14-1.42,1.06-3.08,2.18-3.96.55-.43,2.77.29,3.42,1.12,2.99,3.8,5.93,7.67,8.44,11.8,6.51,10.7,12.75,21.57,19.16,32.34,5.33,8.95,8.63,18.58,9.66,28.93.6,6.04.81,12.11,1.2,18.17Z"/><path class="cls-2" d="m224.62,508.5c.91-.11,1.82-.31,2.73-.32,6.29-.02,12.59.09,18.88-.02,16.17-.3,32.1-2.39,48.08-5,11.49-1.88,21.72-7.02,32.81-9.65,6.86-1.62,13.8-1.9,20.8-.68,2.48.43,5.06.3,7.59.48.84.06,1.67.3,2.51.45-.22.96-.13,2.39-.73,2.8-1.94,1.32-4.02,2.59-6.24,3.29-6.74,2.12-13.71,3.59-20.34,6-14.26,5.19-28.9,8.31-43.97,9.69-2.67.24-5.3.98-7.98,1.14-9.15.55-18.28,2.45-27.46-.07-2.42-.66-5.19.03-7.64-.55-5.86-1.37-11.65-3.07-17.43-4.76-.81-.24-1.43-1.16-2.13-1.76.18-.35.35-.7.53-1.04Z"/><path class="cls-4" d="m259.92,133.79c.82,1.19,1.89,2.27,2.43,3.58,2.72,6.52-.38,12.4-2.26,18.38-1.86,5.9-3.97,11.73-5.78,17.65-5.72,18.73-17.53,31.26-36.7,36.35-1.03.27-2.23-.04-3.34-.08.39-1.02.55-2.22,1.21-3.02,6.28-7.73,8.04-17.34,11.44-26.32,2.88-7.62,6.74-15.23,11.76-21.58,3.94-4.99,10.13-8.33,15.66-11.89,3.7-2.38,6.21-4.6,4.19-9.34-.37-.86.07-2.07.14-3.12l1.26-.59Z"/><path class="cls-20" d="m455.39,460.1c3.34,1.33,7.27,2.78,11.11,4.45,2.58,1.12,4.94,2.8,7.57,3.8,7.76,2.93,13.22,8.51,18.26,14.81,3.19,3.99,6.76,7.75,10.55,11.19,8.23,7.46,13.42,16.65,16.46,27.19.86,2.97,1.71,5.97,2.23,9.01,1.73,10.07.94,20.06-1.29,29.96-.84,3.75-3.09,6.4-6.99,6.96-3.92.56-7.35-1.15-9.62-4.14-3.97-5.26-7.59-10.79-11.14-16.35-6.27-9.83-11.97-20.05-18.68-29.56-4.22-5.98-10.3-10.63-14.73-16.5-4.74-6.29-9.03-13.02-10.53-21.11-.57-3.11-.75-6.81-5.13-7.83-.92-.21-2.17-2.49-1.92-3.47.52-2.05,1.48-4.78,3.08-5.6,2.88-1.47,6.37-1.74,10.76-2.79Zm-9.68,8.73c5.61,10.44,10.41,20.06,15.89,29.26,2.38,3.99,6.22,7.08,9.31,10.67,5.17,6.01,10.77,11.73,15.25,18.23,4.41,6.39,7.46,13.71,11.48,20.4,2.64,4.39,5.74,8.54,8.99,12.51,4.1,5.02,7.78,4.55,9.58-1.66,1.52-5.23,1.6-10.87,2.35-16.32,1.08-7.82-2.19-14.89-3.77-22.24-1.87-8.66-7.54-15.09-13.15-21.43-3.74-4.23-7.87-8.14-12.02-11.98-4.62-4.28-9.15-8.77-14.31-12.31-3.82-2.61-8.72-3.57-12.9-5.74-5.3-2.75-10.13-.75-16.7.61Z"/><path class="cls-3" d="m257.99,612.08c-3.2-.34-5.19-4.29-4.43-8.9.54-3.29,4.29-5.68,7.8-4.3,4.12,1.62,8.13,3.66,11.88,6.01,15.2,9.52,26.82,22.01,32.63,39.41,1.09,3.26,3.79,5.94,5.15,9.14,2.99,7.04,6.16,14.09,8.17,21.44,1.32,4.82,1,10.17.91,15.28-.05,3.19-2.85,4.22-5.27,3.06-3.94-1.88-8.04-3.98-11.14-6.97-6.11-5.88-12.07-12.06-17.18-18.81-5.25-6.93-9.74-14.51-13.96-22.14-4.23-7.65-7.82-15.66-11.44-23.63-1.38-3.03-2.1-6.37-3.12-9.6Zm1.01-8.76c-3.49.98-3.04,3.53-2.67,6.31,1.17-.24,2.06-.43,2.96-.61.76,2.15,1.37,4.36,2.32,6.42,4.28,9.31,8.38,18.71,13.08,27.8,3.77,7.29,7.77,14.58,12.63,21.15,4.79,6.47,10.67,12.18,16.34,17.96,2.88,2.93,6.12,5.64,9.61,7.79,3.44,2.11,4.34,1.2,4.64-2.8.64-8.61-1.36-16.71-4.91-24.38-3.05-6.59-7.29-12.67-10-19.38-7.54-18.71-21.14-31.32-38.76-40.11-1.42-.71-3.48-.12-5.24-.14Z"/><path class="cls-19" d="m107.24,267.16c.82,3.66-2.04,8.95-6.24,10.95-11.06,5.24-22.21,10.3-33.44,15.17-10.61,4.6-21.79,6.76-33.37,6.63-1.34-.01-2.67-.46-4.01-.7-.03-.41-.05-.81-.08-1.22,4.69-1.23,9.45-2.26,14.06-3.75,4.33-1.4,8.47-3.36,12.75-4.92,4.67-1.69,9.36-3.37,14.13-4.75,9.13-2.64,17.87-6,25.75-11.49,3.15-2.2,6.71-3.82,10.45-5.91Z"/><path class="cls-15" d="m81.98,346.52c-14.05-2.04-25.8-9.7-38.04-16.78,6.82-2.62,14.14-4.38,21.03-2.21,8.61,2.71,12.55,11.09,18.32,17.21-.44.59-.87,1.18-1.31,1.78Z"/><path class="cls-17" d="m224.77,140.75c-.82-.46-1.82-.73-1.84-1.07-.06-1.01-.1-2.36.49-3.02,3.54-4.01,6.97-8.2,10.98-11.7,5.03-4.39,10.55-8.23,15.94-12.19.92-.68,2.25-.81,3.39-1.19-.26,1.29-.07,3.05-.85,3.78-7.65,7.17-15.45,14.18-23.22,21.21-1.57,1.42-3.22,2.76-4.88,4.18Z"/><path class="cls-22" d="m249.29,96.47c3.64-5.16,4.92-5.77,8.29-3.89-2.76,1.3-5.53,2.59-8.29,3.89Z"/><path class="cls-5" d="m84.57,349.98c1.85-3.2,3.24-4.62,5.45-2.95.59.45.27,2.12.36,3.23-1.67-.08-3.34-.16-5.81-.28Z"/><path class="cls-13" d="m259,603.32c.09,1.9.19,3.8.28,5.7-.89.18-1.79.37-2.96.61-.37-2.78-.82-5.33,2.67-6.31Z"/><path class="cls-13" d="m272.36,87.78c-1.68-.57-3.5-.62-5.23-.24-.5.11-.91.56-1.05,1.05-.15.53.02,1.06.39,1.46.68.73,1.38,1.43,2.21,2.01.88.61,1.89.97,2.95,1.05.37.03.81-.19,1.06-.44s.46-.69.44-1.06c-.04-.86-.66-1.44-1.5-1.5-.08,0-.15-.01-.23-.02l.4.05c-.35-.05-.69-.15-1.01-.28l.36.15c-.42-.18-.81-.42-1.18-.7l.3.23c-.62-.48-1.15-1.05-1.68-1.61l-.66,2.51c.24-.05.47-.09.71-.13l-.4.05c.72-.09,1.44-.09,2.16,0l-.4-.05c.53.07,1.05.19,1.56.37.74.25,1.67-.29,1.85-1.05.19-.83-.25-1.58-1.05-1.85h0Z"/><path class="cls-13" d="m268.78,91.97l.87.87c.14.15.3.25.48.31.18.09.37.14.58.13.21,0,.4-.04.58-.13.19-.06.35-.16.48-.31l.23-.3c.14-.23.2-.49.2-.76l-.05-.4c-.07-.25-.2-.47-.39-.66l-.87-.87c-.14-.15-.3-.25-.48-.31-.18-.09-.37-.14-.58-.13-.21,0-.4.04-.58.13-.19.06-.35.16-.48.31l-.23.3c-.14.23-.2.49-.2.76l.05.4c.07.25.2.47.39.66h0Z"/><path class="cls-14" d="m275.86,48.67c-.7,7.56-1.46,15.37-5.28,22.11-.95,1.68,1.64,3.2,2.59,1.51,4.09-7.22,4.94-15.51,5.69-23.62.18-1.92-2.82-1.91-3,0h0Z"/></svg>