<svg width="358" height="358" viewBox="0 0 358 358" fill="none" xmlns="http://www.w3.org/2000/svg">
<g opacity="0.4">
<path d="M304.362 295.575C300.815 295.575 297.38 293.702 295.504 290.36L252.333 218.174C249.54 213.217 250.631 207.008 255.514 204.163L306.055 173.119C307.645 172.198 311.111 171.401 312.823 171.401C316.371 171.401 319.674 173.45 321.549 176.793L353.222 229.794L354.893 252.89C357.686 257.847 345.128 265.142 340.235 267.978L309.398 294.209C307.818 295.14 306.075 295.575 304.362 295.575Z" fill="#142C2B"/>
<path d="M232.997 326.619C227.359 326.619 222.803 321.994 222.803 316.271V254.185C222.803 248.462 227.359 243.837 232.997 243.837H334.935C353.794 243.837 350.735 225.407 350.735 225.407C350.735 225.407 354.069 231.223 354.558 232.144C357.892 238.497 360.104 248.204 354.905 258.065L323.416 321.414C321.938 324.405 318.411 326.619 314.547 326.619H232.997Z" fill="#2A5F5E"/>
<path d="M222.805 357.663C220.154 357.663 217.545 356.608 215.598 354.631L154.435 292.545C150.449 288.499 150.449 281.959 154.435 277.913L215.598 215.826C217.545 213.85 220.154 212.794 222.805 212.794C224.12 212.794 225.445 213.042 226.709 213.581C230.521 215.174 232.999 218.961 232.999 223.142V347.315C232.999 351.496 230.521 355.283 226.709 356.877C225.445 357.415 224.12 357.663 222.805 357.663Z" fill="#2A5F5E"/>
<path d="M208.459 29.6243C210.07 32.8321 209.988 36.785 207.909 40.0135L164.147 111.827C161.058 116.618 155.115 118.439 150.405 115.304L100.211 83.7019C98.682 82.6775 96.3985 79.9042 95.6238 78.3624C94.0132 75.1546 94.3088 71.2431 96.3883 68.0146L128.519 15.3029L148.03 3.30981C151.119 -1.48123 163.219 6.56936 167.939 9.7151L204.953 25.6921C206.502 26.7165 207.685 28.0928 208.459 29.6243Z" fill="#142C2B"/>
<path d="M268.107 80.0826C270.665 85.1841 268.688 91.4031 263.652 94.0107L209.146 122.198C204.13 124.785 197.994 122.767 195.445 117.676L149.145 25.4772C140.592 8.41371 125.801 19.5479 125.801 19.5479C125.801 19.5479 129.389 13.898 129.98 13.0288C134.048 7.13058 141.55 0.735643 152.57 0.952946L222.489 0.663208C225.792 0.663208 229.329 2.8259 231.093 6.32346L268.107 80.0826Z" fill="#2A5F5E"/>
<path d="M299.98 75.2175C301.183 77.6078 301.438 80.4431 300.591 83.1025L273.873 166.62C272.14 172.052 266.391 175.022 261.029 173.263L178.765 146.121C176.135 145.262 174.035 143.378 172.822 140.988C172.22 139.808 171.843 138.484 171.731 137.097C171.405 132.917 173.607 128.964 177.277 127.07L286.269 70.6955C289.939 68.7915 294.373 69.3089 297.513 72.0407C298.563 72.9306 299.389 74.0275 299.98 75.2175Z" fill="#2A5F5E"/>
<path d="M32.941 249.445C34.7861 246.371 38.1399 244.374 41.932 244.488L125.124 244.54C130.761 244.716 135.409 248.886 135.267 254.598L135.124 314.563C135.073 316.426 133.942 319.862 133.055 321.331C131.21 324.404 127.764 326.215 123.972 326.101L62.9109 326.018L42.5946 315.474C36.9778 315.298 37.3651 300.625 37.5078 294.923L31.4629 254.526C31.5037 252.673 32.0541 250.924 32.941 249.445Z" fill="#142C2B"/>
<path d="M43.911 171.423C46.8366 166.539 53.1058 164.986 57.9173 167.956L110.171 200.231C114.993 203.201 116.512 209.554 113.586 214.449L60.6085 302.85C50.8224 319.2 67.9175 326.133 67.9175 326.133C67.9175 326.133 61.2915 325.988 60.2619 325.926C53.167 325.533 43.86 322.397 38.2534 312.774L1.29056 252.55C-0.452586 249.704 -0.483168 245.492 1.52502 242.14L43.911 171.423Z" fill="#2A5F5E"/>
<path d="M23.0742 146.454C24.4606 144.136 26.693 142.439 29.374 141.756L113.422 120.998C118.896 119.632 124.401 123.036 125.736 128.593L146.195 213.9C146.848 216.632 146.369 219.426 144.993 221.734C144.32 222.862 143.412 223.886 142.301 224.714C138.978 227.177 134.513 227.363 130.986 225.19L26.4993 160.671C22.9723 158.488 21.0864 154.37 21.7184 150.241C21.9223 148.854 22.3912 147.592 23.0742 146.454Z" fill="#2A5F5E"/>
</g>
</svg>
