<svg width="1453" height="851" viewBox="0 0 1453 851" fill="none" xmlns="http://www.w3.org/2000/svg">
<path d="M569.54 162.372C455.381 151.014 401.315 48.8767 287.033 41.1109C172.751 33.345 0.5 228.5 0.5 228.5V664.445L1453.5 665.749V270.944C1453.5 270.944 1353.41 67.0446 1263.21 65.7862C1214.92 65.1124 1193.19 121.516 1144.9 122.187C1074.89 123.16 1048.96 33.8189 980.705 9.38543C819.816 -48.2088 734.242 178.76 569.54 162.372Z" fill="#F1F5F5"/>
<path d="M884.46 570.026C998.619 564.667 1052.69 516.477 1166.97 512.813C1281.25 509.149 1453.5 596.5 1453.5 596.5V807.526H0.5V621.252C0.5 621.252 100.593 525.049 190.788 524.455C239.079 524.138 260.807 550.749 309.099 551.066C379.109 551.525 405.04 509.373 473.295 497.845C634.184 470.671 719.758 577.758 884.46 570.026Z" fill="#D3E2E2"/>
<path d="M963.882 684.568C1061.85 682.201 1108.25 660.923 1206.33 659.305C1304.4 657.687 1453.5 695.5 1453.5 695.5V789.438H-6V716C-6 716 291.173 664.708 368.577 664.445C410.021 664.305 428.668 676.056 470.111 676.196C530.193 676.398 552.447 657.786 611.023 652.695C749.097 640.697 822.536 687.982 963.882 684.568Z" fill="#90B7B6"/>
<path d="M685.919 749.13C587.948 746.764 398.576 708.118 300.5 706.5C202.424 704.882 -6 760.5 -6 760.5L-12 839L1453.5 851V771C1453.5 771 1358.63 729.27 1281.22 729.008C1239.78 728.867 1221.13 740.618 1179.69 740.758C1119.61 740.961 1097.35 722.348 1038.78 717.258C900.703 705.259 827.264 752.544 685.919 749.13Z" fill="#2A5F5E"/>
</svg>
