<svg width="150" height="155" viewBox="0 0 150 155" fill="none" xmlns="http://www.w3.org/2000/svg">
<path d="M93.4134 48.4614C93.4134 48.4614 64.1081 0.142664 39.4938 17.9725C14.8796 35.8024 50.1239 79.363 50.1239 79.363" stroke="#E72458" stroke-width="14"/>
<path d="M29.9713 61.6086L103.659 41.7228C106.325 41.0034 109.07 42.5814 109.789 45.2474L131.435 125.459C132.155 128.125 130.577 130.87 127.911 131.589L54.2232 151.475C51.5571 152.195 48.8126 150.617 48.0931 147.951L26.4467 67.7386C25.7272 65.0725 27.3053 62.328 29.9713 61.6086Z" fill="#F38898" stroke="#F38898" stroke-width="6"/>
<path d="M96.1305 57.2887C96.1305 57.2887 88.5585 1.2872 58.872 7.80444C29.1855 14.3217 44.1024 68.3325 44.1024 68.3325" stroke="#F38898" stroke-width="14"/>
</svg>
