<svg width="150" height="158" viewBox="0 0 150 158" fill="none" xmlns="http://www.w3.org/2000/svg">
<path d="M58.4607 67.3857C51.8312 95.4966 92.7403 132.899 92.7403 132.899L85.4636 140.854L108.965 141.152L101.441 132.767C101.441 132.767 147.427 95.3979 140.246 66.1469C134.909 44.4072 122.165 25.8278 99.8172 25.5708C76.8701 25.307 63.7367 45.0146 58.4607 67.3857Z" fill="#E72458"/>
<path d="M9.97867 57.5246C0.984218 95.6631 56.4863 146.407 56.4863 146.407L46.6139 157.201L78.4987 157.605L68.2905 146.228C68.2905 146.228 130.68 95.5293 120.938 55.844C113.698 26.3494 96.4078 1.14237 66.0877 0.793745C34.9549 0.435776 17.1366 27.1734 9.97867 57.5246Z" fill="#90B7B6"/>
</svg>
