<svg width="150" height="152" viewBox="0 0 150 152" fill="none" xmlns="http://www.w3.org/2000/svg">
<path d="M37.454 135.774C37.454 137.201 38.215 138.521 39.4508 139.236L41.454 135.774C39.4508 139.236 39.452 139.237 39.4532 139.237L39.4559 139.239L39.4622 139.243L39.4787 139.252L39.5268 139.279C39.5657 139.301 39.618 139.331 39.6835 139.367C39.8145 139.439 39.9985 139.538 40.234 139.661C40.7048 139.907 41.3819 140.247 42.2526 140.65C43.9931 141.456 46.512 142.515 49.7078 143.575C56.0952 145.695 65.2215 147.832 76.259 147.943C87.353 148.054 95.9108 145.904 101.757 143.675C104.676 142.562 106.914 141.431 108.451 140.557C109.22 140.12 109.814 139.746 110.23 139.471C110.439 139.333 110.603 139.22 110.723 139.135C110.783 139.093 110.831 139.058 110.869 139.031L110.917 138.995L110.935 138.982L110.942 138.977L110.945 138.974C110.947 138.973 110.948 138.972 108.546 135.774L110.948 138.972C111.954 138.216 112.546 137.032 112.546 135.774V51.3155C112.546 50.2216 112.098 49.1754 111.306 48.4205L91.4556 29.4935V21.6546C91.4556 20.3924 90.8598 19.2042 89.8483 18.4492C88.8369 17.6941 87.5283 17.4608 86.3182 17.8197C81.8358 19.1492 78.5803 19.7485 75.3497 19.6821C72.119 19.6157 68.634 18.8767 63.733 17.1321C62.5082 16.6962 61.1479 16.8826 60.0857 17.6321C59.0234 18.3815 58.3916 19.6005 58.3916 20.9005V29.5021L38.6832 48.4306C37.8979 49.1848 37.454 50.2266 37.454 51.3155V135.774Z" stroke="#2A5F5E" stroke-width="8" stroke-linecap="round" stroke-linejoin="round"/>
<path d="M56.854 8.91298L55.3849 4.13369C53.1849 4.80993 51.7308 6.90056 51.8622 9.19833L56.854 8.91298ZM74.454 6.44982L74.4157 11.4497L74.4161 11.4497L74.454 6.44982ZM92.054 9.22088H97.054C97.054 7.06327 95.67 5.14902 93.6211 4.47279L92.054 9.22088ZM92.054 18.7656L93.3956 23.5823C95.558 22.98 97.054 21.0104 97.054 18.7656H92.054ZM76.054 20.9209L76.0309 15.9209L76.03 15.921L76.054 20.9209ZM57.3873 18.1498L52.3955 18.4352C52.5134 20.4981 53.8881 22.276 55.855 22.9092L57.3873 18.1498ZM70.0218 18.7287C70.0218 21.4901 72.2603 23.7287 75.0218 23.7287C77.7832 23.7287 80.0218 21.4901 80.0218 18.7287H70.0218ZM80.0218 13.4655C80.0218 10.7041 77.7832 8.46551 75.0218 8.46551C72.2603 8.46551 70.0218 10.7041 70.0218 13.4655H80.0218ZM62.4519 17.8515C62.4519 20.6129 64.6904 22.8515 67.4519 22.8515C70.2133 22.8515 72.4519 20.6129 72.4519 17.8515H62.4519ZM72.4519 13.2462C72.4519 10.4848 70.2133 8.24621 67.4519 8.24621C64.6904 8.24621 62.4519 10.4848 62.4519 13.2462H72.4519ZM83.6476 16.0971C83.6476 18.8585 85.8862 21.0971 88.6476 21.0971C91.409 21.0971 93.6476 18.8585 93.6476 16.0971H83.6476ZM93.6476 12.5883C93.6476 9.82689 91.409 7.58831 88.6476 7.58831C85.8862 7.58831 83.6476 9.82689 83.6476 12.5883H93.6476ZM77.2132 17.8515C77.2132 20.6129 79.4517 22.8515 82.2132 22.8515C84.9746 22.8515 87.2132 20.6129 87.2132 17.8515H77.2132ZM87.2132 13.2462C87.2132 10.4848 84.9746 8.24621 82.2132 8.24621C79.4517 8.24621 77.2132 10.4848 77.2132 13.2462H87.2132ZM56.3959 16.0971C56.3959 18.8585 58.6345 21.0971 61.3959 21.0971C64.1574 21.0971 66.3959 18.8585 66.3959 16.0971H56.3959ZM66.3959 12.5883C66.3959 9.82689 64.1574 7.58831 61.3959 7.58831C58.6345 7.58831 56.3959 9.82689 56.3959 12.5883H66.3959ZM58.3231 13.6923C60.8837 12.9052 66.6441 11.3901 74.4157 11.4497L74.4923 1.44997C65.3893 1.38021 58.5736 3.15348 55.3849 4.13369L58.3231 13.6923ZM74.4161 11.4497C82.2582 11.5092 87.9805 13.1417 90.487 13.969L93.6211 4.47279C90.4743 3.4342 83.6846 1.51975 74.492 1.44996L74.4161 11.4497ZM87.054 9.22088V18.7656H97.054V9.22088H87.054ZM90.7125 13.949C87.9688 14.7131 82.7989 15.8897 76.0309 15.9209L76.0771 25.9208C83.9758 25.8844 90.0592 24.5115 93.3956 23.5823L90.7125 13.949ZM76.03 15.921C67.7672 15.9607 61.6515 14.27 58.9197 13.3904L55.855 22.9092C59.2245 23.9941 66.4315 25.9673 76.0781 25.9208L76.03 15.921ZM62.3792 17.8645C62.291 16.3225 62.2016 14.7809 62.1123 13.2418C62.0229 11.7019 61.9337 10.1646 61.8459 8.62764L51.8622 9.19833C51.9503 10.7403 52.0398 12.2819 52.1291 13.8211C52.2184 15.3609 52.3076 16.8982 52.3955 18.4352L62.3792 17.8645ZM87.054 8.86025C87.054 6.40265 88.8121 5.26042 88.914 5.19217C89.2416 4.97271 89.4013 4.95467 89.1296 5.04272C88.6551 5.19647 87.7059 5.40866 86.2201 5.6123C83.3226 6.00943 79.1603 6.27253 74.454 6.27253V16.2725C79.468 16.2725 84.1056 15.9956 87.5781 15.5197C89.2773 15.2868 90.9055 14.9792 92.2123 14.5557C92.8312 14.3552 93.6824 14.0342 94.479 13.5006C95.0498 13.1183 97.054 11.6509 97.054 8.86025H87.054ZM74.454 6.27253C69.7478 6.27253 65.5854 6.00943 62.6879 5.6123C61.2022 5.40866 60.2529 5.19647 59.7784 5.04272C59.5067 4.95467 59.6664 4.97272 59.9941 5.19217C60.096 5.26042 61.854 6.40266 61.854 8.86025H51.854C51.854 11.6509 53.8583 13.1183 54.4291 13.5006C55.2256 14.0342 56.0768 14.3552 56.6958 14.5557C58.0025 14.9792 59.6307 15.2868 61.33 15.5197C64.8024 15.9956 69.44 16.2725 74.454 16.2725V6.27253ZM61.854 8.86025C61.854 11.3178 60.096 12.4601 59.9941 12.5283C59.6664 12.7478 59.5067 12.7658 59.7784 12.6778C60.2529 12.524 61.2022 12.3118 62.6879 12.1082C65.5854 11.7111 69.7478 11.448 74.454 11.448V1.44797C69.44 1.44797 64.8024 1.72488 61.33 2.20082C59.6307 2.43372 58.0025 2.74133 56.6958 3.16478C56.0768 3.36534 55.2256 3.68633 54.4291 4.21986C53.8583 4.60217 51.854 6.06959 51.854 8.86025H61.854ZM74.454 11.448C79.1603 11.448 83.3226 11.7111 86.2201 12.1082C87.7059 12.3118 88.6551 12.524 89.1296 12.6778C89.4013 12.7658 89.2416 12.7478 88.914 12.5283C88.8121 12.4601 87.054 11.3178 87.054 8.86025H97.054C97.054 6.06959 95.0498 4.60217 94.479 4.21986C93.6824 3.68633 92.8312 3.36534 92.2123 3.16478C90.9055 2.74133 89.2773 2.43372 87.5781 2.20082C84.1056 1.72488 79.468 1.44797 74.454 1.44797V11.448ZM80.0218 18.7287V13.4655H70.0218V18.7287H80.0218ZM72.4519 17.8515V13.2462H62.4519V17.8515H72.4519ZM93.6476 16.0971V12.5883H83.6476V16.0971H93.6476ZM87.2132 17.8515V13.2462H77.2132V17.8515H87.2132ZM66.3959 16.0971V12.5883H56.3959V16.0971H66.3959Z" fill="#2A5F5E"/>
<path d="M62.957 107.283C70.2024 106.331 80.5166 112.787 80.5166 112.787L96.1676 102.722C91.164 114.616 91.4427 120.73 96.1676 130.874L80.5166 124.269C80.5166 124.269 69.9564 129.46 62.957 128.358C55.4671 127.179 48.1032 124.416 47.8786 118.135C47.6484 111.695 55.2363 108.297 62.957 107.283Z" fill="#E72458" stroke="#E72458" stroke-width="6" stroke-linecap="round" stroke-linejoin="round"/>
</svg>
