<svg width="126" height="20" viewBox="0 0 126 20" fill="none" xmlns="http://www.w3.org/2000/svg">
<path d="M21.8005 1.2998C19.5683 1.2998 12.4331 1.2998 10.2008 1.2998C5.39522 1.2998 1.5 5.19502 1.5 9.99948C1.5 14.8055 5.39522 18.6998 10.2008 18.6998C12.4331 18.6998 19.5683 18.6998 21.8005 18.6998C26.6049 18.6998 30.5 14.8055 30.5 9.99948C30.5 5.19487 26.6049 1.2998 21.8005 1.2998Z" fill="white"/>
<path d="M23.8281 9.47287L27.6854 14.06C28.4843 12.9059 28.9535 11.506 28.9535 9.99893C28.9535 8.40788 28.4308 6.93637 27.5489 5.74707L23.8281 9.47287Z" fill="#E2231A"/>
<path d="M12.8989 5.35949C15.7795 5.35949 17.9498 6.09241 18.1731 8.51934L21.2048 5.35903H27.2412C25.9281 3.822 23.9767 2.8457 21.8015 2.8457H10.2017C8.02571 2.8457 6.07403 3.822 4.76074 5.35934C6.68219 5.35949 11.145 5.35949 12.8989 5.35949Z" fill="#E2231A"/>
<path d="M8.15265 8.41895L7.12402 11.2473C7.12402 11.2473 10.1692 11.2473 11.2743 11.2473C12.501 11.2473 12.8722 10.7392 13.1469 9.76139C13.4187 8.7943 12.736 8.41895 11.8975 8.41895C11.1937 8.41895 8.15265 8.41895 8.15265 8.41895Z" fill="#E2231A"/>
<path d="M21.2293 14.4469L18.0234 10.395C17.4303 13.1576 15.4895 14.4463 11.8517 14.4463C9.12105 14.4463 5.92959 14.4463 4.60156 14.4463C5.91317 16.0944 7.93574 17.1531 10.2012 17.1531H21.801C24.0658 17.1531 26.0878 16.0949 27.3994 14.4469H21.2293Z" fill="#E2231A"/>
<path d="M59.3149 3.73186L52.4785 3.75537L52.6857 16.271L59.5221 16.2475L59.3149 3.73186Z" fill="#FF5F00"/>
<path d="M52.9277 10.0371C52.8854 7.49152 54.0258 5.22967 55.8119 3.76252C54.4637 2.70457 52.7735 2.06839 50.9413 2.07467C46.6006 2.08954 43.1481 5.66538 43.2213 10.0704C43.2945 14.4753 46.8655 18.0271 51.2061 18.0122C53.0383 18.006 54.7072 17.3583 56.0201 16.2912C54.1858 14.8586 52.97 12.5827 52.9277 10.0371Z" fill="#EB001B"/>
<path d="M68.7773 9.93019C68.8505 14.3352 65.398 17.911 61.0574 17.9259C59.2251 17.9322 57.5349 17.296 56.1867 16.238C57.9947 14.7708 59.1132 12.509 59.0709 9.96344C59.0286 7.41785 57.8132 5.16407 55.9785 3.70932C57.2914 2.64226 58.9603 1.99457 60.7925 1.9883C65.1331 1.97343 68.7045 5.54736 68.7773 9.93019Z" fill="#F79E1B"/>
<path d="M122.002 3.45264H119.242C118.407 3.45264 117.765 3.70942 117.38 4.54395L112.116 16.5484H115.84C115.84 16.5484 116.481 14.9436 116.61 14.5584C116.995 14.5584 120.654 14.5584 121.168 14.5584C121.296 15.0077 121.617 16.4842 121.617 16.4842H124.955L122.002 3.45264ZM117.637 11.8622C117.958 11.0918 119.049 8.20307 119.049 8.20307C119.049 8.26726 119.37 7.43273 119.499 6.98336L119.755 8.13887C119.755 8.13887 120.462 11.2844 120.59 11.9264H117.637V11.8622Z" fill="#3362AB"/>
<path d="M112.371 12.2471C112.371 14.9433 109.932 16.7407 106.144 16.7407C104.539 16.7407 102.999 16.4197 102.164 16.0346L102.678 13.0816L103.127 13.2742C104.282 13.7878 105.053 13.9803 106.465 13.9803C107.492 13.9803 108.584 13.5952 108.584 12.6964C108.584 12.1187 108.134 11.7335 106.722 11.0916C105.374 10.4496 103.576 9.42249 103.576 7.56083C103.576 4.99303 106.08 3.25977 109.611 3.25977C110.959 3.25977 112.114 3.51655 112.82 3.83752L112.307 6.6621L112.05 6.40532C111.408 6.14854 110.574 5.89176 109.354 5.89176C108.006 5.95596 107.364 6.53371 107.364 7.04727C107.364 7.62503 108.134 8.07439 109.354 8.65215C111.408 9.61507 112.371 10.7064 112.371 12.2471Z" fill="#3362AB"/>
<path d="M81.0449 3.581L81.1091 3.32422H86.6299C87.4002 3.32422 87.978 3.581 88.1706 4.41553L89.3903 10.1931C88.1706 7.11173 85.346 4.60812 81.0449 3.581Z" fill="#F9B50B"/>
<path d="M97.1584 3.45238L91.5734 16.484H87.7859L84.5762 5.57081C86.8872 7.0473 88.813 9.35832 89.5192 10.9632L89.9044 12.3113L93.3709 3.38818H97.1584V3.45238Z" fill="#3362AB"/>
<path d="M98.6335 3.38818H102.164L99.9174 16.484H96.3867L98.6335 3.38818Z" fill="#3362AB"/>
</svg>
