<svg width="150" height="151" viewBox="0 0 150 151" fill="none" xmlns="http://www.w3.org/2000/svg">
<path d="M53.5117 15.927C56.9747 14.0063 64.5497 10.4327 74.7139 10.5732C84.9744 10.7137 92.5108 14.5685 95.916 16.5962V37.3421C92.2538 39.1825 85.4755 41.953 76.6413 42.0266C65.8539 42.1203 57.8292 38.1385 54.1542 36.0036C53.9422 29.3114 53.7237 22.6192 53.5117 15.927Z" stroke="#2A5F5E" stroke-width="5" stroke-linecap="round" stroke-linejoin="round"/>
<path d="M74.7139 21.2826C86.4235 21.2826 95.916 18.8856 95.916 15.9288C95.916 12.972 86.4235 10.575 74.7139 10.575C63.0042 10.575 53.5117 12.972 53.5117 15.9288C53.5117 18.8856 63.0042 21.2826 74.7139 21.2826Z" stroke="#2A5F5E" stroke-width="5" stroke-miterlimit="10"/>
<path d="M75.3574 37.3439V25.9872" stroke="#2A5F5E" stroke-width="5" stroke-miterlimit="10" stroke-linecap="round"/>
<path d="M66.3613 35.3341V25.2957" stroke="#2A5F5E" stroke-width="5" stroke-miterlimit="10" stroke-linecap="round"/>
<path d="M91.7656 31.5341V24.0789" stroke="#2A5F5E" stroke-width="5" stroke-miterlimit="10" stroke-linecap="round"/>
<path d="M84.3516 35.3341V25.2957" stroke="#2A5F5E" stroke-width="5" stroke-miterlimit="10" stroke-linecap="round"/>
<path d="M59.1279 31.6005V24.1454" stroke="#2A5F5E" stroke-width="5" stroke-miterlimit="10" stroke-linecap="round"/>
<path d="M53.5116 44.5711C39.1648 66.0331 24.818 87.4884 10.4648 108.95" stroke="#2A5F5E" stroke-width="8" stroke-miterlimit="10" stroke-linecap="round"/>
<path d="M96.4883 44.4637C110.835 65.919 125.188 87.3809 139.535 108.836" stroke="#2A5F5E" stroke-width="8" stroke-miterlimit="10" stroke-linecap="round"/>
<path d="M74.54 139.826C90.3302 139.826 103.131 137.878 103.131 135.476C103.131 133.073 90.3302 131.126 74.54 131.126C58.7497 131.126 45.9492 133.073 45.9492 135.476C45.9492 137.878 58.7497 139.826 74.54 139.826Z" fill="#FBD9DE" stroke="#FBD9DE" stroke-width="5" stroke-miterlimit="10" stroke-linecap="round"/>
<path d="M79.3808 85.6376L97.9761 90.0659C99.9539 90.5369 101.195 92.6101 100.749 94.6966L99.2211 101.837C98.3831 105.753 94.6863 108.217 90.9739 107.333L75.526 103.654C71.8135 102.77 69.4783 98.8699 70.3163 94.9533L71.1336 91.1338C71.9716 87.2171 75.6683 84.7536 79.3808 85.6376Z" fill="#F38898" stroke="#F38898" stroke-width="5" stroke-miterlimit="10" stroke-linecap="round"/>
<path d="M100.306 90.459L95.1431 90.6588C95.0219 90.6635 94.9242 90.5677 94.9198 90.4398L94.9193 90.4256C94.9149 90.2978 95.0056 90.1947 95.1268 90.1901L100.552 89.9802C100.6 89.9783 100.641 90.0194 100.643 90.0691C100.65 90.2751 100.495 90.4517 100.299 90.4593L100.306 90.459Z" fill="#F38898" stroke="#F38898" stroke-width="6.29" stroke-miterlimit="10" stroke-linecap="round"/>
<path d="M105.712 103.248L105.741 103.231C105.794 103.31 105.846 103.389 105.899 103.468L105.712 103.248ZM105.712 103.248L105.621 103.528M100.823 89.6206L100.705 89.5759C100.498 89.4299 100.415 89.1559 100.491 88.8615C100.534 88.6956 100.618 88.5851 100.696 88.5331C100.756 88.4932 100.848 88.4611 101.014 88.5234C103.798 89.58 105.778 92.31 106.014 95.4692C106.122 96.9386 105.685 98.283 105.212 99.737C105.107 100.061 104.999 100.391 104.896 100.729C104.889 100.751 104.883 100.773 104.876 100.795C104.597 100.712 104.301 100.7 104.037 100.753C103.959 100.769 103.881 100.79 103.805 100.818C103.953 100.27 104.135 99.7128 104.326 99.1358C104.944 97.2753 105.313 95.3921 104.504 93.3771L104.504 93.3769C103.827 91.6887 102.507 90.2598 100.823 89.6206ZM105.725 103.207C105.73 103.214 105.735 103.222 105.74 103.229L105.713 103.245L105.725 103.207ZM105.735 103.177L105.822 102.907C105.823 102.907 105.823 102.907 105.823 102.907C105.861 102.79 105.885 102.675 105.898 102.563C105.942 102.629 105.986 102.695 106.03 102.762L105.735 103.177ZM104.55 101.975C104.554 101.976 104.557 101.977 104.56 101.978L103.972 102.147C104.111 101.959 104.333 101.912 104.55 101.975ZM102.739 107.403C102.581 107.333 102.47 107.221 102.427 107.081L103.172 107.413C103.051 107.475 102.899 107.473 102.739 107.403ZM104.852 108.682C104.834 108.659 104.817 108.633 104.801 108.604L105.555 108.712C105.537 108.727 105.516 108.742 105.494 108.756C105.377 108.831 105.242 108.858 105.141 108.845C105.003 108.824 104.917 108.765 104.852 108.682ZM107.667 106.957C107.546 107.047 107.412 107.09 107.284 107.09L107.877 106.608C107.876 106.632 107.872 106.655 107.868 106.675C107.845 106.771 107.779 106.874 107.667 106.957ZM106.168 103.875C106.308 104.085 106.447 104.296 106.586 104.506C106.506 104.489 106.425 104.475 106.344 104.464C106.298 104.337 106.248 104.211 106.195 104.086C106.186 104.015 106.177 103.945 106.168 103.875Z" fill="#F38898" stroke="#F38898"/>
<path d="M95.2329 113.899C94.4949 116.365 93.757 118.832 93.019 121.298L92.4767 121.146C92.3508 121.11 92.2249 121.075 92.0989 121.039C92.5156 119.666 92.902 118.283 93.2575 116.892C93.3076 116.725 93.3577 116.557 93.4079 116.39C93.541 116.366 93.6729 116.324 93.7994 116.261C94.0218 116.15 94.2141 115.983 94.3617 115.765L94.4694 115.796L94.5823 115.3C95.3816 112.834 96.1807 110.369 96.9865 107.904L96.9866 107.903C97.1343 107.451 97.0836 107.02 96.8729 106.671C96.7626 106.488 96.6155 106.339 96.4489 106.225C96.5668 105.831 96.6847 105.437 96.8027 105.043H96.809L96.916 104.687C96.975 104.491 97.0782 104.397 97.1764 104.35C97.285 104.298 97.4254 104.287 97.565 104.327C97.7046 104.368 97.8137 104.45 97.874 104.548C97.928 104.636 97.9643 104.768 97.9047 104.969C97.0159 107.938 96.1271 110.909 95.2384 113.88L95.2374 113.884L95.2329 113.899ZM90.1414 120.483C90.6888 118.679 91.1832 116.859 91.6242 115.024C91.6682 115.568 91.9818 115.99 92.3964 116.219C92.3624 116.355 92.3282 116.49 92.2936 116.625C91.8829 117.998 91.4722 119.371 91.0616 120.743C90.9002 120.697 90.7387 120.651 90.5771 120.606L90.1414 120.483ZM93.6861 106.397C93.8432 106.427 93.9868 106.512 94.0877 106.63L93.3103 106.519C93.3388 106.473 93.3697 106.447 93.394 106.432C93.4535 106.394 93.5525 106.37 93.6861 106.397ZM93.2504 107.52L93.8985 107.613C93.6928 108.248 93.4871 108.882 93.2813 109.516C93.296 108.853 93.2856 108.188 93.2504 107.52ZM92.7885 114.264C92.8695 114.016 92.9504 113.768 93.0313 113.52C92.9752 113.775 92.918 114.03 92.8598 114.284L92.7885 114.264ZM90.0017 121.324L90.5709 122.382L90.4508 122.783C90.3148 122.745 90.1785 122.706 90.0423 122.668C89.9354 122.635 89.8129 122.54 89.7308 122.393C89.6494 122.248 89.6348 122.101 89.6715 121.988L89.6719 121.986C89.7578 121.719 89.8425 121.451 89.9261 121.183L90.0017 121.324ZM91.9378 123.207C91.7784 123.162 91.619 123.117 91.4593 123.071L91.5919 122.659L92.5985 122.056L92.8344 121.915C92.7463 122.209 92.6583 122.503 92.5702 122.797C92.4663 123.138 92.1713 123.274 91.942 123.208L91.9378 123.207Z" fill="#F38898" stroke="#F38898"/>
<path d="M93.303 103.581L88.4173 119.909L87.8751 119.757C87.7493 119.722 87.6234 119.686 87.4973 119.65C87.9141 118.277 88.3004 116.895 88.6559 115.504C88.706 115.336 88.7562 115.169 88.8063 115.001C88.9395 114.977 89.0713 114.935 89.1978 114.872C89.4203 114.762 89.6125 114.594 89.7601 114.376L89.8678 114.408L89.9807 113.912C90.78 111.446 91.5792 108.98 92.3849 106.515L92.385 106.515C92.5327 106.062 92.482 105.631 92.2713 105.282C92.161 105.099 92.014 104.951 91.8473 104.837C91.9653 104.443 92.0832 104.049 92.2011 103.655H92.2075L92.3145 103.298C92.3735 103.102 92.4766 103.008 92.5748 102.961C92.6835 102.909 92.8238 102.898 92.9634 102.939C93.103 102.979 93.2121 103.062 93.2725 103.159C93.3264 103.247 93.3628 103.379 93.3032 103.58C93.3032 103.58 93.3031 103.58 93.303 103.581ZM85.5398 119.095C86.0872 117.29 86.5816 115.47 87.0227 113.635C87.0667 114.179 87.3802 114.601 87.7948 114.83C87.7608 114.966 87.7266 115.101 87.692 115.237C87.2814 116.609 86.8707 117.982 86.46 119.354C86.2987 119.308 86.1371 119.262 85.9755 119.217L85.5398 119.095ZM89.0846 105.008C89.2417 105.039 89.3852 105.124 89.4862 105.241L88.7087 105.13C88.7373 105.084 88.7681 105.058 88.7924 105.043C88.852 105.005 88.9509 104.982 89.0846 105.008ZM88.6489 106.132L89.2969 106.224C89.0912 106.859 88.8855 107.493 88.6797 108.128C88.6944 107.465 88.684 106.799 88.6489 106.132ZM88.187 112.875C88.268 112.627 88.3489 112.379 88.4297 112.131C88.3736 112.386 88.3165 112.641 88.2583 112.896L88.187 112.875ZM85.4001 119.935L85.9694 120.993L85.8493 121.395C85.7132 121.356 85.577 121.317 85.4407 121.279C85.3339 121.247 85.2113 121.151 85.1292 121.005C85.0479 120.859 85.0333 120.712 85.0699 120.599L85.0703 120.598C85.1562 120.33 85.2409 120.063 85.3245 119.795L85.4001 119.935ZM87.3362 121.818C87.1769 121.773 87.0174 121.728 86.8578 121.683L86.9903 121.27L87.9969 120.668L88.2327 120.526L87.9689 121.408C87.9688 121.408 87.9687 121.408 87.9687 121.409C87.8647 121.75 87.5697 121.886 87.3405 121.819L87.3362 121.818Z" fill="#F38898" stroke="#F38898"/>
<path d="M74.0266 117.346L73.3982 117.722L74.0266 117.346ZM74.0266 117.346C74.0296 117.335 74.0327 117.325 74.0358 117.314L74.0266 117.346ZM77.9416 97.6154L77.9716 97.5108C78.0383 97.3552 78.1348 97.2718 78.2287 97.2263C78.3526 97.1664 78.5126 97.1538 78.6721 97.1999C78.8316 97.2459 78.9604 97.3418 79.0335 97.459C79.1003 97.5661 79.1412 97.7226 79.0756 97.9495L79.0754 97.9502C78.0787 101.418 77.0836 104.885 76.0886 108.352L76.0879 108.354L76.0872 108.357C75.2437 111.296 74.4003 114.235 73.5558 117.174L72.9667 117.002L72.6402 116.907C73.1986 114.999 73.7133 113.078 74.1838 111.144C74.3169 111.119 74.4484 111.075 74.5748 111.012C74.8166 110.891 75.0237 110.706 75.1791 110.463L75.278 110.492L75.3914 109.993C75.8341 108.557 76.2785 107.118 76.7229 105.68C77.1691 104.236 77.6153 102.791 78.0599 101.349C78.2091 100.869 78.1484 100.417 77.9256 100.053C77.7897 99.831 77.6024 99.6563 77.3911 99.5308C77.5745 98.8923 77.758 98.2538 77.9416 97.6154ZM71.9782 119.102L72.1662 118.488C72.1697 118.477 72.1732 118.465 72.1768 118.454L71.9782 119.102ZM70.3501 116.911L70.4868 117.165L71.009 118.135C71.0079 118.139 71.0067 118.143 71.0056 118.147L70.8276 118.766L70.4845 118.666C70.484 118.666 70.4836 118.666 70.4832 118.665C70.353 118.626 70.2149 118.516 70.1242 118.354C70.0345 118.193 70.0133 118.022 70.0576 117.878L70.0578 117.877C70.1565 117.555 70.2539 117.233 70.3501 116.911ZM71.0671 116.448L70.5329 116.292C71.1707 114.113 71.7515 111.915 72.2746 109.703C72.3195 110.269 72.6442 110.709 73.0715 110.954C72.5349 112.823 71.9981 114.693 71.4609 116.563L71.0671 116.448ZM77.1045 101.054C76.8298 101.945 76.5544 102.837 76.2788 103.73C76.2862 103.598 76.2928 103.466 76.2988 103.334C76.5608 102.422 76.8229 101.509 77.085 100.596C77.1403 100.698 77.1697 100.844 77.1049 101.052L77.1045 101.054ZM74.715 99.7327C74.9091 99.7674 75.0816 99.8731 75.1906 100.025C75.1816 100.039 75.1729 100.054 75.1644 100.068L74.2218 99.934C74.2608 99.8566 74.3096 99.812 74.3534 99.7845C74.4363 99.7325 74.5618 99.7054 74.715 99.7327ZM73.4339 108.914C73.7062 108.031 73.979 107.148 74.252 106.264C74.0969 107.022 73.9351 107.778 73.7666 108.532C73.7243 108.679 73.682 108.827 73.6397 108.974L73.4339 108.914ZM71.3847 118.929L71.4237 118.905L71.4458 118.946L71.3847 118.929ZM71.8316 119.58L72.2406 119.699L71.8316 119.58Z" fill="#F38898" stroke="#F38898"/>
<path d="M69.4328 115.912L68.8044 116.289L69.4328 115.912ZM69.4328 115.912C69.4359 115.902 69.439 115.891 69.442 115.88L69.4328 115.912ZM73.3478 96.1818L73.3779 96.0772C73.4445 95.9216 73.541 95.8382 73.635 95.7927C73.7589 95.7328 73.9188 95.7202 74.0784 95.7663C74.2379 95.8123 74.3666 95.9082 74.4398 96.0254C74.5066 96.1326 74.5475 96.289 74.4819 96.5159L74.4817 96.5166C73.485 99.9837 72.49 103.451 71.495 106.918L71.4942 106.921L71.4935 106.923C70.65 109.862 69.8065 112.801 68.962 115.74L68.3729 115.568L68.0465 115.473C68.6048 113.565 69.1195 111.644 69.5901 109.71C69.7231 109.685 69.8547 109.642 69.981 109.578C70.2228 109.458 70.4299 109.273 70.5853 109.03L70.6843 109.058L70.7977 108.559C71.2404 107.123 71.6847 105.685 72.1291 104.246C72.5753 102.802 73.0216 101.358 73.4662 99.9152C73.6153 99.4353 73.5546 98.983 73.3319 98.6193C73.1959 98.3974 73.0087 98.2227 72.7974 98.0972C72.9808 97.4587 73.1643 96.8202 73.3478 96.1818ZM67.3844 117.668L67.5725 117.055C67.576 117.043 67.5795 117.032 67.583 117.02L67.3844 117.668ZM65.7563 115.477L65.893 115.731L66.4153 116.701C66.4141 116.705 66.413 116.709 66.4118 116.713L66.2338 117.332L65.8907 117.232C65.8903 117.232 65.8898 117.232 65.8894 117.232C65.7592 117.192 65.6211 117.083 65.5304 116.92C65.4408 116.76 65.4196 116.588 65.4639 116.444L65.4641 116.444C65.5628 116.122 65.6602 115.8 65.7563 115.477ZM66.4733 115.014L65.9392 114.858C66.5769 112.679 67.1577 110.482 67.6809 108.269C67.7257 108.835 68.0504 109.275 68.4778 109.52C67.9411 111.39 67.4044 113.259 66.8672 115.129L66.4733 115.014ZM72.5107 99.6202C72.236 100.512 71.9606 101.404 71.685 102.296C71.6924 102.164 71.6991 102.032 71.7051 101.901C71.9671 100.988 72.2291 100.075 72.4913 99.1627C72.5465 99.2645 72.576 99.4104 72.5111 99.6188L72.5107 99.6202ZM70.1212 98.2991C70.3153 98.3338 70.4879 98.4395 70.5968 98.591C70.5879 98.6054 70.5792 98.6201 70.5706 98.6349L69.628 98.5004C69.6671 98.423 69.7158 98.3784 69.7596 98.3509C69.8425 98.2989 69.968 98.2718 70.1212 98.2991ZM68.8401 107.481C69.1124 106.598 69.3852 105.714 69.6583 104.83C69.5032 105.588 69.3414 106.344 69.1728 107.098C69.1305 107.246 69.0882 107.393 69.0459 107.541L68.8401 107.481ZM66.791 117.495L66.8299 117.472L66.852 117.513L66.791 117.495ZM67.2378 118.146L67.6468 118.266L67.2378 118.146Z" fill="#F38898" stroke="#F38898"/>
<path d="M87.9913 107.059V106.99C88.028 107.017 88.0665 107.053 88.1023 107.097C88.0652 107.084 88.0282 107.072 87.9913 107.059ZM87.9913 107.059V107.476L88.0726 107.512C88.1229 107.483 88.1735 107.455 88.2245 107.427M84.9228 105.101C84.964 105.168 85.0057 105.236 85.048 105.304C84.8485 105.855 84.9528 106.459 85.313 106.894C85.21 106.987 85.1089 107.082 85.0097 107.179C84.8301 106.929 84.6555 106.673 84.485 106.413H84.4986L84.0306 105.651C83.926 105.481 83.9265 105.346 83.9579 105.245C83.9931 105.131 84.0813 105.018 84.2105 104.939C84.3398 104.859 84.4804 104.832 84.5968 104.852C84.7002 104.87 84.8189 104.93 84.9221 105.099L84.9221 105.099L84.9228 105.101ZM86.2774 105.376C86.2705 105.366 86.2636 105.355 86.2568 105.345C86.2572 105.344 86.2577 105.344 86.2581 105.344C86.2722 105.336 86.2859 105.329 86.299 105.323L86.2774 105.376ZM84.3196 110.595C84.2027 110.501 84.1304 110.348 84.114 110.192L84.7247 110.689C84.6956 110.697 84.6679 110.702 84.6417 110.704C84.5462 110.712 84.4379 110.688 84.3196 110.595ZM86.882 112.061C86.837 112.005 86.7981 111.92 86.8016 111.787L87.7189 112.05C87.5933 112.199 87.3706 112.269 87.1447 112.215C87.0258 112.187 86.9365 112.129 86.882 112.061ZM90.7803 112.744C90.7533 112.727 90.7261 112.705 90.7009 112.676L91.5166 112.559C91.4321 112.688 91.2889 112.773 91.118 112.799C90.9818 112.82 90.8625 112.794 90.7803 112.744ZM93.7056 111.564C93.6885 111.563 93.672 111.562 93.6563 111.559L94.2545 111.073C94.2381 111.226 94.1652 111.359 94.0494 111.455L94.0494 111.455L94.0472 111.456C93.9691 111.522 93.8408 111.568 93.7056 111.564ZM94.5328 107.912C94.4787 108.08 94.4155 108.241 94.344 108.396L93.4873 107.211L93.4503 107.16C93.6289 107.18 93.8079 107.198 93.9871 107.214C94.1578 107.23 94.3355 107.324 94.4474 107.463C94.5501 107.59 94.5893 107.739 94.5333 107.911L94.5328 107.912ZM90.5058 105.562C90.5821 105.556 90.6808 105.574 90.7939 105.677C90.6661 105.646 90.5386 105.614 90.4114 105.581C90.4441 105.571 90.4759 105.564 90.5058 105.562ZM85.9162 108.322C85.9822 108.264 86.0481 108.206 86.114 108.148C86.1037 108.267 86.0933 108.387 86.0828 108.506C86.0268 108.446 85.9713 108.384 85.9162 108.322ZM92.5642 109.842C92.5609 109.623 92.5576 109.405 92.5544 109.186C92.7189 109.209 92.8836 109.231 93.0486 109.251C93.1635 109.396 93.2784 109.54 93.3931 109.685C93.1923 109.866 92.9747 110.025 92.7441 110.161C92.6851 110.054 92.6251 109.948 92.5642 109.842ZM87.2253 110.868C87.2401 110.843 87.2549 110.818 87.2697 110.793C87.3686 110.853 87.469 110.911 87.5709 110.967L87.2253 110.868ZM91.4643 107.256L90.9499 107.481C90.8632 107.373 90.7752 107.267 90.6859 107.161C90.7382 107.109 90.8011 107.064 90.8723 107.03C91.0763 106.935 91.2405 106.973 91.3494 107.111C91.3877 107.159 91.426 107.208 91.4643 107.256ZM91.1603 110.714C90.9637 110.742 90.7644 110.757 90.5637 110.76C90.5596 110.48 90.5554 110.2 90.5512 109.92L90.5509 109.902C90.5496 109.816 90.5483 109.73 90.5471 109.644C90.7857 109.978 90.9917 110.335 91.1603 110.714ZM87.995 110.059C87.9219 110.018 87.8497 109.976 87.7782 109.932C87.7965 109.901 87.8147 109.87 87.833 109.839L88.0027 109.971C88.0001 110 87.9976 110.03 87.995 110.059Z" fill="#F38898" stroke="#F38898"/>
<path d="M73.0274 74.2032L73.0274 74.2033C73.4791 74.9393 73.4857 75.7267 73.4857 76.2008C73.479 78.0164 73.6357 80.512 74.0994 84.2115C74.1053 84.4249 74.1098 85.2143 73.8945 86.1092C73.6726 87.0313 73.2348 87.9944 72.4005 88.5944C71.3292 89.3638 70.0556 89.3569 67.8686 88.8136L67.8674 88.8133C66.3796 88.4477 64.9613 88.0871 63.7572 87.3023C62.5606 86.5224 61.6283 85.2579 61.5517 83.8711C61.4863 82.6182 62.0887 81.4181 62.7594 80.1618C63.4577 78.866 64.1525 77.5661 64.8459 76.2689C65.0959 75.8012 65.3457 75.3339 65.5955 74.8672C66.1579 73.8197 66.6928 72.9163 67.5222 72.5429L67.5233 72.5424C68.3762 72.156 69.3955 72.4063 70.5327 72.7501C71.6067 73.0791 72.5484 73.4223 73.0274 74.2032Z" fill="#F38898" stroke="#F38898"/>
<path d="M73.5887 84.1891L73.5945 84.1889L73.6617 84.1876L73.5954 84.1962L73.6666 84.1875L74.0886 84.1792C74.0886 84.1792 74.0886 84.1791 74.0886 84.1791L74.0886 84.1782L73.6682 84.1873L74.0888 84.1363C74.0888 84.1351 74.0889 84.1339 74.0889 84.1326L73.6631 84.1874L73.5945 84.1889L73.5887 84.1891ZM73.5887 84.1891C73.5883 84.1724 73.5883 84.156 73.5886 84.1398M73.5887 84.1891L73.5886 84.1398M73.5886 84.1398C73.5479 83.8036 73.5079 83.4675 73.4691 83.1312L73.5886 84.1398ZM75.1098 84.2083C75.1108 84.2621 75.1113 84.3159 75.1113 84.3695C75.0929 84.4356 75.0505 84.5099 74.9741 84.5844C74.849 84.7064 74.6994 84.7611 74.6084 84.7621C74.4589 84.7595 74.3589 84.704 74.2809 84.6142C74.1929 84.513 74.1195 84.3493 74.0915 84.134C74.0909 84.1286 74.0902 84.1231 74.0896 84.1177C74.0988 83.9457 74.1622 83.8459 74.2281 83.7853C74.3103 83.7096 74.4351 83.6604 74.5789 83.6604C74.7224 83.6604 74.8546 83.7096 74.9464 83.7912C75.0042 83.8426 75.0582 83.9173 75.0873 84.0283C75.0948 84.0883 75.1023 84.1483 75.1098 84.2083ZM75.0009 85.7015C74.8273 86.7334 74.4523 87.6865 73.8981 88.4496C73.0918 89.56 71.9043 90.2765 70.3494 90.2767C68.5066 90.2697 66.4062 89.6834 64.6746 88.9582C62.9883 88.252 61.5226 87.0892 60.853 85.3466C60.1186 83.415 60.8806 81.5186 61.8912 79.6279L61.8918 79.6268C62.2197 79.0097 62.5381 78.3907 62.8552 77.7744C63.6071 76.3126 64.3514 74.8657 65.1966 73.4935C65.7244 72.6401 66.3343 72.0399 67.023 71.6894C67.7062 71.3416 68.5039 71.2206 69.4472 71.3854C70.2784 71.5315 71.183 71.7483 71.9909 72.1134C72.7985 72.4782 73.4779 72.9769 73.9033 73.6698C74.2664 74.2646 74.4153 74.9419 74.4763 75.6929C74.5067 76.0686 74.5147 76.4538 74.5193 76.8521C74.52 76.9154 74.5207 76.9792 74.5213 77.0433C74.5247 77.3772 74.5282 77.7207 74.5442 78.0582C74.6156 79.6121 74.7556 81.1597 74.9294 82.6989C74.8132 82.6731 74.6953 82.6604 74.5789 82.6604C74.3622 82.6604 74.1399 82.7043 73.9341 82.7971C73.7775 81.416 73.6432 80.0388 73.5624 78.6594L73.5623 78.6578C73.5223 78.0106 73.4958 77.3798 73.4891 76.7222C73.4883 76.6421 73.4886 76.558 73.489 76.4706C73.4912 75.8992 73.4939 75.1893 73.1843 74.5431C72.8108 73.7601 72.0122 73.2851 71.2554 72.9913C70.4808 72.6906 69.6423 72.5382 69.0421 72.4646L69.0413 72.4645C67.9391 72.331 67.161 72.7652 66.581 73.4137C66.1178 73.9315 65.7604 74.6127 65.44 75.2235C65.3835 75.3312 65.3281 75.4367 65.2735 75.5388C65.0298 75.9925 64.7854 76.4463 64.5408 76.9003C63.8946 78.0998 63.2474 79.3011 62.6113 80.5089C61.8153 82.012 61.0079 83.8838 62.2024 85.7324L62.2026 85.7328C63.1614 87.2142 64.7848 87.8818 66.2144 88.3198C66.3115 88.3496 66.4107 88.3803 66.5117 88.4115C67.133 88.6037 67.8205 88.8164 68.5148 88.9657C69.3236 89.1397 70.1808 89.2373 71.0102 89.1106C72.2143 88.9272 73.0067 88.1525 73.4768 87.2127C73.7233 86.7197 73.8866 86.1734 73.9824 85.6211C74.1648 85.709 74.3719 85.7594 74.5999 85.7621V85.7621H74.6058C74.74 85.7621 74.873 85.7404 75.0009 85.7015Z" fill="#F38898" stroke="#F38898"/>
<path d="M68.3894 72.3417L68.3937 72.3757C68.3897 72.4002 68.3806 72.4337 68.3618 72.4765C68.3285 72.5525 68.2763 72.6306 68.2199 72.6948L68.2199 72.6948L68.2154 72.7001C68.1565 72.7691 68.0303 72.828 67.8532 72.8381C67.8219 72.8399 67.7729 72.8292 67.7194 72.8071C67.7517 72.6895 67.7724 72.567 67.781 72.4412C67.781 72.4409 67.781 72.4405 67.7811 72.4401L67.918 70.5355C68.0265 70.7897 68.1216 71.0495 68.204 71.3266C68.2985 71.6443 68.3416 71.9674 68.3894 72.3417ZM66.9464 70.1045L66.8971 70.7905C66.8042 70.6115 66.7018 70.4373 66.5905 70.2684L66.5954 70.2648L66.5916 70.2595L66.9464 70.1045ZM66.5035 72.8992C66.428 72.9437 66.341 72.9683 66.2473 72.9729L66.2473 72.9729L66.2433 72.9732C66.2228 72.9743 66.1687 72.9681 66.0924 72.9332C66.0182 72.8993 65.9563 72.8533 65.9206 72.8157C65.8824 72.7753 65.8349 72.7055 65.8003 72.6225C65.7648 72.5375 65.7576 72.4744 65.7599 72.4447L65.7601 72.4422L65.8644 70.9916C65.9718 71.1705 66.067 71.3553 66.1492 71.5451C66.2711 71.8838 66.3589 72.2263 66.4022 72.5686L66.4069 72.568C66.4286 72.6753 66.4584 72.7868 66.5035 72.8992ZM66.9451 69.0138L65.9762 69.4371L65.9824 69.3509L65.9824 69.3509L65.9827 69.3461C66.0006 69.0577 66.1406 68.8715 66.3052 68.7989C66.4884 68.7181 66.7054 68.7582 66.8452 68.9057C66.8789 68.9413 66.9122 68.9773 66.9451 69.0138Z" fill="#F38898" stroke="#F38898"/>
<path d="M72.9081 71.6933C72.8398 71.8795 72.7714 72.0658 72.7029 72.2523L72.7027 72.2528C72.5261 72.7339 72.3489 73.2162 72.1734 73.7005C72.1552 73.7506 72.1412 73.8016 72.1306 73.8527C72.0721 73.8415 72.0129 73.8199 71.9544 73.7878L71.9524 73.7867C71.8674 73.7406 71.7745 73.628 71.7318 73.4567C71.6893 73.2865 71.7151 73.13 71.7756 73.032L71.7761 73.0313C72.0927 72.5165 72.4735 72.0687 72.9081 71.6933ZM75.0689 71.6947L74.255 70.836C74.362 70.7879 74.4709 70.743 74.5816 70.7014C74.6788 70.6669 74.8938 70.7108 75.029 70.8534C75.0877 70.9155 75.1469 71.0151 75.1784 71.1269C75.2102 71.2393 75.2036 71.3245 75.1852 71.3745L75.1845 71.3766C75.146 71.4827 75.1075 71.5887 75.0689 71.6947ZM73.8941 71.9089L74.1245 72.152C73.9885 72.2351 73.8558 72.3243 73.7266 72.4199L73.7234 72.4161L73.7016 72.4338C73.7658 72.259 73.83 72.0841 73.8941 71.9089ZM73.5175 74.1237C73.5634 74.0511 73.6088 73.9816 73.6552 73.9137C73.8446 73.6713 74.0539 73.4509 74.2834 73.2522C74.3771 73.1813 74.4731 73.1146 74.5716 73.0517C74.4231 73.4562 74.2745 73.8617 74.1271 74.2685C74.0481 74.4851 73.9725 74.5849 73.8559 74.6622C73.77 74.7191 73.6354 74.7413 73.472 74.7004L73.472 74.7004L73.4649 74.6987C73.4095 74.6857 73.3203 74.6273 73.2496 74.5477L73.5175 74.1237Z" fill="#F38898" stroke="#F38898"/>
<mask id="path-23-inside-1_343_80" fill="white">
<path d="M66.0966 73.9763C63.9411 72.818 61.3477 72.5977 59.0439 73.3794C60.4046 74.3317 61.8933 75.0778 63.4493 75.5895C63.9209 75.7458 64.4059 75.8809 64.8976 75.8311C65.3893 75.7814 65.8811 75.5113 66.0966 75.0423C66.3122 74.5733 66.137 73.9124 65.679 73.7347"/>
</mask>
<path d="M66.0966 73.9763C63.9411 72.818 61.3477 72.5977 59.0439 73.3794C60.4046 74.3317 61.8933 75.0778 63.4493 75.5895C63.9209 75.7458 64.4059 75.8809 64.8976 75.8311C65.3893 75.7814 65.8811 75.5113 66.0966 75.0423C66.3122 74.5733 66.137 73.9124 65.679 73.7347" fill="#F38898"/>
<path d="M59.0439 73.3794L58.7226 72.4324L56.8532 73.0668L58.4706 74.1987L59.0439 73.3794ZM63.4493 75.5895L63.7641 74.6403L63.7617 74.6395L63.4493 75.5895ZM66.57 73.0955C64.1721 71.8069 61.2911 71.5609 58.7226 72.4324L59.3653 74.3264C61.4043 73.6345 63.71 73.8291 65.6233 74.8572L66.57 73.0955ZM58.4706 74.1987C59.9106 75.2065 61.4871 75.9969 63.137 76.5395L63.7617 74.6395C62.2996 74.1588 60.8987 73.4569 59.6173 72.5601L58.4706 74.1987ZM63.1346 76.5387C63.6122 76.697 64.276 76.8991 64.9983 76.8261L64.797 74.8362C64.5357 74.8626 64.2296 74.7947 63.7641 74.6403L63.1346 76.5387ZM64.9983 76.8261C65.7446 76.7505 66.6047 76.3314 67.0053 75.4599L65.188 74.6247C65.1724 74.6586 65.1395 74.7028 65.0699 74.7464C64.9974 74.7918 64.9006 74.8257 64.797 74.8362L64.9983 76.8261ZM67.0053 75.4599C67.2251 74.9816 67.2349 74.4457 67.0979 73.9909C66.9617 73.5384 66.6333 73.0323 66.0406 72.8024L65.3174 74.667C65.2531 74.6421 65.2135 74.6052 65.1952 74.5829C65.1786 74.5628 65.1791 74.5551 65.1829 74.5676C65.1865 74.5795 65.1889 74.5967 65.188 74.6136C65.1872 74.6306 65.1838 74.6339 65.188 74.6247L67.0053 75.4599Z" fill="#F38898" mask="url(#path-23-inside-1_343_80)"/>
<path d="M65.2529 75.0126C65.2184 75.0194 65.1841 75.0224 65.1505 75.0221C65.1068 75.0216 65.0644 75.0154 65.0247 75.0047C65.0218 75.004 65.019 75.0032 65.0162 75.0024C65.0121 75.0012 65.008 74.9999 65.0039 74.9987L65.2305 75.0487C65.238 75.0376 65.2456 75.0256 65.2529 75.0126ZM65.2529 75.0126C65.2624 74.9957 65.2716 74.9773 65.2799 74.9572M66.5153 74.2663C66.3982 74.4749 66.1742 74.5658 65.9416 74.5043L65.9468 74.4987L65.5181 74.1595C65.4905 74.1376 65.4589 74.1174 65.4238 74.1003C65.4056 74.0888 65.3851 74.0773 65.362 74.0669L65.1837 73.86C65.1564 73.6944 65.1855 73.5353 65.2394 73.4395L65.2407 73.4372C65.3435 73.2523 65.5227 73.159 65.7461 73.192C65.8933 73.2572 66.0393 73.3262 66.1839 73.3989C66.3607 73.5444 66.4978 73.75 66.5838 73.9969C66.5803 74.0982 66.5556 74.1927 66.5153 74.2663ZM64.3679 72.949C64.2233 73.206 64.164 73.5072 64.1747 73.7979C63.5842 73.6314 62.9789 73.531 62.3695 73.4962C61.7132 73.1983 61.0749 72.8513 60.4535 72.4588C61.805 72.2552 63.1873 72.3553 64.5065 72.7391C64.4564 72.8035 64.4096 72.8741 64.3667 72.9512L64.8037 73.1942L64.3679 72.949ZM58.9957 72.8023L58.8574 73.9125C58.844 73.9033 58.8306 73.894 58.8172 73.8848C58.3974 73.5934 58.5101 72.9649 58.9332 72.8228C58.954 72.8159 58.9749 72.8091 58.9957 72.8023ZM61.3267 75.3262C60.909 75.1354 60.4994 74.9238 60.0979 74.6941C60.7695 74.5331 61.4547 74.4638 62.1347 74.4865C62.4773 74.637 62.825 74.7752 63.1779 74.9007C63.2101 74.9127 63.2433 74.9251 63.2775 74.938C63.5981 75.0583 64.0049 75.2111 64.4136 75.2596C64.573 75.287 64.7595 75.2793 64.8889 75.2671C64.9077 75.2654 64.9268 75.2633 64.9449 75.2611L64.9434 75.2483C64.954 75.2485 64.9631 75.2483 64.9704 75.2481C64.9908 75.2473 65.0079 75.2455 65.0199 75.2439C65.0323 75.2422 65.0429 75.2403 65.0511 75.2387C65.0672 75.2355 65.0805 75.2321 65.0895 75.2297C65.099 75.2271 65.1072 75.2246 65.1139 75.2224C65.1145 75.2222 65.1151 75.2221 65.1157 75.2219C65.1902 75.2581 65.2642 75.2957 65.3377 75.3346L65.3383 75.3349C65.6819 75.5162 66.0815 75.568 66.4506 75.4778C65.9981 76.2235 65.0652 76.4872 64.1747 76.346C63.233 76.1967 62.2628 75.7536 61.3516 75.3375L61.3267 75.3262ZM59.9393 73.3168C60.0977 73.4166 60.2572 73.5136 60.418 73.6079C60.2412 73.6383 60.065 73.6743 59.8897 73.7158L59.9393 73.3168ZM64.9397 75.2171L64.9298 75.1347C64.9722 75.1539 65.0145 75.1735 65.0566 75.1935C65.0607 75.1954 65.0648 75.1974 65.0689 75.1993C65.0648 75.2017 65.0614 75.2036 65.059 75.2049C65.0589 75.2049 65.0589 75.2049 65.0589 75.2049C65.0464 75.2118 65.0355 75.217 65.0275 75.2206C65.0225 75.2209 65.0171 75.2211 65.0112 75.2212C64.998 75.2215 64.9723 75.2214 64.9397 75.2171Z" fill="#F38898" stroke="#F38898"/>
<mask id="path-26-inside-2_343_80" fill="white">
<path d="M73.2905 75.6893C75.7087 75.6182 78.1405 76.5989 79.8986 78.3471C78.2819 78.5887 76.6383 78.5887 75.0217 78.3471C74.5367 78.276 74.0382 78.1765 73.6206 77.9065C73.2029 77.6364 72.8594 77.1745 72.8594 76.6557C72.8594 76.137 73.2838 75.6182 73.7688 75.6608"/>
</mask>
<path d="M73.2905 75.6893C75.7087 75.6182 78.1405 76.5989 79.8986 78.3471C78.2819 78.5887 76.6383 78.5887 75.0217 78.3471C74.5367 78.276 74.0382 78.1765 73.6206 77.9065C73.2029 77.6364 72.8594 77.1745 72.8594 76.6557C72.8594 76.137 73.2838 75.6182 73.7688 75.6608" fill="#F38898"/>
<path d="M79.8986 78.3471L80.0464 79.3361L82.0155 79.0418L80.6037 77.638L79.8986 78.3471ZM75.0217 78.3471L75.1695 77.3581L75.1666 77.3577L75.0217 78.3471ZM73.3199 76.6888C75.4551 76.6261 77.6237 77.4953 79.1935 79.0562L80.6037 77.638C78.6573 75.7025 75.9624 74.6103 73.2611 74.6897L73.3199 76.6888ZM79.7508 77.3581C78.2321 77.585 76.6881 77.585 75.1695 77.3581L74.8738 79.3361C76.5885 79.5924 78.3317 79.5924 80.0464 79.3361L79.7508 77.3581ZM75.1666 77.3577C74.6907 77.2879 74.3841 77.2094 74.1635 77.0667L73.0776 78.7462C73.6923 79.1437 74.3826 79.2641 74.8767 79.3365L75.1666 77.3577ZM74.1635 77.0667C74.0631 77.0018 73.9783 76.9169 73.9237 76.8323C73.8705 76.7499 73.8594 76.6901 73.8594 76.6557H71.8594C71.8594 77.6191 72.4763 78.3575 73.0776 78.7462L74.1635 77.0667ZM73.8594 76.6557C73.8594 76.6611 73.8586 76.6548 73.8644 76.6402C73.8702 76.6253 73.878 76.614 73.8825 76.6089C73.8874 76.6033 73.8787 76.6157 73.8473 76.6304C73.8128 76.6467 73.7541 76.6634 73.6812 76.657L73.8563 74.6647C73.2147 74.6083 72.6973 74.9287 72.3819 75.2867C72.0659 75.6453 71.8594 76.1359 71.8594 76.6557H73.8594Z" fill="#F38898" mask="url(#path-26-inside-2_343_80)"/>
<mask id="path-28-inside-3_343_80" fill="white">
<path d="M73.2914 76.7546C75.4604 76.7049 77.589 77.5292 79.1854 79.0997L79.63 77.316C78.2424 77.515 76.8143 77.5079 75.4267 77.3302C75.137 77.2947 74.8474 77.245 74.5645 77.1668C74.4163 77.1241 74.3489 77.1028 74.2344 77.046C74.167 77.0104 74.0997 76.9678 74.0391 76.9252C74.0997 76.982 74.0862 76.9607 73.9986 76.8754C73.9178 76.7759 73.9043 76.7688 73.9515 76.8328C73.9111 76.7688 73.8774 76.7049 73.8504 76.6409C73.8909 76.7262 73.8909 76.7049 73.8504 76.5841C73.8707 76.6338 73.8707 76.6764 73.8504 76.7262C73.8841 76.6054 73.8841 76.5912 73.8504 76.6907C73.9111 76.5841 73.9178 76.5698 73.8707 76.6622C73.837 76.6978 73.7966 76.7191 73.7494 76.7262C73.6349 76.7262 73.6416 76.7262 73.7629 76.7262C74.3085 76.7262 74.7733 76.2287 74.7733 75.6602C74.7733 75.0917 74.3085 74.6014 73.7629 74.5943C72.6043 74.58 71.7286 75.7242 71.8633 76.9039C71.998 78.0835 72.8939 78.8581 73.9043 79.185C74.8474 79.4977 75.9252 79.5475 76.9086 79.5759C77.9999 79.6114 79.0777 79.5261 80.1622 79.3627C80.9233 79.249 81.1187 78.0764 80.6067 77.579C78.6263 75.6389 75.9858 74.5516 73.2779 74.6085C72.7323 74.6227 72.2675 75.0917 72.2675 75.6744C72.2675 76.2572 72.7323 76.7546 73.2779 76.7404L73.2914 76.7546Z"/>
</mask>
<path d="M73.2914 76.7546C75.4604 76.7049 77.589 77.5292 79.1854 79.0997L79.63 77.316C78.2424 77.515 76.8143 77.5079 75.4267 77.3302C75.137 77.2947 74.8474 77.245 74.5645 77.1668C74.4163 77.1241 74.3489 77.1028 74.2344 77.046C74.167 77.0104 74.0997 76.9678 74.0391 76.9252C74.0997 76.982 74.0862 76.9607 73.9986 76.8754C73.9178 76.7759 73.9043 76.7688 73.9515 76.8328C73.9111 76.7688 73.8774 76.7049 73.8504 76.6409C73.8909 76.7262 73.8909 76.7049 73.8504 76.5841C73.8707 76.6338 73.8707 76.6764 73.8504 76.7262C73.8841 76.6054 73.8841 76.5912 73.8504 76.6907C73.9111 76.5841 73.9178 76.5698 73.8707 76.6622C73.837 76.6978 73.7966 76.7191 73.7494 76.7262C73.6349 76.7262 73.6416 76.7262 73.7629 76.7262C74.3085 76.7262 74.7733 76.2287 74.7733 75.6602C74.7733 75.0917 74.3085 74.6014 73.7629 74.5943C72.6043 74.58 71.7286 75.7242 71.8633 76.9039C71.998 78.0835 72.8939 78.8581 73.9043 79.185C74.8474 79.4977 75.9252 79.5475 76.9086 79.5759C77.9999 79.6114 79.0777 79.5261 80.1622 79.3627C80.9233 79.249 81.1187 78.0764 80.6067 77.579C78.6263 75.6389 75.9858 74.5516 73.2779 74.6085C72.7323 74.6227 72.2675 75.0917 72.2675 75.6744C72.2675 76.2572 72.7323 76.7546 73.2779 76.7404L73.2914 76.7546Z" fill="#F38898"/>
<path d="M73.2914 76.7546L72.5656 77.4426L72.8708 77.7645L73.3143 77.7543L73.2914 76.7546ZM79.1854 79.0997L78.4841 79.8126L79.7323 81.0405L80.1557 79.3416L79.1854 79.0997ZM79.63 77.316L80.6003 77.5579L80.9599 76.1151L79.4881 76.3261L79.63 77.316ZM75.4267 77.3302L75.5537 76.3383L75.5485 76.3377L75.4267 77.3302ZM74.5645 77.1668L74.288 78.1279L74.2982 78.1307L74.5645 77.1668ZM74.2344 77.046L73.7678 77.9305L73.7787 77.9362L73.7897 77.9417L74.2344 77.046ZM74.0391 76.9252L74.6143 76.1072L73.355 77.6546L74.0391 76.9252ZM73.9986 76.8754L73.2225 77.506L73.2592 77.5512L73.301 77.5918L73.9986 76.8754ZM73.9515 76.8328L73.1466 77.4262L74.7968 76.2986L73.9515 76.8328ZM73.8504 76.6409L74.7541 76.2126L72.9289 77.0291L73.8504 76.6409ZM73.8504 76.5841L74.7769 76.2077L72.9021 76.9013L73.8504 76.5841ZM73.8504 76.7262L72.8872 76.4576L74.7769 77.1026L73.8504 76.7262ZM73.8504 76.6907L72.9033 76.37L74.7197 77.185L73.8504 76.6907ZM73.8707 76.6622L74.5964 77.3502L74.6957 77.2454L74.7613 77.1168L73.8707 76.6622ZM73.7494 76.7262V77.7262H73.8243L73.8984 77.715L73.7494 76.7262ZM73.7629 74.5943L73.7759 73.5943L73.7751 73.5943L73.7629 74.5943ZM73.9043 79.185L74.2191 78.2358L74.2122 78.2336L73.9043 79.185ZM76.9086 79.5759L76.9412 78.5764L76.9375 78.5763L76.9086 79.5759ZM80.1622 79.3627L80.0144 78.3737L80.0131 78.3739L80.1622 79.3627ZM80.6067 77.579L79.9069 78.2933L79.9099 78.2961L80.6067 77.579ZM73.2779 74.6085L73.2569 73.6087L73.2518 73.6088L73.2779 74.6085ZM73.2779 76.7404L74.0036 76.0525L73.6972 75.7291L73.2518 75.7407L73.2779 76.7404ZM73.3143 77.7543C75.2143 77.7108 77.0813 78.4326 78.4841 79.8126L79.8867 78.3869C78.0966 76.6259 75.7064 75.699 73.2684 75.7549L73.3143 77.7543ZM80.1557 79.3416L80.6003 77.5579L78.6597 77.0742L78.2151 78.8579L80.1557 79.3416ZM79.4881 76.3261C78.1978 76.5112 76.8606 76.5057 75.5537 76.3383L75.2997 78.3221C76.7681 78.5101 78.287 78.5188 79.772 78.3059L79.4881 76.3261ZM75.5485 76.3377C75.2892 76.3059 75.0512 76.2638 74.8308 76.2029L74.2982 78.1307C74.6436 78.2261 74.9849 78.2835 75.3049 78.3228L75.5485 76.3377ZM74.841 76.2058C74.7652 76.184 74.7396 76.1759 74.7235 76.1701C74.7165 76.1676 74.7072 76.1643 74.6791 76.1503L73.7897 77.9417C73.9858 78.039 74.1219 78.08 74.288 78.1278L74.841 76.2058ZM74.701 76.1615C74.6794 76.1501 74.6487 76.1314 74.6143 76.1072L73.4638 77.7431C73.5507 77.8042 73.6547 77.8708 73.7678 77.9305L74.701 76.1615ZM73.355 77.6546C73.371 77.6696 73.4083 77.7045 73.4501 77.7376C73.461 77.7462 73.4888 77.768 73.526 77.7924C73.5434 77.8038 73.5812 77.8279 73.6321 77.8531C73.6478 77.8609 73.8086 77.9461 74.0321 77.9559C74.1566 77.9614 74.4203 77.9486 74.6757 77.7572C74.9578 77.5459 75.052 77.2535 75.0715 77.054C75.1008 76.7543 74.9816 76.5317 74.9787 76.5257C74.9308 76.4253 74.8751 76.3545 74.8713 76.3494C74.8094 76.2678 74.7224 76.1845 74.6963 76.159L73.301 77.5918C73.3624 77.6517 73.326 77.6216 73.2776 77.5578C73.2754 77.5549 73.2208 77.4858 73.1734 77.3865C73.159 77.3562 73.1353 77.3029 73.1153 77.2332C73.0982 77.174 73.0637 77.0364 73.081 76.8595C73.1005 76.6601 73.1947 76.3677 73.4766 76.1565C73.732 75.9652 73.9955 75.9524 74.1199 75.9579C74.3431 75.9677 74.5034 76.0528 74.5186 76.0603C74.5688 76.0851 74.6058 76.1088 74.6224 76.1197C74.6578 76.1428 74.6832 76.1629 74.6911 76.1692C74.7212 76.193 74.7374 76.2091 74.7231 76.1957L73.355 77.6546ZM74.7748 76.2448C74.7505 76.215 74.7268 76.1864 74.7047 76.1611C74.6939 76.1487 74.6798 76.1328 74.6639 76.1159C74.6571 76.1087 74.6168 76.0652 74.5615 76.0198C74.5449 76.0062 74.5152 75.9827 74.4758 75.9567C74.4479 75.9383 74.3588 75.8804 74.2306 75.8393C74.1586 75.8162 73.6999 75.6747 73.2819 76.0253C72.8783 76.3638 72.9228 76.8234 72.929 76.8877C72.9413 77.0154 72.9758 77.1104 72.9873 77.1414C73.0033 77.1842 73.019 77.2175 73.0283 77.2364C73.0469 77.2742 73.0642 77.3033 73.0724 77.3168C73.1019 77.3655 73.1335 77.4085 73.1466 77.4262L74.7564 76.2394C74.7459 76.2251 74.7615 76.245 74.7828 76.2802C74.7889 76.2902 74.8046 76.3165 74.8222 76.3522C74.831 76.37 74.8463 76.4023 74.8619 76.4444C74.8732 76.4746 74.9075 76.569 74.9198 76.6962C74.9259 76.76 74.9705 77.2193 74.5671 77.5576C74.1493 77.9081 73.6909 77.7665 73.6193 77.7436C73.4916 77.7026 73.4031 77.645 73.3759 77.6271C73.3371 77.6016 73.3083 77.5786 73.2927 77.5658C73.2195 77.5057 73.1713 77.4457 73.1964 77.4745C73.1981 77.4765 73.2063 77.4861 73.2225 77.506L74.7748 76.2448ZM74.7968 76.2986C74.7832 76.277 74.7758 76.2617 74.772 76.2527L72.9289 77.0291C72.979 77.1481 73.039 77.2607 73.1061 77.367L74.7968 76.2986ZM72.9468 77.0692C72.9571 77.0908 72.986 77.1521 73.0245 77.2139C73.0357 77.2318 73.0578 77.2664 73.0893 77.3065C73.1026 77.3236 73.1919 77.442 73.3481 77.5397C73.4268 77.5891 73.6238 77.6982 73.9008 77.6923C74.2393 77.6852 74.5125 77.5127 74.6759 77.298C74.809 77.1232 74.8489 76.9514 74.8625 76.8807C74.8788 76.7964 74.8808 76.7275 74.8808 76.6898C74.8808 76.5661 74.8563 76.4663 74.8548 76.4594C74.8475 76.4271 74.8398 76.3991 74.8346 76.3808C74.8237 76.3427 74.8109 76.303 74.7988 76.2668L72.9021 76.9013C72.9102 76.9255 72.9126 76.9338 72.9118 76.931C72.9116 76.9303 72.9077 76.9168 72.903 76.8958C72.9006 76.8852 72.8963 76.8651 72.8922 76.839C72.8891 76.8192 72.8808 76.763 72.8808 76.6898C72.8808 76.6533 72.8826 76.5854 72.8987 76.5019C72.9122 76.432 72.9519 76.2609 73.0847 76.0864C73.2478 75.8722 73.5205 75.6999 73.8586 75.6928C74.1351 75.6869 74.3315 75.7958 74.4097 75.8448C74.5645 75.9417 74.6523 76.0586 74.6637 76.0732C74.6933 76.1109 74.7132 76.1422 74.7218 76.156C74.7503 76.2016 74.7641 76.2336 74.7541 76.2126L72.9468 77.0692ZM72.924 76.9604C72.8954 76.8901 72.8656 76.785 72.8656 76.6551C72.8656 76.5253 72.8954 76.4201 72.924 76.3498L74.7769 77.1026C74.8952 76.8115 74.8952 76.4988 74.7769 76.2077L72.924 76.9604ZM74.8137 76.9947C74.8231 76.9612 74.832 76.9282 74.8393 76.8992C74.8427 76.8856 74.8477 76.8651 74.8525 76.8423C74.8549 76.8313 74.8588 76.8119 74.8626 76.7882C74.8641 76.779 74.8757 76.7114 74.8757 76.6258C74.8757 76.6076 74.8793 76.4513 74.8105 76.2701C74.7753 76.1774 74.6761 75.9559 74.4284 75.7915C74.1306 75.594 73.8037 75.5971 73.5681 75.6731C73.373 75.7361 73.2486 75.8427 73.1999 75.8873C73.1412 75.941 73.1011 75.9907 73.0798 76.0187C73.037 76.0747 73.0098 76.123 72.9992 76.142C72.9617 76.2098 72.9385 76.272 72.938 76.2732C72.9248 76.3069 72.9123 76.3432 72.9033 76.37L74.7976 77.0113C74.8054 76.9883 74.8055 76.9891 74.8008 77.0013C74.7991 77.0055 74.7953 77.0153 74.7896 77.0284C74.7861 77.0365 74.7718 77.0695 74.749 77.1106C74.739 77.1287 74.7122 77.1762 74.6699 77.2317C74.6488 77.2594 74.6089 77.3089 74.5503 77.3626C74.5018 77.407 74.3775 77.5135 74.1825 77.5764C73.9471 77.6524 73.6202 77.6555 73.3226 77.458C73.0749 77.2937 72.9758 77.0724 72.9407 76.9798C72.8721 76.799 72.8757 76.6432 72.8757 76.6258C72.8757 76.5418 72.887 76.4766 72.888 76.4707C72.8913 76.4502 72.8944 76.435 72.8957 76.429C72.8984 76.4162 72.9003 76.409 72.8995 76.4121C72.8984 76.4167 72.8947 76.4307 72.8872 76.4576L74.8137 76.9947ZM74.7197 77.185C74.7682 77.0997 74.7594 77.1153 74.7463 77.136C74.7456 77.1371 74.7258 77.1691 74.6974 77.2065C74.6888 77.2178 74.673 77.2381 74.6517 77.2622C74.6373 77.2786 74.5881 77.3342 74.5132 77.3921C74.4772 77.42 74.3972 77.4785 74.2817 77.5259C74.1781 77.5685 73.9187 77.6545 73.602 77.555C73.2393 77.4411 73.0514 77.1674 72.9736 76.9735C72.9056 76.8041 72.9016 76.6589 72.9016 76.6008C72.9016 76.4766 72.9257 76.3816 72.9309 76.3606C72.9401 76.3238 72.9494 76.2951 72.9544 76.2803C72.9647 76.25 72.9742 76.2269 72.9778 76.2183C72.986 76.1985 72.993 76.1834 72.9948 76.1796C73.0018 76.1646 73.0076 76.1534 73.0035 76.1615C72.9996 76.1692 72.9932 76.1818 72.98 76.2076L74.7613 77.1168C74.7717 77.0965 74.7821 77.0762 74.7884 77.0639C74.7893 77.062 74.7984 77.0441 74.8071 77.0254C74.8093 77.0207 74.8167 77.005 74.8251 76.9847C74.8288 76.9757 74.8384 76.9524 74.8487 76.922C74.8537 76.9072 74.8631 76.8784 74.8723 76.8415C74.8775 76.8205 74.9016 76.7254 74.9016 76.6012C74.9016 76.5431 74.8976 76.3979 74.8296 76.2285C74.7518 76.0345 74.5639 75.7608 74.2012 75.6469C73.8845 75.5475 73.625 75.6335 73.5215 75.676C73.406 75.7235 73.326 75.782 73.2899 75.8098C73.215 75.8678 73.1658 75.9234 73.1513 75.9398C73.13 75.964 73.1141 75.9844 73.1055 75.9958C73.0768 76.0334 73.0567 76.0659 73.0556 76.0677C73.0358 76.099 72.9933 76.175 72.9812 76.1963L74.7197 77.185ZM73.1449 75.9743C73.2601 75.8527 73.4208 75.7644 73.6004 75.7374L73.8984 77.715C74.1723 77.6737 74.4139 77.5428 74.5964 77.3502L73.1449 75.9743ZM73.7494 75.7262C73.7492 75.7262 73.749 75.7262 73.7487 75.7262C73.7485 75.7262 73.7483 75.7262 73.7481 75.7262C73.7478 75.7262 73.7476 75.7262 73.7474 75.7262C73.7472 75.7262 73.747 75.7262 73.7467 75.7262C73.7465 75.7262 73.7463 75.7262 73.7461 75.7262C73.7459 75.7262 73.7456 75.7262 73.7454 75.7262C73.7452 75.7262 73.745 75.7262 73.7448 75.7262C73.7446 75.7262 73.7443 75.7262 73.7441 75.7262C73.7439 75.7262 73.7437 75.7262 73.7435 75.7262C73.7433 75.7262 73.7431 75.7262 73.7428 75.7262C73.7426 75.7262 73.7424 75.7262 73.7422 75.7262C73.742 75.7262 73.7418 75.7262 73.7416 75.7262C73.7413 75.7262 73.7411 75.7262 73.7409 75.7262C73.7407 75.7262 73.7405 75.7262 73.7403 75.7262C73.7401 75.7262 73.7399 75.7262 73.7397 75.7262C73.7394 75.7262 73.7392 75.7262 73.739 75.7262C73.7388 75.7262 73.7386 75.7262 73.7384 75.7262C73.7382 75.7262 73.738 75.7262 73.7378 75.7262C73.7376 75.7262 73.7374 75.7262 73.7372 75.7262C73.737 75.7262 73.7367 75.7262 73.7365 75.7262C73.7363 75.7262 73.7361 75.7262 73.7359 75.7262C73.7357 75.7262 73.7355 75.7262 73.7353 75.7262C73.7351 75.7262 73.7349 75.7262 73.7347 75.7262C73.7345 75.7262 73.7343 75.7262 73.7341 75.7262C73.7339 75.7262 73.7337 75.7262 73.7335 75.7262C73.7333 75.7262 73.7331 75.7262 73.7329 75.7262C73.7327 75.7262 73.7325 75.7262 73.7323 75.7262C73.7321 75.7262 73.7319 75.7262 73.7317 75.7262C73.7315 75.7262 73.7313 75.7262 73.7311 75.7262C73.7309 75.7262 73.7307 75.7262 73.7305 75.7262C73.7303 75.7262 73.7301 75.7262 73.7299 75.7262C73.7297 75.7262 73.7295 75.7262 73.7294 75.7262C73.7292 75.7262 73.729 75.7262 73.7288 75.7262C73.7286 75.7262 73.7284 75.7262 73.7282 75.7262C73.728 75.7262 73.7278 75.7262 73.7276 75.7262C73.7274 75.7262 73.7272 75.7262 73.727 75.7262C73.7269 75.7262 73.7267 75.7262 73.7265 75.7262C73.7263 75.7262 73.7261 75.7262 73.7259 75.7262C73.7257 75.7262 73.7255 75.7262 73.7253 75.7262C73.7252 75.7262 73.725 75.7262 73.7248 75.7262C73.7246 75.7262 73.7244 75.7262 73.7242 75.7262C73.724 75.7262 73.7239 75.7262 73.7237 75.7262C73.7235 75.7262 73.7233 75.7262 73.7231 75.7262C73.7229 75.7262 73.7227 75.7262 73.7226 75.7262C73.7224 75.7262 73.7222 75.7262 73.722 75.7262C73.7218 75.7262 73.7217 75.7262 73.7215 75.7262C73.7213 75.7262 73.7211 75.7262 73.7209 75.7262C73.7208 75.7262 73.7206 75.7262 73.7204 75.7262C73.7202 75.7262 73.72 75.7262 73.7199 75.7262C73.7197 75.7262 73.7195 75.7262 73.7193 75.7262C73.7191 75.7262 73.719 75.7262 73.7188 75.7262C73.7186 75.7262 73.7184 75.7262 73.7183 75.7262C73.7181 75.7262 73.7179 75.7262 73.7177 75.7262C73.7176 75.7262 73.7174 75.7262 73.7172 75.7262C73.717 75.7262 73.7169 75.7262 73.7167 75.7262C73.7165 75.7262 73.7163 75.7262 73.7162 75.7262C73.716 75.7262 73.7158 75.7262 73.7157 75.7262C73.7155 75.7262 73.7153 75.7262 73.7151 75.7262C73.715 75.7262 73.7148 75.7262 73.7146 75.7262C73.7145 75.7262 73.7143 75.7262 73.7141 75.7262C73.714 75.7262 73.7138 75.7262 73.7136 75.7262C73.7135 75.7262 73.7133 75.7262 73.7131 75.7262C73.713 75.7262 73.7128 75.7262 73.7126 75.7262C73.7125 75.7262 73.7123 75.7262 73.7121 75.7262C73.712 75.7262 73.7118 75.7262 73.7116 75.7262C73.7115 75.7262 73.7113 75.7262 73.7112 75.7262C73.711 75.7262 73.7108 75.7262 73.7107 75.7262C73.7105 75.7262 73.7103 75.7262 73.7102 75.7262C73.71 75.7262 73.7099 75.7262 73.7097 75.7262C73.7095 75.7262 73.7094 75.7262 73.7092 75.7262C73.7091 75.7262 73.7089 75.7262 73.7087 75.7262C73.7086 75.7262 73.7084 75.7262 73.7083 75.7262C73.7081 75.7262 73.708 75.7262 73.7078 75.7262C73.7076 75.7262 73.7075 75.7262 73.7073 75.7262C73.7072 75.7262 73.707 75.7262 73.7069 75.7262C73.7067 75.7262 73.7066 75.7262 73.7064 75.7262C73.7063 75.7262 73.7061 75.7262 73.7059 75.7262C73.7058 75.7262 73.7056 75.7262 73.7055 75.7262C73.7053 75.7262 73.7052 75.7262 73.705 75.7262C73.7049 75.7262 73.7047 75.7262 73.7046 75.7262C73.7044 75.7262 73.7043 75.7262 73.7041 75.7262C73.704 75.7262 73.7038 75.7262 73.7037 75.7262C73.7035 75.7262 73.7034 75.7262 73.7032 75.7262C73.7031 75.7262 73.703 75.7262 73.7028 75.7262C73.7027 75.7262 73.7025 75.7262 73.7024 75.7262C73.7022 75.7262 73.7021 75.7262 73.7019 75.7262C73.7018 75.7262 73.7016 75.7262 73.7015 75.7262C73.7014 75.7262 73.7012 75.7262 73.7011 75.7262C73.7009 75.7262 73.7008 75.7262 73.7006 75.7262C73.7005 75.7262 73.7004 75.7262 73.7002 75.7262C73.7001 75.7262 73.6999 75.7262 73.6998 75.7262C73.6997 75.7262 73.6995 75.7262 73.6994 75.7262C73.6992 75.7262 73.6991 75.7262 73.699 75.7262C73.6988 75.7262 73.6987 75.7262 73.6986 75.7262C73.6984 75.7262 73.6983 75.7262 73.6981 75.7262C73.698 75.7262 73.6979 75.7262 73.6977 75.7262C73.6976 75.7262 73.6975 75.7262 73.6973 75.7262C73.6972 75.7262 73.6971 75.7262 73.6969 75.7262C73.6968 75.7262 73.6967 75.7262 73.6965 75.7262C73.6964 75.7262 73.6963 75.7262 73.6961 75.7262C73.696 75.7262 73.6959 75.7262 73.6957 75.7262C73.6956 75.7262 73.6955 75.7262 73.6954 75.7262C73.6952 75.7262 73.6951 75.7262 73.695 75.7262C73.6948 75.7262 73.6947 75.7262 73.6946 75.7262C73.6944 75.7262 73.6943 75.7262 73.6942 75.7262C73.6941 75.7262 73.6939 75.7262 73.6938 75.7262C73.6937 75.7262 73.6936 75.7262 73.6934 75.7262C73.6933 75.7262 73.6932 75.7262 73.6931 75.7262C73.6929 75.7262 73.6928 75.7262 73.6927 75.7262C73.6926 75.7262 73.6924 75.7262 73.6923 75.7262C73.6922 75.7262 73.6921 75.7262 73.692 75.7262C73.6918 75.7262 73.6917 75.7262 73.6916 75.7262C73.6915 75.7262 73.6914 75.7262 73.6912 75.7262C73.6911 75.7262 73.691 75.7262 73.6909 75.7262C73.6908 75.7262 73.6906 75.7262 73.6905 75.7262C73.6904 75.7262 73.6903 75.7262 73.6902 75.7262C73.6901 75.7262 73.6899 75.7262 73.6898 75.7262C73.6897 75.7262 73.6896 75.7262 73.6895 75.7262C73.6894 75.7262 73.6892 75.7262 73.6891 75.7262C73.689 75.7262 73.6889 75.7262 73.6888 75.7262C73.6887 75.7262 73.6886 75.7262 73.6884 75.7262C73.6883 75.7262 73.6882 75.7262 73.6881 75.7262C73.688 75.7262 73.6879 75.7262 73.6878 75.7262C73.6877 75.7262 73.6876 75.7262 73.6874 75.7262C73.6873 75.7262 73.6872 75.7262 73.6871 75.7262C73.687 75.7262 73.6869 75.7262 73.6868 75.7262C73.6867 75.7262 73.6866 75.7262 73.6865 75.7262C73.6864 75.7262 73.6863 75.7262 73.6862 75.7262C73.686 75.7262 73.6859 75.7262 73.6858 75.7262C73.6857 75.7262 73.6856 75.7262 73.6855 75.7262C73.6854 75.7262 73.6853 75.7262 73.6852 75.7262C73.6851 75.7262 73.685 75.7262 73.6849 75.7262C73.6848 75.7262 73.6847 75.7262 73.6846 75.7262C73.6845 75.7262 73.6844 75.7262 73.6843 75.7262C73.6842 75.7262 73.6841 75.7262 73.684 75.7262C73.6839 75.7262 73.6838 75.7262 73.6837 75.7262C73.6836 75.7262 73.6835 75.7262 73.6834 75.7262C73.6833 75.7262 73.6832 75.7262 73.6831 75.7262C73.683 75.7262 73.6829 75.7262 73.6828 75.7262C73.6827 75.7262 73.6826 75.7262 73.6825 75.7262C73.6824 75.7262 73.6823 75.7262 73.6822 75.7262C73.6822 75.7262 73.6821 75.7262 73.682 75.7262C73.6819 75.7262 73.6818 75.7262 73.6817 75.7262C73.6816 75.7262 73.6815 75.7262 73.6814 75.7262C73.6813 75.7262 73.6812 75.7262 73.6811 75.7262C73.681 75.7262 73.681 75.7262 73.6809 75.7262C73.6808 75.7262 73.6807 75.7262 73.6806 75.7262C73.6805 75.7262 73.6804 75.7262 73.6803 75.7262C73.6802 75.7262 73.6802 75.7262 73.6801 75.7262C73.68 75.7262 73.6799 75.7262 73.6798 75.7262C73.6797 75.7262 73.6796 75.7262 73.6796 75.7262C73.6795 75.7262 73.6794 75.7262 73.6793 75.7262C73.6792 75.7262 73.6791 75.7262 73.6791 75.7262C73.679 75.7262 73.6789 75.7262 73.6788 75.7262C73.6787 75.7262 73.6786 75.7262 73.6786 75.7262C73.6785 75.7262 73.6784 75.7262 73.6783 75.7262C73.6782 75.7262 73.6782 75.7262 73.6781 75.7262C73.678 75.7262 73.6779 75.7262 73.6778 75.7262C73.6778 75.7262 73.6777 75.7262 73.6776 75.7262C73.6775 75.7262 73.6774 75.7262 73.6774 75.7262C73.6773 75.7262 73.6772 75.7262 73.6771 75.7262C73.6771 75.7262 73.677 75.7262 73.6769 75.7262C73.6768 75.7262 73.6768 75.7262 73.6767 75.7262C73.6766 75.7262 73.6765 75.7262 73.6765 75.7262C73.6764 75.7262 73.6763 75.7262 73.6762 75.7262C73.6762 75.7262 73.6761 75.7262 73.676 75.7262C73.676 75.7262 73.6759 75.7262 73.6758 75.7262C73.6757 75.7262 73.6757 75.7262 73.6756 75.7262C73.6755 75.7262 73.6755 75.7262 73.6754 75.7262C73.6753 75.7262 73.6753 75.7262 73.6752 75.7262C73.6751 75.7262 73.6751 75.7262 73.675 75.7262C73.6749 75.7262 73.6749 75.7262 73.6748 75.7262C73.6747 75.7262 73.6747 75.7262 73.6746 75.7262C73.6745 75.7262 73.6745 75.7262 73.6744 75.7262C73.6743 75.7262 73.6743 75.7262 73.6742 75.7262C73.6741 75.7262 73.6741 75.7262 73.674 75.7262C73.674 75.7262 73.6739 75.7262 73.6738 75.7262C73.6738 75.7262 73.6737 75.7262 73.6737 75.7262C73.6736 75.7262 73.6735 75.7262 73.6735 75.7262C73.6734 75.7262 73.6734 75.7262 73.6733 75.7262C73.6732 75.7262 73.6732 75.7262 73.6731 75.7262C73.6731 75.7262 73.673 75.7262 73.6729 75.7262C73.6729 75.7262 73.6728 75.7262 73.6728 75.7262C73.6727 75.7262 73.6727 75.7262 73.6726 75.7262C73.6726 75.7262 73.6725 75.7262 73.6724 75.7262C73.6724 75.7262 73.6723 75.7262 73.6723 75.7262C73.6722 75.7262 73.6722 75.7262 73.6721 75.7262C73.6721 75.7262 73.672 75.7262 73.672 75.7262C73.6719 75.7262 73.6719 75.7262 73.6718 75.7262C73.6718 75.7262 73.6717 75.7262 73.6717 75.7262C73.6716 75.7262 73.6716 75.7262 73.6715 75.7262C73.6715 75.7262 73.6714 75.7262 73.6714 75.7262C73.6713 75.7262 73.6713 75.7262 73.6712 75.7262C73.6712 75.7262 73.6711 75.7262 73.6711 75.7262C73.671 75.7262 73.671 75.7262 73.671 75.7262C73.6709 75.7262 73.6709 75.7262 73.6708 75.7262C73.6708 75.7262 73.6707 75.7262 73.6707 75.7262C73.6706 75.7262 73.6706 75.7262 73.6706 75.7262C73.6705 75.7262 73.6705 75.7262 73.6704 75.7262C73.6704 75.7262 73.6704 75.7262 73.6703 75.7262C73.6703 75.7262 73.6702 75.7262 73.6702 75.7262C73.6702 75.7262 73.6701 75.7262 73.6701 75.7262C73.67 75.7262 73.67 75.7262 73.67 75.7262C73.6699 75.7262 73.6699 75.7262 73.6698 75.7262C73.6698 75.7262 73.6698 75.7262 73.6697 75.7262C73.6697 75.7262 73.6697 75.7262 73.6696 75.7262C73.6696 75.7262 73.6696 75.7262 73.6695 75.7262C73.6695 75.7262 73.6695 75.7262 73.6694 75.7262C73.6694 75.7262 73.6694 75.7262 73.6693 75.7262C73.6693 75.7262 73.6693 75.7262 73.6692 75.7262C73.6692 75.7262 73.6692 75.7262 73.6691 75.7262C73.6691 75.7262 73.6691 75.7262 73.669 75.7262C73.669 75.7262 73.669 75.7262 73.669 75.7262C73.6689 75.7262 73.6689 75.7262 73.6689 75.7262C73.6688 75.7262 73.6688 75.7262 73.6688 75.7262C73.6688 75.7262 73.6687 75.7262 73.6687 75.7262C73.6687 75.7262 73.6687 75.7262 73.6686 75.7262C73.6686 75.7262 73.6686 75.7262 73.6686 75.7262C73.6685 75.7262 73.6685 75.7262 73.6685 75.7262C73.6685 75.7262 73.6684 75.7262 73.6684 75.7262C73.6684 75.7262 73.6684 75.7262 73.6684 75.7262C73.6683 75.7262 73.6683 75.7262 73.6683 75.7262C73.6683 75.7262 73.6682 75.7262 73.6682 75.7262C73.6682 75.7262 73.6682 75.7262 73.6682 75.7262C73.6681 75.7262 73.6681 75.7262 73.6681 75.7262C73.6681 75.7262 73.6681 75.7262 73.6681 75.7262C73.668 75.7262 73.668 75.7262 73.668 75.7262C73.668 75.7262 73.668 75.7262 73.668 75.7262C73.6679 75.7262 73.6679 75.7262 73.6679 75.7262C73.6679 75.7262 73.6679 75.7262 73.6679 75.7262C73.6679 75.7262 73.6678 75.7262 73.6678 75.7262C73.6678 75.7262 73.6678 75.7262 73.6678 75.7262C73.6678 75.7262 73.6678 75.7262 73.6678 75.7262C73.6678 75.7262 73.6677 75.7262 73.6677 75.7262C73.6677 75.7262 73.6677 75.7262 73.6677 75.7262C73.6677 75.7262 73.6677 75.7262 73.6677 75.7262C73.6677 75.7262 73.6677 75.7262 73.6677 75.7262C73.6677 75.7262 73.6676 75.7262 73.6676 75.7262C73.6676 75.7262 73.6676 75.7262 73.6676 75.7262C73.6676 75.7262 73.6676 75.7262 73.6676 75.7262C73.6676 75.7262 73.6676 75.7262 73.6676 75.7262C73.6676 75.7262 73.6676 75.7262 73.6676 75.7262C73.6676 75.7262 73.6676 75.7262 73.6676 75.7262C73.6676 75.7262 73.6676 75.7262 73.6676 75.7262C73.6676 75.7262 73.6676 75.7262 73.6676 75.7262C73.6676 76.7262 73.6676 77.7262 73.6676 77.7262C73.6676 77.7262 73.6676 77.7262 73.6676 77.7262C73.6676 77.7262 73.6676 77.7262 73.6676 77.7262C73.6676 77.7262 73.6676 77.7262 73.6676 77.7262C73.6676 77.7262 73.6676 77.7262 73.6676 77.7262C73.6676 77.7262 73.6676 77.7262 73.6676 77.7262C73.6676 77.7262 73.6676 77.7262 73.6676 77.7262C73.6676 77.7262 73.6676 77.7262 73.6677 77.7262C73.6677 77.7262 73.6677 77.7262 73.6677 77.7262C73.6677 77.7262 73.6677 77.7262 73.6677 77.7262C73.6677 77.7262 73.6677 77.7262 73.6677 77.7262C73.6677 77.7262 73.6678 77.7262 73.6678 77.7262C73.6678 77.7262 73.6678 77.7262 73.6678 77.7262C73.6678 77.7262 73.6678 77.7262 73.6678 77.7262C73.6678 77.7262 73.6679 77.7262 73.6679 77.7262C73.6679 77.7262 73.6679 77.7262 73.6679 77.7262C73.6679 77.7262 73.6679 77.7262 73.668 77.7262C73.668 77.7262 73.668 77.7262 73.668 77.7262C73.668 77.7262 73.668 77.7262 73.6681 77.7262C73.6681 77.7262 73.6681 77.7262 73.6681 77.7262C73.6681 77.7262 73.6681 77.7262 73.6682 77.7262C73.6682 77.7262 73.6682 77.7262 73.6682 77.7262C73.6682 77.7262 73.6683 77.7262 73.6683 77.7262C73.6683 77.7262 73.6683 77.7262 73.6683 77.7262C73.6684 77.7262 73.6684 77.7262 73.6684 77.7262C73.6684 77.7262 73.6685 77.7262 73.6685 77.7262C73.6685 77.7262 73.6685 77.7262 73.6686 77.7262C73.6686 77.7262 73.6686 77.7262 73.6686 77.7262C73.6687 77.7262 73.6687 77.7262 73.6687 77.7262C73.6687 77.7262 73.6688 77.7262 73.6688 77.7262C73.6688 77.7262 73.6688 77.7262 73.6689 77.7262C73.6689 77.7262 73.6689 77.7262 73.6689 77.7262C73.669 77.7262 73.669 77.7262 73.669 77.7262C73.6691 77.7262 73.6691 77.7262 73.6691 77.7262C73.6692 77.7262 73.6692 77.7262 73.6692 77.7262C73.6693 77.7262 73.6693 77.7262 73.6693 77.7262C73.6693 77.7262 73.6694 77.7262 73.6694 77.7262C73.6694 77.7262 73.6695 77.7262 73.6695 77.7262C73.6695 77.7262 73.6696 77.7262 73.6696 77.7262C73.6697 77.7262 73.6697 77.7262 73.6697 77.7262C73.6698 77.7262 73.6698 77.7262 73.6698 77.7262C73.6699 77.7262 73.6699 77.7262 73.6699 77.7262C73.67 77.7262 73.67 77.7262 73.6701 77.7262C73.6701 77.7262 73.6701 77.7262 73.6702 77.7262C73.6702 77.7262 73.6703 77.7262 73.6703 77.7262C73.6703 77.7262 73.6704 77.7262 73.6704 77.7262C73.6705 77.7262 73.6705 77.7262 73.6705 77.7262C73.6706 77.7262 73.6706 77.7262 73.6707 77.7262C73.6707 77.7262 73.6708 77.7262 73.6708 77.7262C73.6708 77.7262 73.6709 77.7262 73.6709 77.7262C73.671 77.7262 73.671 77.7262 73.6711 77.7262C73.6711 77.7262 73.6712 77.7262 73.6712 77.7262C73.6713 77.7262 73.6713 77.7262 73.6714 77.7262C73.6714 77.7262 73.6714 77.7262 73.6715 77.7262C73.6715 77.7262 73.6716 77.7262 73.6716 77.7262C73.6717 77.7262 73.6717 77.7262 73.6718 77.7262C73.6718 77.7262 73.6719 77.7262 73.6719 77.7262C73.672 77.7262 73.672 77.7262 73.6721 77.7262C73.6722 77.7262 73.6722 77.7262 73.6723 77.7262C73.6723 77.7262 73.6724 77.7262 73.6724 77.7262C73.6725 77.7262 73.6725 77.7262 73.6726 77.7262C73.6726 77.7262 73.6727 77.7262 73.6727 77.7262C73.6728 77.7262 73.6729 77.7262 73.6729 77.7262C73.673 77.7262 73.673 77.7262 73.6731 77.7262C73.6731 77.7262 73.6732 77.7262 73.6733 77.7262C73.6733 77.7262 73.6734 77.7262 73.6734 77.7262C73.6735 77.7262 73.6736 77.7262 73.6736 77.7262C73.6737 77.7262 73.6737 77.7262 73.6738 77.7262C73.6739 77.7262 73.6739 77.7262 73.674 77.7262C73.674 77.7262 73.6741 77.7262 73.6742 77.7262C73.6742 77.7262 73.6743 77.7262 73.6744 77.7262C73.6744 77.7262 73.6745 77.7262 73.6745 77.7262C73.6746 77.7262 73.6747 77.7262 73.6747 77.7262C73.6748 77.7262 73.6749 77.7262 73.6749 77.7262C73.675 77.7262 73.6751 77.7262 73.6751 77.7262C73.6752 77.7262 73.6753 77.7262 73.6753 77.7262C73.6754 77.7262 73.6755 77.7262 73.6755 77.7262C73.6756 77.7262 73.6757 77.7262 73.6758 77.7262C73.6758 77.7262 73.6759 77.7262 73.676 77.7262C73.676 77.7262 73.6761 77.7262 73.6762 77.7262C73.6763 77.7262 73.6763 77.7262 73.6764 77.7262C73.6765 77.7262 73.6765 77.7262 73.6766 77.7262C73.6767 77.7262 73.6768 77.7262 73.6768 77.7262C73.6769 77.7262 73.677 77.7262 73.6771 77.7262C73.6771 77.7262 73.6772 77.7262 73.6773 77.7262C73.6774 77.7262 73.6774 77.7262 73.6775 77.7262C73.6776 77.7262 73.6777 77.7262 73.6778 77.7262C73.6778 77.7262 73.6779 77.7262 73.678 77.7262C73.6781 77.7262 73.6781 77.7262 73.6782 77.7262C73.6783 77.7262 73.6784 77.7262 73.6785 77.7262C73.6785 77.7262 73.6786 77.7262 73.6787 77.7262C73.6788 77.7262 73.6789 77.7262 73.679 77.7262C73.679 77.7262 73.6791 77.7262 73.6792 77.7262C73.6793 77.7262 73.6794 77.7262 73.6795 77.7262C73.6795 77.7262 73.6796 77.7262 73.6797 77.7262C73.6798 77.7262 73.6799 77.7262 73.68 77.7262C73.6801 77.7262 73.6801 77.7262 73.6802 77.7262C73.6803 77.7262 73.6804 77.7262 73.6805 77.7262C73.6806 77.7262 73.6807 77.7262 73.6808 77.7262C73.6808 77.7262 73.6809 77.7262 73.681 77.7262C73.6811 77.7262 73.6812 77.7262 73.6813 77.7262C73.6814 77.7262 73.6815 77.7262 73.6816 77.7262C73.6817 77.7262 73.6817 77.7262 73.6818 77.7262C73.6819 77.7262 73.682 77.7262 73.6821 77.7262C73.6822 77.7262 73.6823 77.7262 73.6824 77.7262C73.6825 77.7262 73.6826 77.7262 73.6827 77.7262C73.6828 77.7262 73.6829 77.7262 73.683 77.7262C73.6831 77.7262 73.6832 77.7262 73.6833 77.7262C73.6833 77.7262 73.6834 77.7262 73.6835 77.7262C73.6836 77.7262 73.6837 77.7262 73.6838 77.7262C73.6839 77.7262 73.684 77.7262 73.6841 77.7262C73.6842 77.7262 73.6843 77.7262 73.6844 77.7262C73.6845 77.7262 73.6846 77.7262 73.6847 77.7262C73.6848 77.7262 73.6849 77.7262 73.685 77.7262C73.6851 77.7262 73.6852 77.7262 73.6853 77.7262C73.6855 77.7262 73.6856 77.7262 73.6857 77.7262C73.6858 77.7262 73.6859 77.7262 73.686 77.7262C73.6861 77.7262 73.6862 77.7262 73.6863 77.7262C73.6864 77.7262 73.6865 77.7262 73.6866 77.7262C73.6867 77.7262 73.6868 77.7262 73.6869 77.7262C73.687 77.7262 73.6871 77.7262 73.6872 77.7262C73.6874 77.7262 73.6875 77.7262 73.6876 77.7262C73.6877 77.7262 73.6878 77.7262 73.6879 77.7262C73.688 77.7262 73.6881 77.7262 73.6882 77.7262C73.6883 77.7262 73.6885 77.7262 73.6886 77.7262C73.6887 77.7262 73.6888 77.7262 73.6889 77.7262C73.689 77.7262 73.6891 77.7262 73.6892 77.7262C73.6894 77.7262 73.6895 77.7262 73.6896 77.7262C73.6897 77.7262 73.6898 77.7262 73.6899 77.7262C73.69 77.7262 73.6902 77.7262 73.6903 77.7262C73.6904 77.7262 73.6905 77.7262 73.6906 77.7262C73.6907 77.7262 73.6909 77.7262 73.691 77.7262C73.6911 77.7262 73.6912 77.7262 73.6913 77.7262C73.6915 77.7262 73.6916 77.7262 73.6917 77.7262C73.6918 77.7262 73.6919 77.7262 73.6921 77.7262C73.6922 77.7262 73.6923 77.7262 73.6924 77.7262C73.6925 77.7262 73.6927 77.7262 73.6928 77.7262C73.6929 77.7262 73.693 77.7262 73.6931 77.7262C73.6933 77.7262 73.6934 77.7262 73.6935 77.7262C73.6936 77.7262 73.6938 77.7262 73.6939 77.7262C73.694 77.7262 73.6941 77.7262 73.6943 77.7262C73.6944 77.7262 73.6945 77.7262 73.6947 77.7262C73.6948 77.7262 73.6949 77.7262 73.695 77.7262C73.6952 77.7262 73.6953 77.7262 73.6954 77.7262C73.6955 77.7262 73.6957 77.7262 73.6958 77.7262C73.6959 77.7262 73.6961 77.7262 73.6962 77.7262C73.6963 77.7262 73.6965 77.7262 73.6966 77.7262C73.6967 77.7262 73.6968 77.7262 73.697 77.7262C73.6971 77.7262 73.6972 77.7262 73.6974 77.7262C73.6975 77.7262 73.6976 77.7262 73.6978 77.7262C73.6979 77.7262 73.698 77.7262 73.6982 77.7262C73.6983 77.7262 73.6985 77.7262 73.6986 77.7262C73.6987 77.7262 73.6989 77.7262 73.699 77.7262C73.6991 77.7262 73.6993 77.7262 73.6994 77.7262C73.6995 77.7262 73.6997 77.7262 73.6998 77.7262C73.7 77.7262 73.7001 77.7262 73.7002 77.7262C73.7004 77.7262 73.7005 77.7262 73.7007 77.7262C73.7008 77.7262 73.7009 77.7262 73.7011 77.7262C73.7012 77.7262 73.7014 77.7262 73.7015 77.7262C73.7016 77.7262 73.7018 77.7262 73.7019 77.7262C73.7021 77.7262 73.7022 77.7262 73.7024 77.7262C73.7025 77.7262 73.7026 77.7262 73.7028 77.7262C73.7029 77.7262 73.7031 77.7262 73.7032 77.7262C73.7034 77.7262 73.7035 77.7262 73.7037 77.7262C73.7038 77.7262 73.704 77.7262 73.7041 77.7262C73.7043 77.7262 73.7044 77.7262 73.7045 77.7262C73.7047 77.7262 73.7048 77.7262 73.705 77.7262C73.7051 77.7262 73.7053 77.7262 73.7054 77.7262C73.7056 77.7262 73.7057 77.7262 73.7059 77.7262C73.706 77.7262 73.7062 77.7262 73.7063 77.7262C73.7065 77.7262 73.7066 77.7262 73.7068 77.7262C73.707 77.7262 73.7071 77.7262 73.7073 77.7262C73.7074 77.7262 73.7076 77.7262 73.7077 77.7262C73.7079 77.7262 73.708 77.7262 73.7082 77.7262C73.7083 77.7262 73.7085 77.7262 73.7087 77.7262C73.7088 77.7262 73.709 77.7262 73.7091 77.7262C73.7093 77.7262 73.7094 77.7262 73.7096 77.7262C73.7098 77.7262 73.7099 77.7262 73.7101 77.7262C73.7102 77.7262 73.7104 77.7262 73.7105 77.7262C73.7107 77.7262 73.7109 77.7262 73.711 77.7262C73.7112 77.7262 73.7113 77.7262 73.7115 77.7262C73.7117 77.7262 73.7118 77.7262 73.712 77.7262C73.7122 77.7262 73.7123 77.7262 73.7125 77.7262C73.7126 77.7262 73.7128 77.7262 73.713 77.7262C73.7131 77.7262 73.7133 77.7262 73.7135 77.7262C73.7136 77.7262 73.7138 77.7262 73.714 77.7262C73.7141 77.7262 73.7143 77.7262 73.7145 77.7262C73.7146 77.7262 73.7148 77.7262 73.715 77.7262C73.7151 77.7262 73.7153 77.7262 73.7155 77.7262C73.7156 77.7262 73.7158 77.7262 73.716 77.7262C73.7161 77.7262 73.7163 77.7262 73.7165 77.7262C73.7166 77.7262 73.7168 77.7262 73.717 77.7262C73.7172 77.7262 73.7173 77.7262 73.7175 77.7262C73.7177 77.7262 73.7178 77.7262 73.718 77.7262C73.7182 77.7262 73.7184 77.7262 73.7185 77.7262C73.7187 77.7262 73.7189 77.7262 73.7191 77.7262C73.7192 77.7262 73.7194 77.7262 73.7196 77.7262C73.7198 77.7262 73.7199 77.7262 73.7201 77.7262C73.7203 77.7262 73.7205 77.7262 73.7206 77.7262C73.7208 77.7262 73.721 77.7262 73.7212 77.7262C73.7214 77.7262 73.7215 77.7262 73.7217 77.7262C73.7219 77.7262 73.7221 77.7262 73.7223 77.7262C73.7224 77.7262 73.7226 77.7262 73.7228 77.7262C73.723 77.7262 73.7232 77.7262 73.7233 77.7262C73.7235 77.7262 73.7237 77.7262 73.7239 77.7262C73.7241 77.7262 73.7242 77.7262 73.7244 77.7262C73.7246 77.7262 73.7248 77.7262 73.725 77.7262C73.7252 77.7262 73.7254 77.7262 73.7255 77.7262C73.7257 77.7262 73.7259 77.7262 73.7261 77.7262C73.7263 77.7262 73.7265 77.7262 73.7267 77.7262C73.7268 77.7262 73.727 77.7262 73.7272 77.7262C73.7274 77.7262 73.7276 77.7262 73.7278 77.7262C73.728 77.7262 73.7282 77.7262 73.7283 77.7262C73.7285 77.7262 73.7287 77.7262 73.7289 77.7262C73.7291 77.7262 73.7293 77.7262 73.7295 77.7262C73.7297 77.7262 73.7299 77.7262 73.7301 77.7262C73.7303 77.7262 73.7304 77.7262 73.7306 77.7262C73.7308 77.7262 73.731 77.7262 73.7312 77.7262C73.7314 77.7262 73.7316 77.7262 73.7318 77.7262C73.732 77.7262 73.7322 77.7262 73.7324 77.7262C73.7326 77.7262 73.7328 77.7262 73.733 77.7262C73.7332 77.7262 73.7334 77.7262 73.7336 77.7262C73.7338 77.7262 73.734 77.7262 73.7342 77.7262C73.7344 77.7262 73.7346 77.7262 73.7348 77.7262C73.735 77.7262 73.7352 77.7262 73.7354 77.7262C73.7356 77.7262 73.7358 77.7262 73.736 77.7262C73.7362 77.7262 73.7364 77.7262 73.7366 77.7262C73.7368 77.7262 73.737 77.7262 73.7372 77.7262C73.7374 77.7262 73.7376 77.7262 73.7378 77.7262C73.738 77.7262 73.7382 77.7262 73.7384 77.7262C73.7386 77.7262 73.7388 77.7262 73.739 77.7262C73.7392 77.7262 73.7394 77.7262 73.7396 77.7262C73.7398 77.7262 73.74 77.7262 73.7402 77.7262C73.7405 77.7262 73.7407 77.7262 73.7409 77.7262C73.7411 77.7262 73.7413 77.7262 73.7415 77.7262C73.7417 77.7262 73.7419 77.7262 73.7421 77.7262C73.7423 77.7262 73.7425 77.7262 73.7427 77.7262C73.743 77.7262 73.7432 77.7262 73.7434 77.7262C73.7436 77.7262 73.7438 77.7262 73.744 77.7262C73.7442 77.7262 73.7444 77.7262 73.7447 77.7262C73.7449 77.7262 73.7451 77.7262 73.7453 77.7262C73.7455 77.7262 73.7457 77.7262 73.7459 77.7262C73.7462 77.7262 73.7464 77.7262 73.7466 77.7262C73.7468 77.7262 73.747 77.7262 73.7472 77.7262C73.7475 77.7262 73.7477 77.7262 73.7479 77.7262C73.7481 77.7262 73.7483 77.7262 73.7485 77.7262C73.7488 77.7262 73.749 77.7262 73.7492 77.7262C73.7494 77.7262 73.7496 77.7262 73.7499 77.7262C73.7501 77.7262 73.7503 77.7262 73.7505 77.7262C73.7507 77.7262 73.751 77.7262 73.7512 77.7262C73.7514 77.7262 73.7516 77.7262 73.7519 77.7262C73.7521 77.7262 73.7523 77.7262 73.7525 77.7262C73.7527 77.7262 73.753 77.7262 73.7532 77.7262C73.7534 77.7262 73.7536 77.7262 73.7539 77.7262C73.7541 77.7262 73.7543 77.7262 73.7545 77.7262C73.7548 77.7262 73.755 77.7262 73.7552 77.7262C73.7555 77.7262 73.7557 77.7262 73.7559 77.7262C73.7561 77.7262 73.7564 77.7262 73.7566 77.7262C73.7568 77.7262 73.7571 77.7262 73.7573 77.7262C73.7575 77.7262 73.7577 77.7262 73.758 77.7262C73.7582 77.7262 73.7584 77.7262 73.7587 77.7262C73.7589 77.7262 73.7591 77.7262 73.7594 77.7262C73.7596 77.7262 73.7598 77.7262 73.7601 77.7262C73.7603 77.7262 73.7605 77.7262 73.7608 77.7262C73.761 77.7262 73.7612 77.7262 73.7615 77.7262C73.7617 77.7262 73.7619 77.7262 73.7622 77.7262C73.7624 77.7262 73.7626 77.7262 73.7629 77.7262V75.7262C73.7626 75.7262 73.7624 75.7262 73.7622 75.7262C73.7619 75.7262 73.7617 75.7262 73.7615 75.7262C73.7612 75.7262 73.761 75.7262 73.7608 75.7262C73.7605 75.7262 73.7603 75.7262 73.7601 75.7262C73.7598 75.7262 73.7596 75.7262 73.7594 75.7262C73.7591 75.7262 73.7589 75.7262 73.7587 75.7262C73.7584 75.7262 73.7582 75.7262 73.758 75.7262C73.7577 75.7262 73.7575 75.7262 73.7573 75.7262C73.7571 75.7262 73.7568 75.7262 73.7566 75.7262C73.7564 75.7262 73.7561 75.7262 73.7559 75.7262C73.7557 75.7262 73.7555 75.7262 73.7552 75.7262C73.755 75.7262 73.7548 75.7262 73.7545 75.7262C73.7543 75.7262 73.7541 75.7262 73.7539 75.7262C73.7536 75.7262 73.7534 75.7262 73.7532 75.7262C73.753 75.7262 73.7527 75.7262 73.7525 75.7262C73.7523 75.7262 73.7521 75.7262 73.7519 75.7262C73.7516 75.7262 73.7514 75.7262 73.7512 75.7262C73.751 75.7262 73.7507 75.7262 73.7505 75.7262C73.7503 75.7262 73.7501 75.7262 73.7499 75.7262C73.7496 75.7262 73.7494 75.7262 73.7492 75.7262C73.749 75.7262 73.7488 75.7262 73.7485 75.7262C73.7483 75.7262 73.7481 75.7262 73.7479 75.7262C73.7477 75.7262 73.7475 75.7262 73.7472 75.7262C73.747 75.7262 73.7468 75.7262 73.7466 75.7262C73.7464 75.7262 73.7462 75.7262 73.7459 75.7262C73.7457 75.7262 73.7455 75.7262 73.7453 75.7262C73.7451 75.7262 73.7449 75.7262 73.7447 75.7262C73.7444 75.7262 73.7442 75.7262 73.744 75.7262C73.7438 75.7262 73.7436 75.7262 73.7434 75.7262C73.7432 75.7262 73.743 75.7262 73.7427 75.7262C73.7425 75.7262 73.7423 75.7262 73.7421 75.7262C73.7419 75.7262 73.7417 75.7262 73.7415 75.7262C73.7413 75.7262 73.7411 75.7262 73.7409 75.7262C73.7407 75.7262 73.7405 75.7262 73.7402 75.7262C73.74 75.7262 73.7398 75.7262 73.7396 75.7262C73.7394 75.7262 73.7392 75.7262 73.739 75.7262C73.7388 75.7262 73.7386 75.7262 73.7384 75.7262C73.7382 75.7262 73.738 75.7262 73.7378 75.7262C73.7376 75.7262 73.7374 75.7262 73.7372 75.7262C73.737 75.7262 73.7368 75.7262 73.7366 75.7262C73.7364 75.7262 73.7362 75.7262 73.736 75.7262C73.7358 75.7262 73.7356 75.7262 73.7354 75.7262C73.7352 75.7262 73.735 75.7262 73.7348 75.7262C73.7346 75.7262 73.7344 75.7262 73.7342 75.7262C73.734 75.7262 73.7338 75.7262 73.7336 75.7262C73.7334 75.7262 73.7332 75.7262 73.733 75.7262C73.7328 75.7262 73.7326 75.7262 73.7324 75.7262C73.7322 75.7262 73.732 75.7262 73.7318 75.7262C73.7316 75.7262 73.7314 75.7262 73.7312 75.7262C73.731 75.7262 73.7308 75.7262 73.7306 75.7262C73.7304 75.7262 73.7303 75.7262 73.7301 75.7262C73.7299 75.7262 73.7297 75.7262 73.7295 75.7262C73.7293 75.7262 73.7291 75.7262 73.7289 75.7262C73.7287 75.7262 73.7285 75.7262 73.7283 75.7262C73.7282 75.7262 73.728 75.7262 73.7278 75.7262C73.7276 75.7262 73.7274 75.7262 73.7272 75.7262C73.727 75.7262 73.7268 75.7262 73.7267 75.7262C73.7265 75.7262 73.7263 75.7262 73.7261 75.7262C73.7259 75.7262 73.7257 75.7262 73.7255 75.7262C73.7254 75.7262 73.7252 75.7262 73.725 75.7262C73.7248 75.7262 73.7246 75.7262 73.7244 75.7262C73.7242 75.7262 73.7241 75.7262 73.7239 75.7262C73.7237 75.7262 73.7235 75.7262 73.7233 75.7262C73.7232 75.7262 73.723 75.7262 73.7228 75.7262C73.7226 75.7262 73.7224 75.7262 73.7223 75.7262C73.7221 75.7262 73.7219 75.7262 73.7217 75.7262C73.7215 75.7262 73.7214 75.7262 73.7212 75.7262C73.721 75.7262 73.7208 75.7262 73.7206 75.7262C73.7205 75.7262 73.7203 75.7262 73.7201 75.7262C73.7199 75.7262 73.7198 75.7262 73.7196 75.7262C73.7194 75.7262 73.7192 75.7262 73.7191 75.7262C73.7189 75.7262 73.7187 75.7262 73.7185 75.7262C73.7184 75.7262 73.7182 75.7262 73.718 75.7262C73.7178 75.7262 73.7177 75.7262 73.7175 75.7262C73.7173 75.7262 73.7172 75.7262 73.717 75.7262C73.7168 75.7262 73.7166 75.7262 73.7165 75.7262C73.7163 75.7262 73.7161 75.7262 73.716 75.7262C73.7158 75.7262 73.7156 75.7262 73.7155 75.7262C73.7153 75.7262 73.7151 75.7262 73.715 75.7262C73.7148 75.7262 73.7146 75.7262 73.7145 75.7262C73.7143 75.7262 73.7141 75.7262 73.714 75.7262C73.7138 75.7262 73.7136 75.7262 73.7135 75.7262C73.7133 75.7262 73.7131 75.7262 73.713 75.7262C73.7128 75.7262 73.7126 75.7262 73.7125 75.7262C73.7123 75.7262 73.7122 75.7262 73.712 75.7262C73.7118 75.7262 73.7117 75.7262 73.7115 75.7262C73.7113 75.7262 73.7112 75.7262 73.711 75.7262C73.7109 75.7262 73.7107 75.7262 73.7105 75.7262C73.7104 75.7262 73.7102 75.7262 73.7101 75.7262C73.7099 75.7262 73.7098 75.7262 73.7096 75.7262C73.7094 75.7262 73.7093 75.7262 73.7091 75.7262C73.709 75.7262 73.7088 75.7262 73.7087 75.7262C73.7085 75.7262 73.7083 75.7262 73.7082 75.7262C73.708 75.7262 73.7079 75.7262 73.7077 75.7262C73.7076 75.7262 73.7074 75.7262 73.7073 75.7262C73.7071 75.7262 73.707 75.7262 73.7068 75.7262C73.7066 75.7262 73.7065 75.7262 73.7063 75.7262C73.7062 75.7262 73.706 75.7262 73.7059 75.7262C73.7057 75.7262 73.7056 75.7262 73.7054 75.7262C73.7053 75.7262 73.7051 75.7262 73.705 75.7262C73.7048 75.7262 73.7047 75.7262 73.7045 75.7262C73.7044 75.7262 73.7043 75.7262 73.7041 75.7262C73.704 75.7262 73.7038 75.7262 73.7037 75.7262C73.7035 75.7262 73.7034 75.7262 73.7032 75.7262C73.7031 75.7262 73.7029 75.7262 73.7028 75.7262C73.7026 75.7262 73.7025 75.7262 73.7024 75.7262C73.7022 75.7262 73.7021 75.7262 73.7019 75.7262C73.7018 75.7262 73.7016 75.7262 73.7015 75.7262C73.7014 75.7262 73.7012 75.7262 73.7011 75.7262C73.7009 75.7262 73.7008 75.7262 73.7007 75.7262C73.7005 75.7262 73.7004 75.7262 73.7002 75.7262C73.7001 75.7262 73.7 75.7262 73.6998 75.7262C73.6997 75.7262 73.6995 75.7262 73.6994 75.7262C73.6993 75.7262 73.6991 75.7262 73.699 75.7262C73.6989 75.7262 73.6987 75.7262 73.6986 75.7262C73.6985 75.7262 73.6983 75.7262 73.6982 75.7262C73.698 75.7262 73.6979 75.7262 73.6978 75.7262C73.6976 75.7262 73.6975 75.7262 73.6974 75.7262C73.6972 75.7262 73.6971 75.7262 73.697 75.7262C73.6968 75.7262 73.6967 75.7262 73.6966 75.7262C73.6965 75.7262 73.6963 75.7262 73.6962 75.7262C73.6961 75.7262 73.6959 75.7262 73.6958 75.7262C73.6957 75.7262 73.6955 75.7262 73.6954 75.7262C73.6953 75.7262 73.6952 75.7262 73.695 75.7262C73.6949 75.7262 73.6948 75.7262 73.6947 75.7262C73.6945 75.7262 73.6944 75.7262 73.6943 75.7262C73.6941 75.7262 73.694 75.7262 73.6939 75.7262C73.6938 75.7262 73.6936 75.7262 73.6935 75.7262C73.6934 75.7262 73.6933 75.7262 73.6931 75.7262C73.693 75.7262 73.6929 75.7262 73.6928 75.7262C73.6927 75.7262 73.6925 75.7262 73.6924 75.7262C73.6923 75.7262 73.6922 75.7262 73.6921 75.7262C73.6919 75.7262 73.6918 75.7262 73.6917 75.7262C73.6916 75.7262 73.6915 75.7262 73.6913 75.7262C73.6912 75.7262 73.6911 75.7262 73.691 75.7262C73.6909 75.7262 73.6907 75.7262 73.6906 75.7262C73.6905 75.7262 73.6904 75.7262 73.6903 75.7262C73.6902 75.7262 73.69 75.7262 73.6899 75.7262C73.6898 75.7262 73.6897 75.7262 73.6896 75.7262C73.6895 75.7262 73.6894 75.7262 73.6892 75.7262C73.6891 75.7262 73.689 75.7262 73.6889 75.7262C73.6888 75.7262 73.6887 75.7262 73.6886 75.7262C73.6885 75.7262 73.6883 75.7262 73.6882 75.7262C73.6881 75.7262 73.688 75.7262 73.6879 75.7262C73.6878 75.7262 73.6877 75.7262 73.6876 75.7262C73.6875 75.7262 73.6874 75.7262 73.6872 75.7262C73.6871 75.7262 73.687 75.7262 73.6869 75.7262C73.6868 75.7262 73.6867 75.7262 73.6866 75.7262C73.6865 75.7262 73.6864 75.7262 73.6863 75.7262C73.6862 75.7262 73.6861 75.7262 73.686 75.7262C73.6859 75.7262 73.6858 75.7262 73.6857 75.7262C73.6856 75.7262 73.6855 75.7262 73.6853 75.7262C73.6852 75.7262 73.6851 75.7262 73.685 75.7262C73.6849 75.7262 73.6848 75.7262 73.6847 75.7262C73.6846 75.7262 73.6845 75.7262 73.6844 75.7262C73.6843 75.7262 73.6842 75.7262 73.6841 75.7262C73.684 75.7262 73.6839 75.7262 73.6838 75.7262C73.6837 75.7262 73.6836 75.7262 73.6835 75.7262C73.6834 75.7262 73.6833 75.7262 73.6833 75.7262C73.6832 75.7262 73.6831 75.7262 73.683 75.7262C73.6829 75.7262 73.6828 75.7262 73.6827 75.7262C73.6826 75.7262 73.6825 75.7262 73.6824 75.7262C73.6823 75.7262 73.6822 75.7262 73.6821 75.7262C73.682 75.7262 73.6819 75.7262 73.6818 75.7262C73.6817 75.7262 73.6817 75.7262 73.6816 75.7262C73.6815 75.7262 73.6814 75.7262 73.6813 75.7262C73.6812 75.7262 73.6811 75.7262 73.681 75.7262C73.6809 75.7262 73.6808 75.7262 73.6808 75.7262C73.6807 75.7262 73.6806 75.7262 73.6805 75.7262C73.6804 75.7262 73.6803 75.7262 73.6802 75.7262C73.6801 75.7262 73.6801 75.7262 73.68 75.7262C73.6799 75.7262 73.6798 75.7262 73.6797 75.7262C73.6796 75.7262 73.6795 75.7262 73.6795 75.7262C73.6794 75.7262 73.6793 75.7262 73.6792 75.7262C73.6791 75.7262 73.679 75.7262 73.679 75.7262C73.6789 75.7262 73.6788 75.7262 73.6787 75.7262C73.6786 75.7262 73.6785 75.7262 73.6785 75.7262C73.6784 75.7262 73.6783 75.7262 73.6782 75.7262C73.6781 75.7262 73.6781 75.7262 73.678 75.7262C73.6779 75.7262 73.6778 75.7262 73.6778 75.7262C73.6777 75.7262 73.6776 75.7262 73.6775 75.7262C73.6774 75.7262 73.6774 75.7262 73.6773 75.7262C73.6772 75.7262 73.6771 75.7262 73.6771 75.7262C73.677 75.7262 73.6769 75.7262 73.6768 75.7262C73.6768 75.7262 73.6767 75.7262 73.6766 75.7262C73.6765 75.7262 73.6765 75.7262 73.6764 75.7262C73.6763 75.7262 73.6763 75.7262 73.6762 75.7262C73.6761 75.7262 73.676 75.7262 73.676 75.7262C73.6759 75.7262 73.6758 75.7262 73.6758 75.7262C73.6757 75.7262 73.6756 75.7262 73.6755 75.7262C73.6755 75.7262 73.6754 75.7262 73.6753 75.7262C73.6753 75.7262 73.6752 75.7262 73.6751 75.7262C73.6751 75.7262 73.675 75.7262 73.6749 75.7262C73.6749 75.7262 73.6748 75.7262 73.6747 75.7262C73.6747 75.7262 73.6746 75.7262 73.6745 75.7262C73.6745 75.7262 73.6744 75.7262 73.6744 75.7262C73.6743 75.7262 73.6742 75.7262 73.6742 75.7262C73.6741 75.7262 73.674 75.7262 73.674 75.7262C73.6739 75.7262 73.6739 75.7262 73.6738 75.7262C73.6737 75.7262 73.6737 75.7262 73.6736 75.7262C73.6736 75.7262 73.6735 75.7262 73.6734 75.7262C73.6734 75.7262 73.6733 75.7262 73.6733 75.7262C73.6732 75.7262 73.6731 75.7262 73.6731 75.7262C73.673 75.7262 73.673 75.7262 73.6729 75.7262C73.6729 75.7262 73.6728 75.7262 73.6727 75.7262C73.6727 75.7262 73.6726 75.7262 73.6726 75.7262C73.6725 75.7262 73.6725 75.7262 73.6724 75.7262C73.6724 75.7262 73.6723 75.7262 73.6723 75.7262C73.6722 75.7262 73.6722 75.7262 73.6721 75.7262C73.672 75.7262 73.672 75.7262 73.6719 75.7262C73.6719 75.7262 73.6718 75.7262 73.6718 75.7262C73.6717 75.7262 73.6717 75.7262 73.6716 75.7262C73.6716 75.7262 73.6715 75.7262 73.6715 75.7262C73.6714 75.7262 73.6714 75.7262 73.6714 75.7262C73.6713 75.7262 73.6713 75.7262 73.6712 75.7262C73.6712 75.7262 73.6711 75.7262 73.6711 75.7262C73.671 75.7262 73.671 75.7262 73.6709 75.7262C73.6709 75.7262 73.6708 75.7262 73.6708 75.7262C73.6708 75.7262 73.6707 75.7262 73.6707 75.7262C73.6706 75.7262 73.6706 75.7262 73.6705 75.7262C73.6705 75.7262 73.6705 75.7262 73.6704 75.7262C73.6704 75.7262 73.6703 75.7262 73.6703 75.7262C73.6703 75.7262 73.6702 75.7262 73.6702 75.7262C73.6701 75.7262 73.6701 75.7262 73.6701 75.7262C73.67 75.7262 73.67 75.7262 73.6699 75.7262C73.6699 75.7262 73.6699 75.7262 73.6698 75.7262C73.6698 75.7262 73.6698 75.7262 73.6697 75.7262C73.6697 75.7262 73.6697 75.7262 73.6696 75.7262C73.6696 75.7262 73.6695 75.7262 73.6695 75.7262C73.6695 75.7262 73.6694 75.7262 73.6694 75.7262C73.6694 75.7262 73.6693 75.7262 73.6693 75.7262C73.6693 75.7262 73.6693 75.7262 73.6692 75.7262C73.6692 75.7262 73.6692 75.7262 73.6691 75.7262C73.6691 75.7262 73.6691 75.7262 73.669 75.7262C73.669 75.7262 73.669 75.7262 73.6689 75.7262C73.6689 75.7262 73.6689 75.7262 73.6689 75.7262C73.6688 75.7262 73.6688 75.7262 73.6688 75.7262C73.6688 75.7262 73.6687 75.7262 73.6687 75.7262C73.6687 75.7262 73.6687 75.7262 73.6686 75.7262C73.6686 75.7262 73.6686 75.7262 73.6686 75.7262C73.6685 75.7262 73.6685 75.7262 73.6685 75.7262C73.6685 75.7262 73.6684 75.7262 73.6684 75.7262C73.6684 75.7262 73.6684 75.7262 73.6683 75.7262C73.6683 75.7262 73.6683 75.7262 73.6683 75.7262C73.6683 75.7262 73.6682 75.7262 73.6682 75.7262C73.6682 75.7262 73.6682 75.7262 73.6682 75.7262C73.6681 75.7262 73.6681 75.7262 73.6681 75.7262C73.6681 75.7262 73.6681 75.7262 73.6681 75.7262C73.668 75.7262 73.668 75.7262 73.668 75.7262C73.668 75.7262 73.668 75.7262 73.668 75.7262C73.6679 75.7262 73.6679 75.7262 73.6679 75.7262C73.6679 75.7262 73.6679 75.7262 73.6679 75.7262C73.6679 75.7262 73.6678 75.7262 73.6678 75.7262C73.6678 75.7262 73.6678 75.7262 73.6678 75.7262C73.6678 75.7262 73.6678 75.7262 73.6678 75.7262C73.6678 75.7262 73.6677 75.7262 73.6677 75.7262C73.6677 75.7262 73.6677 75.7262 73.6677 75.7262C73.6677 75.7262 73.6677 75.7262 73.6677 75.7262C73.6677 75.7262 73.6677 75.7262 73.6677 75.7262C73.6676 75.7262 73.6676 75.7262 73.6676 75.7262C73.6676 75.7262 73.6676 75.7262 73.6676 75.7262C73.6676 75.7262 73.6676 75.7262 73.6676 75.7262C73.6676 75.7262 73.6676 75.7262 73.6676 75.7262C73.6676 75.7262 73.6676 75.7262 73.6676 75.7262C73.6676 75.7262 73.6676 75.7262 73.6676 75.7262C73.6676 75.7262 73.6676 75.7262 73.6676 75.7262C73.6676 75.7262 73.6676 76.7262 73.6676 77.7262C73.6676 77.7262 73.6676 77.7262 73.6676 77.7262C73.6676 77.7262 73.6676 77.7262 73.6676 77.7262C73.6676 77.7262 73.6676 77.7262 73.6676 77.7262C73.6676 77.7262 73.6676 77.7262 73.6676 77.7262C73.6676 77.7262 73.6676 77.7262 73.6676 77.7262C73.6676 77.7262 73.6676 77.7262 73.6676 77.7262C73.6676 77.7262 73.6676 77.7262 73.6676 77.7262C73.6676 77.7262 73.6677 77.7262 73.6677 77.7262C73.6677 77.7262 73.6677 77.7262 73.6677 77.7262C73.6677 77.7262 73.6677 77.7262 73.6677 77.7262C73.6677 77.7262 73.6677 77.7262 73.6677 77.7262C73.6677 77.7262 73.6678 77.7262 73.6678 77.7262C73.6678 77.7262 73.6678 77.7262 73.6678 77.7262C73.6678 77.7262 73.6678 77.7262 73.6678 77.7262C73.6678 77.7262 73.6679 77.7262 73.6679 77.7262C73.6679 77.7262 73.6679 77.7262 73.6679 77.7262C73.6679 77.7262 73.6679 77.7262 73.668 77.7262C73.668 77.7262 73.668 77.7262 73.668 77.7262C73.668 77.7262 73.668 77.7262 73.6681 77.7262C73.6681 77.7262 73.6681 77.7262 73.6681 77.7262C73.6681 77.7262 73.6681 77.7262 73.6682 77.7262C73.6682 77.7262 73.6682 77.7262 73.6682 77.7262C73.6682 77.7262 73.6683 77.7262 73.6683 77.7262C73.6683 77.7262 73.6683 77.7262 73.6684 77.7262C73.6684 77.7262 73.6684 77.7262 73.6684 77.7262C73.6684 77.7262 73.6685 77.7262 73.6685 77.7262C73.6685 77.7262 73.6685 77.7262 73.6686 77.7262C73.6686 77.7262 73.6686 77.7262 73.6686 77.7262C73.6687 77.7262 73.6687 77.7262 73.6687 77.7262C73.6687 77.7262 73.6688 77.7262 73.6688 77.7262C73.6688 77.7262 73.6688 77.7262 73.6689 77.7262C73.6689 77.7262 73.6689 77.7262 73.669 77.7262C73.669 77.7262 73.669 77.7262 73.669 77.7262C73.6691 77.7262 73.6691 77.7262 73.6691 77.7262C73.6692 77.7262 73.6692 77.7262 73.6692 77.7262C73.6693 77.7262 73.6693 77.7262 73.6693 77.7262C73.6694 77.7262 73.6694 77.7262 73.6694 77.7262C73.6695 77.7262 73.6695 77.7262 73.6695 77.7262C73.6696 77.7262 73.6696 77.7262 73.6696 77.7262C73.6697 77.7262 73.6697 77.7262 73.6697 77.7262C73.6698 77.7262 73.6698 77.7262 73.6698 77.7262C73.6699 77.7262 73.6699 77.7262 73.67 77.7262C73.67 77.7262 73.67 77.7262 73.6701 77.7262C73.6701 77.7262 73.6702 77.7262 73.6702 77.7262C73.6702 77.7262 73.6703 77.7262 73.6703 77.7262C73.6704 77.7262 73.6704 77.7262 73.6704 77.7262C73.6705 77.7262 73.6705 77.7262 73.6706 77.7262C73.6706 77.7262 73.6706 77.7262 73.6707 77.7262C73.6707 77.7262 73.6708 77.7262 73.6708 77.7262C73.6709 77.7262 73.6709 77.7262 73.671 77.7262C73.671 77.7262 73.671 77.7262 73.6711 77.7262C73.6711 77.7262 73.6712 77.7262 73.6712 77.7262C73.6713 77.7262 73.6713 77.7262 73.6714 77.7262C73.6714 77.7262 73.6715 77.7262 73.6715 77.7262C73.6716 77.7262 73.6716 77.7262 73.6717 77.7262C73.6717 77.7262 73.6718 77.7262 73.6718 77.7262C73.6719 77.7262 73.6719 77.7262 73.672 77.7262C73.672 77.7262 73.6721 77.7262 73.6721 77.7262C73.6722 77.7262 73.6722 77.7262 73.6723 77.7262C73.6723 77.7262 73.6724 77.7262 73.6724 77.7262C73.6725 77.7262 73.6726 77.7262 73.6726 77.7262C73.6727 77.7262 73.6727 77.7262 73.6728 77.7262C73.6728 77.7262 73.6729 77.7262 73.6729 77.7262C73.673 77.7262 73.6731 77.7262 73.6731 77.7262C73.6732 77.7262 73.6732 77.7262 73.6733 77.7262C73.6734 77.7262 73.6734 77.7262 73.6735 77.7262C73.6735 77.7262 73.6736 77.7262 73.6737 77.7262C73.6737 77.7262 73.6738 77.7262 73.6738 77.7262C73.6739 77.7262 73.674 77.7262 73.674 77.7262C73.6741 77.7262 73.6741 77.7262 73.6742 77.7262C73.6743 77.7262 73.6743 77.7262 73.6744 77.7262C73.6745 77.7262 73.6745 77.7262 73.6746 77.7262C73.6747 77.7262 73.6747 77.7262 73.6748 77.7262C73.6749 77.7262 73.6749 77.7262 73.675 77.7262C73.6751 77.7262 73.6751 77.7262 73.6752 77.7262C73.6753 77.7262 73.6753 77.7262 73.6754 77.7262C73.6755 77.7262 73.6755 77.7262 73.6756 77.7262C73.6757 77.7262 73.6757 77.7262 73.6758 77.7262C73.6759 77.7262 73.676 77.7262 73.676 77.7262C73.6761 77.7262 73.6762 77.7262 73.6762 77.7262C73.6763 77.7262 73.6764 77.7262 73.6765 77.7262C73.6765 77.7262 73.6766 77.7262 73.6767 77.7262C73.6768 77.7262 73.6768 77.7262 73.6769 77.7262C73.677 77.7262 73.6771 77.7262 73.6771 77.7262C73.6772 77.7262 73.6773 77.7262 73.6774 77.7262C73.6774 77.7262 73.6775 77.7262 73.6776 77.7262C73.6777 77.7262 73.6778 77.7262 73.6778 77.7262C73.6779 77.7262 73.678 77.7262 73.6781 77.7262C73.6782 77.7262 73.6782 77.7262 73.6783 77.7262C73.6784 77.7262 73.6785 77.7262 73.6786 77.7262C73.6786 77.7262 73.6787 77.7262 73.6788 77.7262C73.6789 77.7262 73.679 77.7262 73.6791 77.7262C73.6791 77.7262 73.6792 77.7262 73.6793 77.7262C73.6794 77.7262 73.6795 77.7262 73.6796 77.7262C73.6796 77.7262 73.6797 77.7262 73.6798 77.7262C73.6799 77.7262 73.68 77.7262 73.6801 77.7262C73.6802 77.7262 73.6802 77.7262 73.6803 77.7262C73.6804 77.7262 73.6805 77.7262 73.6806 77.7262C73.6807 77.7262 73.6808 77.7262 73.6809 77.7262C73.681 77.7262 73.681 77.7262 73.6811 77.7262C73.6812 77.7262 73.6813 77.7262 73.6814 77.7262C73.6815 77.7262 73.6816 77.7262 73.6817 77.7262C73.6818 77.7262 73.6819 77.7262 73.682 77.7262C73.6821 77.7262 73.6822 77.7262 73.6822 77.7262C73.6823 77.7262 73.6824 77.7262 73.6825 77.7262C73.6826 77.7262 73.6827 77.7262 73.6828 77.7262C73.6829 77.7262 73.683 77.7262 73.6831 77.7262C73.6832 77.7262 73.6833 77.7262 73.6834 77.7262C73.6835 77.7262 73.6836 77.7262 73.6837 77.7262C73.6838 77.7262 73.6839 77.7262 73.684 77.7262C73.6841 77.7262 73.6842 77.7262 73.6843 77.7262C73.6844 77.7262 73.6845 77.7262 73.6846 77.7262C73.6847 77.7262 73.6848 77.7262 73.6849 77.7262C73.685 77.7262 73.6851 77.7262 73.6852 77.7262C73.6853 77.7262 73.6854 77.7262 73.6855 77.7262C73.6856 77.7262 73.6857 77.7262 73.6858 77.7262C73.6859 77.7262 73.686 77.7262 73.6862 77.7262C73.6863 77.7262 73.6864 77.7262 73.6865 77.7262C73.6866 77.7262 73.6867 77.7262 73.6868 77.7262C73.6869 77.7262 73.687 77.7262 73.6871 77.7262C73.6872 77.7262 73.6873 77.7262 73.6874 77.7262C73.6876 77.7262 73.6877 77.7262 73.6878 77.7262C73.6879 77.7262 73.688 77.7262 73.6881 77.7262C73.6882 77.7262 73.6883 77.7262 73.6884 77.7262C73.6886 77.7262 73.6887 77.7262 73.6888 77.7262C73.6889 77.7262 73.689 77.7262 73.6891 77.7262C73.6892 77.7262 73.6894 77.7262 73.6895 77.7262C73.6896 77.7262 73.6897 77.7262 73.6898 77.7262C73.6899 77.7262 73.6901 77.7262 73.6902 77.7262C73.6903 77.7262 73.6904 77.7262 73.6905 77.7262C73.6906 77.7262 73.6908 77.7262 73.6909 77.7262C73.691 77.7262 73.6911 77.7262 73.6912 77.7262C73.6914 77.7262 73.6915 77.7262 73.6916 77.7262C73.6917 77.7262 73.6918 77.7262 73.692 77.7262C73.6921 77.7262 73.6922 77.7262 73.6923 77.7262C73.6924 77.7262 73.6926 77.7262 73.6927 77.7262C73.6928 77.7262 73.6929 77.7262 73.6931 77.7262C73.6932 77.7262 73.6933 77.7262 73.6934 77.7262C73.6936 77.7262 73.6937 77.7262 73.6938 77.7262C73.6939 77.7262 73.6941 77.7262 73.6942 77.7262C73.6943 77.7262 73.6944 77.7262 73.6946 77.7262C73.6947 77.7262 73.6948 77.7262 73.695 77.7262C73.6951 77.7262 73.6952 77.7262 73.6954 77.7262C73.6955 77.7262 73.6956 77.7262 73.6957 77.7262C73.6959 77.7262 73.696 77.7262 73.6961 77.7262C73.6963 77.7262 73.6964 77.7262 73.6965 77.7262C73.6967 77.7262 73.6968 77.7262 73.6969 77.7262C73.6971 77.7262 73.6972 77.7262 73.6973 77.7262C73.6975 77.7262 73.6976 77.7262 73.6977 77.7262C73.6979 77.7262 73.698 77.7262 73.6981 77.7262C73.6983 77.7262 73.6984 77.7262 73.6986 77.7262C73.6987 77.7262 73.6988 77.7262 73.699 77.7262C73.6991 77.7262 73.6992 77.7262 73.6994 77.7262C73.6995 77.7262 73.6997 77.7262 73.6998 77.7262C73.6999 77.7262 73.7001 77.7262 73.7002 77.7262C73.7004 77.7262 73.7005 77.7262 73.7006 77.7262C73.7008 77.7262 73.7009 77.7262 73.7011 77.7262C73.7012 77.7262 73.7014 77.7262 73.7015 77.7262C73.7016 77.7262 73.7018 77.7262 73.7019 77.7262C73.7021 77.7262 73.7022 77.7262 73.7024 77.7262C73.7025 77.7262 73.7027 77.7262 73.7028 77.7262C73.703 77.7262 73.7031 77.7262 73.7032 77.7262C73.7034 77.7262 73.7035 77.7262 73.7037 77.7262C73.7038 77.7262 73.704 77.7262 73.7041 77.7262C73.7043 77.7262 73.7044 77.7262 73.7046 77.7262C73.7047 77.7262 73.7049 77.7262 73.705 77.7262C73.7052 77.7262 73.7053 77.7262 73.7055 77.7262C73.7056 77.7262 73.7058 77.7262 73.7059 77.7262C73.7061 77.7262 73.7063 77.7262 73.7064 77.7262C73.7066 77.7262 73.7067 77.7262 73.7069 77.7262C73.707 77.7262 73.7072 77.7262 73.7073 77.7262C73.7075 77.7262 73.7076 77.7262 73.7078 77.7262C73.708 77.7262 73.7081 77.7262 73.7083 77.7262C73.7084 77.7262 73.7086 77.7262 73.7087 77.7262C73.7089 77.7262 73.7091 77.7262 73.7092 77.7262C73.7094 77.7262 73.7095 77.7262 73.7097 77.7262C73.7099 77.7262 73.71 77.7262 73.7102 77.7262C73.7103 77.7262 73.7105 77.7262 73.7107 77.7262C73.7108 77.7262 73.711 77.7262 73.7112 77.7262C73.7113 77.7262 73.7115 77.7262 73.7116 77.7262C73.7118 77.7262 73.712 77.7262 73.7121 77.7262C73.7123 77.7262 73.7125 77.7262 73.7126 77.7262C73.7128 77.7262 73.713 77.7262 73.7131 77.7262C73.7133 77.7262 73.7135 77.7262 73.7136 77.7262C73.7138 77.7262 73.714 77.7262 73.7141 77.7262C73.7143 77.7262 73.7145 77.7262 73.7146 77.7262C73.7148 77.7262 73.715 77.7262 73.7151 77.7262C73.7153 77.7262 73.7155 77.7262 73.7157 77.7262C73.7158 77.7262 73.716 77.7262 73.7162 77.7262C73.7163 77.7262 73.7165 77.7262 73.7167 77.7262C73.7169 77.7262 73.717 77.7262 73.7172 77.7262C73.7174 77.7262 73.7176 77.7262 73.7177 77.7262C73.7179 77.7262 73.7181 77.7262 73.7183 77.7262C73.7184 77.7262 73.7186 77.7262 73.7188 77.7262C73.719 77.7262 73.7191 77.7262 73.7193 77.7262C73.7195 77.7262 73.7197 77.7262 73.7199 77.7262C73.72 77.7262 73.7202 77.7262 73.7204 77.7262C73.7206 77.7262 73.7208 77.7262 73.7209 77.7262C73.7211 77.7262 73.7213 77.7262 73.7215 77.7262C73.7217 77.7262 73.7218 77.7262 73.722 77.7262C73.7222 77.7262 73.7224 77.7262 73.7226 77.7262C73.7227 77.7262 73.7229 77.7262 73.7231 77.7262C73.7233 77.7262 73.7235 77.7262 73.7237 77.7262C73.7239 77.7262 73.724 77.7262 73.7242 77.7262C73.7244 77.7262 73.7246 77.7262 73.7248 77.7262C73.725 77.7262 73.7252 77.7262 73.7253 77.7262C73.7255 77.7262 73.7257 77.7262 73.7259 77.7262C73.7261 77.7262 73.7263 77.7262 73.7265 77.7262C73.7267 77.7262 73.7269 77.7262 73.727 77.7262C73.7272 77.7262 73.7274 77.7262 73.7276 77.7262C73.7278 77.7262 73.728 77.7262 73.7282 77.7262C73.7284 77.7262 73.7286 77.7262 73.7288 77.7262C73.729 77.7262 73.7292 77.7262 73.7294 77.7262C73.7295 77.7262 73.7297 77.7262 73.7299 77.7262C73.7301 77.7262 73.7303 77.7262 73.7305 77.7262C73.7307 77.7262 73.7309 77.7262 73.7311 77.7262C73.7313 77.7262 73.7315 77.7262 73.7317 77.7262C73.7319 77.7262 73.7321 77.7262 73.7323 77.7262C73.7325 77.7262 73.7327 77.7262 73.7329 77.7262C73.7331 77.7262 73.7333 77.7262 73.7335 77.7262C73.7337 77.7262 73.7339 77.7262 73.7341 77.7262C73.7343 77.7262 73.7345 77.7262 73.7347 77.7262C73.7349 77.7262 73.7351 77.7262 73.7353 77.7262C73.7355 77.7262 73.7357 77.7262 73.7359 77.7262C73.7361 77.7262 73.7363 77.7262 73.7365 77.7262C73.7367 77.7262 73.737 77.7262 73.7372 77.7262C73.7374 77.7262 73.7376 77.7262 73.7378 77.7262C73.738 77.7262 73.7382 77.7262 73.7384 77.7262C73.7386 77.7262 73.7388 77.7262 73.739 77.7262C73.7392 77.7262 73.7394 77.7262 73.7397 77.7262C73.7399 77.7262 73.7401 77.7262 73.7403 77.7262C73.7405 77.7262 73.7407 77.7262 73.7409 77.7262C73.7411 77.7262 73.7413 77.7262 73.7416 77.7262C73.7418 77.7262 73.742 77.7262 73.7422 77.7262C73.7424 77.7262 73.7426 77.7262 73.7428 77.7262C73.7431 77.7262 73.7433 77.7262 73.7435 77.7262C73.7437 77.7262 73.7439 77.7262 73.7441 77.7262C73.7443 77.7262 73.7446 77.7262 73.7448 77.7262C73.745 77.7262 73.7452 77.7262 73.7454 77.7262C73.7456 77.7262 73.7459 77.7262 73.7461 77.7262C73.7463 77.7262 73.7465 77.7262 73.7467 77.7262C73.747 77.7262 73.7472 77.7262 73.7474 77.7262C73.7476 77.7262 73.7478 77.7262 73.7481 77.7262C73.7483 77.7262 73.7485 77.7262 73.7487 77.7262C73.749 77.7262 73.7492 77.7262 73.7494 77.7262V75.7262ZM73.7629 77.7262C74.9147 77.7262 75.7733 76.7255 75.7733 75.6602H73.7733C73.7733 75.6656 73.7722 75.6743 73.7674 75.686C73.7623 75.6983 73.7545 75.7104 73.7454 75.7201C73.7362 75.7298 73.7303 75.7324 73.7319 75.7316C73.7346 75.7304 73.7457 75.7262 73.7629 75.7262V77.7262ZM75.7733 75.6602C75.7733 74.5828 74.9062 73.6091 73.7759 73.5943L73.7499 75.5942C73.737 75.594 73.7298 75.5909 73.7298 75.5909C73.7307 75.5913 73.7377 75.5949 73.7469 75.6047C73.7561 75.6143 73.7634 75.6258 73.768 75.6369C73.7723 75.6473 73.7733 75.655 73.7733 75.6602H75.7733ZM73.7751 73.5943C71.901 73.5713 70.6803 75.358 70.8698 77.0173L72.8568 76.7904C72.7769 76.0903 73.3076 75.5887 73.7506 75.5942L73.7751 73.5943ZM70.8698 77.0173C71.0624 78.7044 72.3407 79.7302 73.5965 80.1365L74.2122 78.2336C73.4472 77.9861 72.9336 77.4627 72.8568 76.7904L70.8698 77.0173ZM73.5896 80.1342C74.6911 80.4994 75.9099 80.5474 76.8797 80.5755L76.9375 78.5763C75.9405 78.5475 75.0037 78.496 74.2191 78.2358L73.5896 80.1342ZM76.8761 80.5753C78.041 80.6133 79.181 80.5219 80.3112 80.3515L80.0131 78.3739C78.9743 78.5304 77.9587 78.6095 76.9412 78.5764L76.8761 80.5753ZM80.3099 80.3517C81.2467 80.2118 81.707 79.4373 81.8392 78.8263C81.9693 78.2257 81.876 77.418 81.3036 76.8618L79.9099 78.2961C79.8738 78.2611 79.8782 78.243 79.8857 78.2757C79.889 78.29 79.8917 78.3098 79.8918 78.3338C79.8918 78.3577 79.8892 78.3815 79.8845 78.4032C79.8798 78.4249 79.8739 78.4402 79.8698 78.4488C79.8657 78.4574 79.8654 78.4552 79.8732 78.4463C79.8815 78.4368 79.8986 78.4204 79.9263 78.4046C79.955 78.3883 79.9861 78.3779 80.0144 78.3737L80.3099 80.3517ZM81.3065 76.8646C79.1439 74.7461 76.2472 73.5459 73.2569 73.6087L73.2989 75.6082C75.7243 75.5573 78.1087 76.5317 79.907 78.2933L81.3065 76.8646ZM73.2518 73.6088C72.1516 73.6375 71.2675 74.5623 71.2675 75.6744H73.2675C73.2675 75.6541 73.2747 75.6361 73.2891 75.6212C73.3051 75.6045 73.3135 75.6079 73.3039 75.6081L73.2518 73.6088ZM71.2675 75.6744C71.2675 76.7377 72.1174 77.771 73.3039 77.7401L73.2518 75.7407C73.2731 75.7402 73.2895 75.7451 73.2977 75.7488C73.3046 75.7519 73.3024 75.7524 73.2954 75.745C73.2884 75.7376 73.2808 75.7265 73.2752 75.7127C73.2699 75.6996 73.2675 75.6867 73.2675 75.6744H71.2675ZM72.5521 77.4283L72.5656 77.4426L74.0171 76.0667L74.0036 76.0525L72.5521 77.4283Z" fill="#F38898" mask="url(#path-28-inside-3_343_80)"/>
</svg>
