<svg width="150" height="142" viewBox="0 0 150 142" fill="none" xmlns="http://www.w3.org/2000/svg">
<path d="M139.073 30.677C131.746 9.4198 107.871 -0.488405 97.9755 0.519701C97.6245 12.426 87.9935 21.9779 76.1218 21.9911C64.2498 21.9911 54.6059 12.4497 54.2417 0.546361C29.2729 3.31228 22.9729 11.8479 16.8943 30.7459L16.892 30.767C11.8216 53.7586 0 65.2262 0 65.2262L27.2408 75.636L34.9131 63.5215C34.7944 69.7687 32.654 93.597 8.77031 125.185C8.77031 125.185 55.6189 149.509 106.757 139.551C115.337 113.806 119.133 81.0413 120.033 63.9252L124.087 82.3927L150 80.0912C150 64.5507 143.861 44.5655 139.073 30.677Z" fill="#F38898"/>
</svg>
