<svg width="21" height="20" viewBox="0 0 21 20" fill="none" xmlns="http://www.w3.org/2000/svg">
<path d="M10.0889 0C12.8059 0 13.1449 0.00999994 14.2109 0.0599999C15.2759 0.11 16.0009 0.277 16.6389 0.525C17.2989 0.779 17.8549 1.123 18.4109 1.678C18.9194 2.1779 19.3128 2.78259 19.5639 3.45C19.8109 4.087 19.9789 4.813 20.0289 5.878C20.0759 6.944 20.0889 7.283 20.0889 10C20.0889 12.717 20.0789 13.056 20.0289 14.122C19.9789 15.187 19.8109 15.912 19.5639 16.55C19.3135 17.2178 18.92 17.8226 18.4109 18.322C17.9108 18.8303 17.3062 19.2238 16.6389 19.475C16.0019 19.722 15.2759 19.89 14.2109 19.94C13.1449 19.987 12.8059 20 10.0889 20C7.37187 20 7.03287 19.99 5.96687 19.94C4.90187 19.89 4.17687 19.722 3.53887 19.475C2.87119 19.2245 2.26639 18.8309 1.76687 18.322C1.25827 17.8222 0.864799 17.2175 0.613867 16.55C0.365867 15.913 0.198867 15.187 0.148867 14.122C0.101867 13.056 0.0888672 12.717 0.0888672 10C0.0888672 7.283 0.0988671 6.944 0.148867 5.878C0.198867 4.812 0.365867 4.088 0.613867 3.45C0.864103 2.78218 1.25767 2.17732 1.76687 1.678C2.26654 1.16923 2.8713 0.775729 3.53887 0.525C4.17687 0.277 4.90087 0.11 5.96687 0.0599999C7.03287 0.0129999 7.37187 0 10.0889 0ZM10.0889 5C8.76278 5 7.49102 5.52678 6.55333 6.46447C5.61565 7.40215 5.08887 8.67392 5.08887 10C5.08887 11.3261 5.61565 12.5979 6.55333 13.5355C7.49102 14.4732 8.76278 15 10.0889 15C11.4149 15 12.6867 14.4732 13.6244 13.5355C14.5621 12.5979 15.0889 11.3261 15.0889 10C15.0889 8.67392 14.5621 7.40215 13.6244 6.46447C12.6867 5.52678 11.4149 5 10.0889 5ZM16.5889 4.75C16.5889 4.41848 16.4572 4.10054 16.2228 3.86612C15.9883 3.6317 15.6704 3.5 15.3389 3.5C15.0073 3.5 14.6894 3.6317 14.455 3.86612C14.2206 4.10054 14.0889 4.41848 14.0889 4.75C14.0889 5.08152 14.2206 5.39946 14.455 5.63388C14.6894 5.8683 15.0073 6 15.3389 6C15.6704 6 15.9883 5.8683 16.2228 5.63388C16.4572 5.39946 16.5889 5.08152 16.5889 4.75ZM10.0889 7C10.8845 7 11.6476 7.31607 12.2102 7.87868C12.7728 8.44129 13.0889 9.20435 13.0889 10C13.0889 10.7956 12.7728 11.5587 12.2102 12.1213C11.6476 12.6839 10.8845 13 10.0889 13C9.29322 13 8.53016 12.6839 7.96755 12.1213C7.40494 11.5587 7.08887 10.7956 7.08887 10C7.08887 9.20435 7.40494 8.44129 7.96755 7.87868C8.53016 7.31607 9.29322 7 10.0889 7Z" fill="#A3A6B4"/>
</svg>
