<svg width="150" height="142" viewBox="0 0 150 142" fill="none" xmlns="http://www.w3.org/2000/svg">
<path d="M22.1863 132.411C22.1863 135.218 24.4691 137.5 27.2754 137.5H40.1702C42.9759 137.5 45.259 135.218 45.259 132.411V121.012H22.1863V132.411Z" fill="#FF1054"/>
<path d="M11.9635 110.163C11.9635 112.027 12.7408 113.707 13.9847 114.906C15.1701 116.049 16.7791 116.755 18.5553 116.755H48.8899C50.6659 116.755 52.2746 116.049 53.4602 114.907C54.705 113.707 55.4823 112.027 55.4823 110.163L63.9368 37.1054L8.82056 83.0022L11.9635 110.163Z" fill="#2A5F5E"/>
<path d="M60.8531 0.197449H6.5915C2.95107 0.197449 0 3.14911 0 6.78954L7.63857 72.791L65.3707 24.7166L67.4452 6.78954C67.4452 3.14911 64.4944 0.197449 60.8531 0.197449Z" fill="#90B7B6"/>
<path d="M126.996 59.0805C126.996 55.5399 124.116 52.6592 120.575 52.6592H104.729C101.188 52.6592 98.3074 55.5399 98.3074 59.0805V73.5953H126.996V59.0805Z" fill="#FF1054"/>
<path d="M135.59 78.0578C134.841 77.9549 134.077 77.8972 133.3 77.8972H131.297H94.0055H92.0021C91.2249 77.8972 90.4614 77.9549 89.712 78.0578C81.5733 79.1743 75.3032 86.1513 75.3032 94.5964V125.104C75.3032 134.326 82.7795 141.802 92.0021 141.802H133.301C142.523 141.802 150 134.326 150 125.104V94.5964C150 86.1513 143.729 79.1749 135.59 78.0578ZM112.651 123.034C105.37 123.034 99.4673 117.132 99.4673 109.85C99.4673 102.569 105.37 96.6657 112.651 96.6657C119.933 96.6657 125.836 102.568 125.836 109.85C125.836 117.132 119.933 123.034 112.651 123.034Z" fill="#2A5F5E"/>
</svg>
