<svg width="23" height="20" viewBox="0 0 23 20" fill="none" xmlns="http://www.w3.org/2000/svg">
<path d="M5.53693 6.41429H1.29193V20H5.53693V6.41429Z" fill="#A3A6B4"/>
<path d="M3.32511 0C1.75982 0 0.730469 1.01234 0.730469 2.35645C0.730469 3.67503 1.72579 4.71289 3.26556 4.71289H3.29959C4.89891 4.71289 5.89423 3.66653 5.88572 2.35645C5.85169 1.01234 4.8904 0 3.32511 0Z" fill="#A3A6B4"/>
<path d="M17.132 6.28669C14.699 6.28669 13.1762 7.61378 12.8955 8.54955V6.41429H8.12307C8.18262 7.54572 8.12307 20 8.12307 20H12.8955V12.6584C12.8955 12.2416 12.8785 11.8333 12.9976 11.544C13.3209 10.7274 14.0269 9.87665 15.2945 9.87665C16.9534 9.87665 17.702 11.1357 17.702 12.9732V20H22.5169V12.4458C22.5169 8.2433 20.152 6.28669 17.132 6.28669Z" fill="#A3A6B4"/>
</svg>
