<svg width="248" height="83" viewBox="0 0 248 83" fill="none" xmlns="http://www.w3.org/2000/svg">
<path d="M248 0H0V83H248V0Z" fill="#FF1054"/>
<path d="M161.652 51.8152C162.733 51.8558 163.811 51.6657 164.814 51.2575C165.745 50.7827 166.552 50.0966 167.171 49.2538H167.29L168.169 51.5181H171.336V40.4177C171.4 39.5901 171.272 38.7591 170.962 37.9892C170.652 37.2193 170.17 36.5313 169.551 35.9788C168.059 34.911 166.243 34.3948 164.413 34.518C162.2 34.4905 160.014 35.0075 158.047 36.0236L159.548 39.093C161.01 38.3704 162.606 37.9595 164.234 37.8862C164.581 37.8321 164.936 37.8598 165.27 37.9669C165.605 38.074 165.91 38.2577 166.161 38.5034C166.412 38.749 166.603 39.0499 166.718 39.3822C166.833 39.7145 166.869 40.069 166.823 40.4177V41.1481L163.937 41.2377C161.984 41.1841 160.052 41.6657 158.352 42.6304C157.732 43.0666 157.236 43.656 156.911 44.3414C156.586 45.0268 156.444 45.7847 156.499 46.5414C156.453 47.2516 156.551 47.9639 156.788 48.6349C157.025 49.306 157.395 49.922 157.876 50.4457C158.38 50.9177 158.975 51.2824 159.624 51.5178C160.273 51.7531 160.963 51.8543 161.652 51.8152ZM162.129 44.5743C163.027 44.0715 164.046 43.8246 165.074 43.8605L166.83 43.8007V45.1702C166.85 45.6164 166.776 46.0618 166.613 46.4776C166.451 46.8934 166.202 47.2703 165.885 47.5839C165.545 47.895 165.148 48.1356 164.715 48.2917C164.282 48.4479 163.822 48.5165 163.362 48.4936C161.896 48.4936 161.162 47.8528 161.161 46.5713C161.136 46.183 161.212 45.7949 161.382 45.4449C161.552 45.0948 161.809 44.7949 162.129 44.5743Z" fill="white"/>
<path d="M178.942 43.6812C178.829 42.2221 179.122 40.7601 179.789 39.4582C180.098 39.0247 180.514 38.6792 180.996 38.4557C181.479 38.2322 182.011 38.1383 182.541 38.1833C182.929 38.1502 183.319 38.2153 183.675 38.3729C184.031 38.5304 184.342 38.7752 184.579 39.0847C185.061 39.9005 185.283 40.8435 185.218 41.7888V51.5181H189.756V40.6567C189.868 39.0055 189.328 37.3761 188.252 36.1199C187.667 35.567 186.973 35.1418 186.215 34.8712C185.457 34.6006 184.651 34.4905 183.848 34.5479C182.806 34.5294 181.773 34.7408 180.822 35.1671C179.961 35.556 179.234 36.1913 178.732 36.9931H178.48L177.87 34.86H174.404V51.5181H178.942V43.6812Z" fill="white"/>
<path d="M192.371 57.6335C193.99 58.5417 195.836 58.9635 197.688 58.8487C200.123 58.9962 202.548 58.4371 204.674 57.2385C205.441 56.7647 206.07 56.0965 206.497 55.3014C206.924 54.5063 207.134 53.6124 207.106 52.71C207.149 52.062 207.042 51.4128 206.793 50.8131C206.544 50.2135 206.16 49.6798 205.67 49.2539C204.457 48.3903 202.982 47.9739 201.497 48.0753H198.679C197.012 48.0753 196.178 47.7477 196.18 47.0925C196.192 46.8525 196.263 46.6191 196.384 46.4117C196.505 46.2044 196.675 46.0291 196.877 45.9007L197.54 45.9754L198.357 46.0202C200.205 46.1311 202.035 45.6037 203.542 44.5262C204.16 44.0259 204.651 43.3866 204.976 42.6603C205.3 41.9339 205.449 41.1411 205.41 40.3463C205.42 39.4616 205.172 38.5933 204.696 37.848L207.299 37.184V34.86H201.498C201.319 34.8202 200.911 34.7576 200.272 34.6724C199.723 34.5956 199.169 34.5535 198.614 34.5463C196.805 34.4284 195.012 34.9578 193.556 36.0403C192.96 36.5616 192.49 37.2124 192.183 37.9432C191.876 38.6739 191.74 39.4652 191.786 40.2567C191.761 41.2921 192.025 42.3139 192.55 43.2065C193.034 44.0163 193.76 44.6524 194.627 45.0242C194.033 45.3509 193.495 45.7707 193.034 46.2675C192.684 46.6921 192.49 47.2241 192.485 47.7745C192.479 48.3249 192.663 48.8606 193.004 49.292C193.319 49.7178 193.74 50.0541 194.224 50.2681C193.184 50.4645 192.226 50.968 191.474 51.714C190.845 52.3975 190.508 53.301 190.536 54.2305C190.515 54.9094 190.674 55.5816 190.996 56.1792C191.319 56.7768 191.793 57.2785 192.371 57.6335ZM198.613 37.3052C200.257 37.3052 201.08 38.3078 201.081 40.3131C201.122 41.0745 200.913 41.8285 200.486 42.4595C200.26 42.7324 199.972 42.9466 199.646 43.0839C199.32 43.2212 198.965 43.2775 198.613 43.248C198.259 43.2752 197.904 43.218 197.576 43.0809C197.249 42.9438 196.959 42.7308 196.73 42.4595C196.288 41.8345 196.07 41.0778 196.113 40.3131C196.113 38.3078 196.946 37.3052 198.613 37.3052ZM195.298 52.3149C195.916 51.9054 196.647 51.6994 197.388 51.7256H199.74C200.598 51.6813 201.456 51.803 202.267 52.0842C202.524 52.1851 202.741 52.3652 202.888 52.5983C203.036 52.8314 203.105 53.1054 203.086 53.3806C203.064 53.7886 202.92 54.1805 202.673 54.5059C202.427 54.8313 202.089 55.0754 201.702 55.2066C200.491 55.7054 199.186 55.932 197.878 55.8706C197.006 55.9174 196.136 55.7331 195.357 55.3361C195.085 55.198 194.857 54.9869 194.698 54.7262C194.539 54.4656 194.456 54.1658 194.457 53.8604C194.456 53.5522 194.532 53.2487 194.68 52.9783C194.827 52.708 195.041 52.4797 195.301 52.3149H195.298Z" fill="white"/>
<path d="M143.725 43.6812C143.616 42.2294 143.909 40.7756 144.572 39.4798C144.876 39.0405 145.291 38.6892 145.774 38.4611C146.257 38.2329 146.791 38.136 147.323 38.18C149.108 38.18 150 39.3829 150 41.7888V51.5181H154.538V40.6567C154.648 39.0058 154.102 37.3781 153.02 36.1282C152.427 35.5721 151.726 35.1447 150.96 34.8727C150.195 34.6008 149.381 34.4902 148.571 34.5479C147.622 34.4805 146.673 34.6722 145.824 35.1025C144.975 35.5328 144.259 36.1856 143.751 36.9914H143.514L143.619 35.6502C143.687 34.2906 143.723 33.4258 143.723 33.0589V28.3345H139.187V51.5181H143.725V43.6812Z" fill="white"/>
<path d="M130.276 51.8152C131.228 51.8336 132.179 51.7439 133.111 51.548C133.9 51.3509 134.651 51.0239 135.333 50.5802V46.6908C134.646 47.1602 133.894 47.5285 133.102 47.7847C132.317 48.0264 131.499 48.1462 130.677 48.14C128.317 48.14 127.137 46.5104 127.135 43.2513C127.135 39.8959 128.316 38.2176 130.677 38.2165C131.303 38.2177 131.924 38.3106 132.522 38.4921C133.137 38.6758 133.8 38.912 134.511 39.2009L135.852 35.6833C134.237 34.9097 132.464 34.5221 130.674 34.5512C129.564 34.4782 128.451 34.6402 127.408 35.0266C126.365 35.413 125.415 36.0152 124.619 36.7939C123.103 38.6012 122.346 40.9275 122.508 43.2828C122.51 48.9711 125.1 51.8152 130.276 51.8152Z" fill="white"/>
<path d="M215.966 51.8152C217.074 51.8332 218.181 51.7358 219.268 51.5247C220.15 51.3386 221.004 51.0407 221.811 50.6383V47.1224C220.916 47.5521 219.979 47.8859 219.015 48.1184C218.083 48.332 217.129 48.4373 216.174 48.4321C215.625 48.4656 215.076 48.3864 214.559 48.1994C214.042 48.0124 213.569 47.7216 213.169 47.3448C212.415 46.5206 212.005 45.438 212.025 44.3203H222.749V42.1175C222.807 41.107 222.663 40.095 222.326 39.1408C221.989 38.1865 221.466 37.3091 220.786 36.5598C220.058 35.8651 219.195 35.328 218.251 34.9819C217.306 34.6357 216.301 34.488 215.297 34.5479C214.226 34.4893 213.155 34.6634 212.157 35.0582C211.16 35.453 210.259 36.0593 209.517 36.8354C208.024 38.6487 207.277 40.9637 207.427 43.3094C207.355 44.4564 207.518 45.6061 207.907 46.6874C208.295 47.7687 208.902 48.7586 209.688 49.5958C210.534 50.3659 211.525 50.959 212.604 51.3401C213.682 51.7212 214.825 51.8828 215.966 51.8152ZM213.064 38.7012C213.351 38.3922 213.702 38.1499 214.093 37.9916C214.484 37.8333 214.904 37.7627 215.325 37.7849C215.75 37.765 216.175 37.8365 216.57 37.9945C216.966 38.1526 217.323 38.3935 217.617 38.7012C218.223 39.4279 218.536 40.3551 218.494 41.3008H212.121C212.134 40.3527 212.464 39.4364 213.058 38.6979L213.064 38.7012Z" fill="white"/>
<path d="M98.3936 34.8616H93.8555V51.5181H98.3936V34.8616Z" fill="white"/>
<path d="M109.906 51.8153C110.857 51.8337 111.807 51.7441 112.738 51.548C113.528 51.3513 114.28 51.0242 114.963 50.5802V46.6908C114.275 47.1602 113.524 47.5286 112.732 47.7848C111.946 48.0264 111.129 48.1462 110.307 48.14C107.945 48.14 106.764 46.5104 106.765 43.2513C106.765 39.8959 107.946 38.2176 110.307 38.2165C110.932 38.2179 111.554 38.3107 112.152 38.4921C112.765 38.6758 113.428 38.9121 114.141 39.2009L115.48 35.6834C113.865 34.9098 112.093 34.5223 110.304 34.5512C109.195 34.4785 108.083 34.6403 107.041 35.0262C105.999 35.412 105.049 36.0131 104.254 36.7906C102.736 38.5973 101.978 40.9239 102.141 43.2795C102.14 48.97 104.728 51.8153 109.906 51.8153Z" fill="white"/>
<path d="M46.4268 28.3345H41.8887V51.5164H46.4268V28.3345Z" fill="white"/>
<path d="M55.233 51.8152C56.3141 51.856 57.3916 51.6659 58.3937 51.2575C59.3246 50.7827 60.1317 50.0966 60.7506 49.2539H60.87L61.7484 51.5181H64.9175V40.4177C64.9807 39.59 64.8524 38.7589 64.5425 37.989C64.2326 37.2191 63.7495 36.5312 63.1308 35.9788C61.6409 34.9126 59.8281 34.3963 58.0009 34.518C55.7873 34.4907 53.6007 35.0077 51.633 36.0237L53.1346 39.093C54.597 38.3706 56.193 37.9597 57.8219 37.8862C58.1687 37.8324 58.5233 37.8603 58.8575 37.9676C59.1917 38.0748 59.4964 38.2586 59.7474 38.5042C59.9984 38.7498 60.1889 39.0506 60.3038 39.3827C60.4187 39.7148 60.4548 40.0692 60.4092 40.4177V41.1481L57.5236 41.2377C55.5699 41.1844 53.6387 41.6659 51.938 42.6305C51.3187 43.067 50.8228 43.6566 50.4983 44.3419C50.1739 45.0272 50.0321 45.785 50.0866 46.5414C50.0404 47.2516 50.1385 47.9637 50.3749 48.6348C50.6114 49.3059 50.9813 49.9219 51.4623 50.4457C51.9661 50.9169 52.5598 51.2812 53.2078 51.5165C53.8559 51.7519 54.5447 51.8535 55.233 51.8152ZM55.7087 44.5743C56.6069 44.0715 57.6255 43.8247 58.654 43.8605L60.4092 43.8008V45.1703C60.4296 45.6163 60.3562 46.0616 60.1937 46.4774C60.0312 46.8932 59.7833 47.2702 59.4661 47.5839C59.1266 47.895 58.7288 48.1356 58.2958 48.2918C57.8628 48.4479 57.4031 48.5165 56.9435 48.4936C55.475 48.4936 54.7413 47.8528 54.7424 46.5713C54.7173 46.1832 54.7931 45.7952 54.9625 45.4452C55.1319 45.0951 55.389 44.7951 55.7087 44.5743Z" fill="white"/>
<path d="M28.7503 52.0991C28.7503 51.8777 28.6713 51.0732 28.5133 49.6854H28.7503C29.2906 50.3826 29.9899 50.9398 30.7897 51.3104C31.5894 51.6809 32.4661 51.8541 33.3464 51.8152C34.5577 51.8429 35.7462 51.4829 36.7393 50.7877C37.7554 50.0302 38.528 48.9915 38.9619 47.7997C39.5143 46.3168 39.7798 44.7422 39.7442 43.16C39.8735 40.9253 39.2895 38.7074 38.0768 36.8271C37.5583 36.0929 36.865 35.4999 36.0599 35.1019C35.2547 34.7039 34.363 34.5135 33.4658 34.5479C32.531 34.5017 31.6009 34.7067 30.7718 35.1416C29.9427 35.5764 29.2448 36.2254 28.7503 37.0213H28.5415L27.9017 34.86H24.2139V58.847H28.7503V52.0991ZM28.7503 42.6371C28.6681 41.4423 28.9477 40.2505 29.5525 39.2175C29.8473 38.8585 30.2247 38.5766 30.6523 38.3958C31.0798 38.2151 31.5448 38.1411 32.0072 38.18C32.4749 38.1495 32.9419 38.2478 33.3577 38.4644C33.7735 38.6809 34.1222 39.0074 34.3658 39.4084C34.9388 40.5493 35.1985 41.8223 35.1183 43.0969C35.1183 46.4589 34.1011 48.14 32.0669 48.14C31.5826 48.1782 31.0965 48.0915 30.6552 47.888C30.2138 47.6846 29.8319 47.3713 29.5459 46.978C28.9212 45.7983 28.6452 44.4646 28.7503 43.1334V42.6371Z" fill="white"/>
<path d="M96.1324 32.79C96.802 32.8414 97.4653 32.6301 97.9821 32.2007C98.1944 31.9851 98.3589 31.7273 98.4652 31.4438C98.5714 31.1604 98.6169 30.8578 98.5987 30.5556C98.5987 29.076 97.7766 28.3356 96.1324 28.3345C94.4882 28.3334 93.6644 29.0738 93.6611 30.5556C93.6611 32.0441 94.4849 32.7889 96.1324 32.79Z" fill="white"/>
<path d="M82.0157 46.3041C81.9023 47.7885 82.3449 49.262 83.2571 50.4375C83.7821 50.9359 84.407 51.3165 85.0904 51.5541C85.7737 51.7917 86.4997 51.8807 87.2201 51.8153C88.6464 51.8577 90.0656 51.5987 91.3853 51.055V47.6736C90.4646 47.989 89.5021 48.1652 88.5295 48.1965C88.0112 48.222 87.5015 48.0573 87.0958 47.7333C86.9041 47.5511 86.7558 47.328 86.6617 47.0806C86.5676 46.8332 86.5301 46.5679 86.5522 46.3041V38.273H91.2079V34.86H86.5522V31.3143H83.6499L82.3422 34.8318L79.8428 36.3507V38.273H82.0157V46.3041Z" fill="white"/>
<path d="M68.6904 42.9508C69.5667 43.5596 70.5127 44.0612 71.508 44.4448C72.3998 44.8233 73.1136 45.1553 73.6495 45.4408C74.0612 45.6386 74.4419 45.8953 74.7799 46.2028C74.891 46.3178 74.9776 46.4542 75.0346 46.6037C75.0916 46.7532 75.1177 46.9127 75.1114 47.0726C75.1114 48.0266 74.2887 48.5035 72.6434 48.5035C71.7002 48.484 70.7628 48.349 69.8523 48.1018C68.8735 47.8615 67.92 47.528 67.0047 47.1058V50.8607C67.7741 51.1874 68.5766 51.4295 69.3981 51.5828C70.4197 51.7608 71.4557 51.8431 72.4926 51.8285C74.3633 51.9613 76.2274 51.492 77.813 50.4889C78.4041 50.0321 78.8749 49.4377 79.1846 48.7573C79.4942 48.0769 79.6333 47.3311 79.5898 46.5846C79.6086 45.8505 79.4607 45.1216 79.1572 44.4531C78.8444 43.827 78.3856 43.2855 77.8196 42.8745C76.9311 42.2686 75.9721 41.7735 74.9638 41.4004C73.9812 41.0439 73.0326 40.5994 72.1296 40.0724C71.9407 39.9659 71.7821 39.8129 71.6687 39.6278C71.5553 39.4428 71.4909 39.2319 71.4815 39.015C71.4815 38.2901 72.1511 37.9277 73.4904 37.9277C74.2421 37.9278 74.9894 38.0431 75.7064 38.2696C76.499 38.5237 77.2784 38.8173 78.0417 39.1494L79.4091 35.856C77.5795 34.9967 75.5841 34.549 73.5633 34.5446C71.8531 34.4408 70.1523 34.8649 68.6904 35.7597C68.1367 36.1392 67.6885 36.6536 67.3881 37.2545C67.0877 37.8553 66.9449 38.5229 66.9733 39.1943C66.9508 39.9423 67.0899 40.6863 67.381 41.3755C67.6808 42.0009 68.1307 42.5421 68.6904 42.9508Z" fill="white"/>
</svg>
