<svg width="108" height="22" viewBox="0 0 108 22" fill="none" xmlns="http://www.w3.org/2000/svg">
<path fill-rule="evenodd" clip-rule="evenodd" d="M24.969 15.8381H26.793C26.937 15.8381 27.049 15.7741 27.097 15.6141L29.209 8.94214C29.241 8.81414 29.369 8.81414 29.417 8.94214L31.929 15.5661C31.993 15.7421 32.089 15.8381 32.265 15.8381H33.401C33.561 15.8381 33.689 15.7581 33.753 15.5661L36.185 8.94214C36.233 8.81414 36.377 8.81414 36.409 8.94214L38.473 15.6141C38.505 15.7421 38.601 15.8381 38.761 15.8381H40.697C40.889 15.8381 41.001 15.6941 40.937 15.4861L37.753 5.21414C37.705 5.07014 37.593 4.95814 37.449 4.95814H35.817C35.673 4.95814 35.545 5.08614 35.497 5.21414L32.985 11.6941C32.937 11.8381 32.809 11.8221 32.761 11.6941L30.233 5.21414C30.185 5.08614 30.057 4.95814 29.913 4.95814H28.281C28.137 4.95814 28.025 5.07014 27.977 5.21414L24.729 15.4861C24.665 15.7101 24.777 15.8381 24.969 15.8381ZM45.753 16.0461C43.289 16.0461 41.465 14.1901 41.465 11.8221C41.465 9.43814 43.289 7.59814 45.753 7.59814C48.233 7.59814 50.041 9.43814 50.041 11.8221C50.041 14.1901 48.233 16.0461 45.753 16.0461ZM45.753 14.0621C46.921 14.0621 47.865 13.0541 47.865 11.8221C47.865 10.5741 46.921 9.58214 45.753 9.58214C44.601 9.58214 43.641 10.5741 43.641 11.8221C43.641 13.0541 44.601 14.0621 45.753 14.0621ZM56.057 16.0461C55.113 16.0461 54.473 15.6621 53.881 15.1821C53.721 15.0541 53.577 15.1021 53.577 15.3261V15.5341C53.577 15.6941 53.449 15.8381 53.289 15.8381H51.785C51.625 15.8381 51.481 15.6941 51.481 15.5341V5.26214C51.481 5.10214 51.625 4.95814 51.785 4.95814H53.369C53.529 4.95814 53.657 5.10214 53.657 5.26214V8.19014C53.657 8.39814 53.801 8.46214 54.025 8.30214C54.505 7.95014 55.209 7.59814 56.121 7.59814C58.313 7.59814 59.993 9.45414 59.993 11.8221C59.993 14.1901 58.281 16.0461 56.057 16.0461ZM55.689 14.0461C56.873 14.0461 57.817 13.0541 57.817 11.8221C57.817 10.5741 56.873 9.58214 55.689 9.58214C54.537 9.58214 53.593 10.5581 53.593 11.8221C53.593 13.0701 54.521 14.0461 55.689 14.0461ZM62.537 6.92614C63.193 6.92614 63.753 6.36614 63.753 5.71014C63.753 5.05414 63.193 4.49414 62.537 4.49414C61.881 4.49414 61.321 5.05414 61.321 5.71014C61.321 6.36614 61.881 6.92614 62.537 6.92614ZM61.721 15.8381H63.305C63.465 15.8381 63.609 15.6941 63.609 15.5341V8.11014C63.609 7.95014 63.465 7.80614 63.305 7.80614H61.721C61.561 7.80614 61.433 7.95014 61.433 8.11014V15.5341C61.433 15.6941 61.561 15.8381 61.721 15.8381ZM68.329 15.9181C68.489 15.9181 68.633 15.7901 68.633 15.6301V14.3181C68.633 14.1421 68.489 14.0141 68.329 14.0141C67.769 14.0141 67.545 13.6781 67.545 13.1661V5.26214C67.545 5.10214 67.401 4.95814 67.241 4.95814H65.657C65.497 4.95814 65.369 5.10214 65.369 5.26214V13.1181C65.369 15.2301 66.217 15.9181 68.329 15.9181ZM73.449 16.0461C71.017 16.0461 69.289 14.2701 69.289 11.8541C69.289 9.42214 71.081 7.59814 73.481 7.59814C75.865 7.59814 77.609 9.45414 77.609 11.8861C77.609 12.1741 77.529 12.4141 77.241 12.4141H71.737C71.593 12.4141 71.545 12.4941 71.561 12.6221C71.673 13.5341 72.473 14.2061 73.513 14.2061C74.201 14.2061 74.697 13.9021 75.033 13.5181C75.209 13.3261 75.353 13.2621 75.545 13.2621H77.017C77.273 13.2621 77.385 13.4381 77.289 13.6941C76.761 15.0541 75.257 16.0461 73.449 16.0461ZM71.753 11.1181H75.129C75.241 11.1181 75.289 11.0701 75.273 10.9421C75.113 10.0941 74.361 9.43814 73.449 9.43814C72.569 9.43814 71.833 10.0621 71.625 10.8941C71.593 11.0061 71.609 11.1181 71.753 11.1181ZM79.481 15.8381C79.321 15.8381 79.193 15.6941 79.193 15.5341V5.26214C79.193 5.10214 79.321 4.95814 79.481 4.95814H84.521C86.825 4.95814 88.393 6.30214 88.393 8.55814C88.393 10.7661 86.617 12.2061 84.409 12.2061H81.737C81.545 12.2061 81.449 12.3181 81.449 12.5101V15.5341C81.449 15.6941 81.305 15.8381 81.145 15.8381H79.481ZM81.721 10.3501H84.409C85.513 10.3501 86.121 9.40614 86.121 8.57414C86.121 7.69414 85.529 6.86214 84.409 6.86214H81.721C81.529 6.86214 81.449 6.95814 81.449 7.15014V10.0621C81.449 10.2541 81.529 10.3501 81.721 10.3501ZM93.257 16.0461C91.113 16.0461 89.321 14.2381 89.321 11.8221C89.321 9.39014 91.145 7.59814 93.289 7.59814C94.201 7.59814 94.841 7.95014 95.417 8.41414C95.561 8.54214 95.721 8.52614 95.721 8.33414V8.09414C95.721 7.93414 95.849 7.80614 96.009 7.80614H97.513C97.673 7.80614 97.817 7.95014 97.817 8.11014V13.4061C97.817 13.8061 97.961 13.9821 98.233 13.9981C98.377 14.0141 98.505 14.1101 98.505 14.2541V15.6461C98.505 15.7901 98.393 15.9181 98.233 15.9181C97.177 15.9181 96.553 15.6141 96.201 15.0061C96.105 14.8461 95.993 14.8141 95.833 14.9741C95.193 15.5661 94.457 16.0461 93.257 16.0461ZM93.625 14.0621C94.793 14.0621 95.721 13.0701 95.721 11.8221C95.721 10.5581 94.793 9.58214 93.625 9.58214C92.441 9.58214 91.513 10.5741 91.513 11.8221C91.513 13.0541 92.441 14.0621 93.625 14.0621ZM99.625 18.9581C101.961 18.9581 103.129 17.9821 104.233 15.3741L107.257 8.19014C107.337 7.99814 107.193 7.80614 106.985 7.80614H105.465C105.305 7.80614 105.225 7.90214 105.161 8.06214L103.401 12.3341C103.257 12.6701 103.065 12.6861 102.921 12.3501L101.081 8.09414C101.017 7.93414 100.921 7.80614 100.761 7.80614H99.177C98.985 7.80614 98.825 7.98214 98.921 8.23814L101.865 14.8941C101.961 15.1181 101.993 15.2941 101.929 15.5341C101.705 16.5101 100.681 17.0701 99.625 17.0701C99.465 17.0701 99.321 17.1981 99.321 17.3581V18.6541C99.321 18.8141 99.465 18.9581 99.625 18.9581Z" fill="#5A78FF"/>
<path fill-rule="evenodd" clip-rule="evenodd" d="M10.4375 14.3235C12.2296 13.7773 13.7458 13.5027 14.986 13.4996C17.0365 13.4946 18.7556 13.9016 20.1434 14.7207V8.76408C18.7485 8.04181 17.1725 7.65626 15.4153 7.60742C13.6581 7.55859 11.9988 7.91646 10.4375 8.68102V14.3235Z" fill="#5A78FF"/>
<path fill-rule="evenodd" clip-rule="evenodd" d="M7.52637 7.83835L9.7382 13.1033V8.05754C10.9036 7.4335 12.1373 7.03357 13.4393 6.85776C14.7414 6.68195 16.2214 6.7103 17.8793 6.9428L16.6763 4.06859C14.9336 3.95604 13.2734 4.23681 11.6958 4.9109C10.1181 5.58498 8.72834 6.5608 7.52637 7.83835Z" fill="#5A78FF"/>
<path d="M11.9014 4.10734C11.7078 3.63765 11.4175 2.93312 11.0303 1.99375C10.6228 1.00515 9.49593 0.532039 8.51334 0.937033L2.49984 3.41562C1.51725 3.82061 1.05103 4.95035 1.4585 5.93895L7.25687 20.0069C7.66434 20.9955 8.79121 21.4686 9.7738 21.0636L15.7873 18.585C16.7699 18.18 17.2361 17.0503 16.8286 16.0617C16.4614 15.1707 16.2218 14.5894 16.1098 14.3176C15.7826 14.2983 15.5432 14.2866 15.3916 14.2827C15.2315 14.2786 15.0034 14.2781 14.7072 14.2812C14.8516 14.6315 15.1633 15.3879 15.6426 16.5505C15.7784 16.8801 15.623 17.2566 15.2954 17.3916L9.28193 19.8702C8.95441 20.0052 8.57878 19.8475 8.44296 19.518L2.64459 5.45008C2.50876 5.12055 2.66417 4.74397 2.9917 4.60897L9.0052 2.13038C9.33273 1.99538 9.70836 2.15309 9.84418 2.48262L10.7247 4.61897C10.9964 4.48641 11.2052 4.39088 11.3512 4.33237C11.4972 4.27386 11.6806 4.19885 11.9014 4.10734Z" fill="#5A78FF"/>
</svg>
