<svg width="140" height="103" viewBox="0 0 140 103" fill="none" xmlns="http://www.w3.org/2000/svg">
<path d="M60.6824 14.5527C60.6824 14.5527 83.0347 4.45862 98.2118 4.45862C114.259 4.45862 136 12.2234 136 18.1763M60.6824 14.5527C60.6824 14.5527 46.0165 17.0087 36.6118 16.3645C19.1987 15.1718 21.4538 4.42397 3.99999 4.45752L5.81177 88.0586C19.5651 91.404 27.2978 97.8246 41.2706 95.5645C49.294 94.2667 60.6824 88.0586 60.6824 88.0586M60.6824 14.5527V88.0586M136 18.1763C136 44.5573 136 85.7292 136 85.7292C136 85.7292 113.839 98.5665 98.2118 98.9292C82.9573 99.2833 60.6824 88.0586 60.6824 88.0586M136 18.1763C136 24.1291 114.089 32.9741 98.2118 33.188C87.7426 33.3291 72.0706 27.2351 72.0706 27.2351M118.4 34.7409V39.3997M118.4 47.6821V53.1174M117.624 68.1292V72.2703M117.624 80.035V85.7292" stroke="#90B7B6" stroke-width="8" stroke-linecap="round" stroke-linejoin="round"/>
<mask id="path-2-inside-1_343_452" fill="white">
<ellipse cx="16.5647" cy="5.69412" rx="16.5647" ry="5.69412" transform="matrix(-1 0 0 1 113.741 12.2231)"/>
</mask>
<ellipse cx="16.5647" cy="5.69412" rx="16.5647" ry="5.69412" transform="matrix(-1 0 0 1 113.741 12.2231)" fill="#C75959"/>
<path d="M88.6118 17.9172C88.6118 15.3071 87.058 14.0057 86.9591 13.9254C86.7958 13.7926 87.0463 14.0282 88.0641 14.3781C90.0221 15.0511 93.2439 15.6113 97.1765 15.6113V31.6113C91.9607 31.6113 86.9001 30.8968 82.8629 29.509C80.883 28.8285 78.7077 27.837 76.868 26.3419C75.0926 24.899 72.6118 22.0996 72.6118 17.9172H88.6118ZM97.1765 15.6113C101.109 15.6113 104.331 15.0511 106.289 14.3781C107.307 14.0282 107.557 13.7926 107.394 13.9254C107.295 14.0057 105.741 15.3071 105.741 17.9172H121.741C121.741 22.0996 119.26 24.899 117.485 26.3419C115.645 27.837 113.47 28.8285 111.49 29.509C107.453 30.8968 102.392 31.6113 97.1765 31.6113V15.6113ZM105.741 17.9172C105.741 20.5273 107.295 21.8287 107.394 21.909C107.557 22.0418 107.307 21.8062 106.289 21.4563C104.331 20.7833 101.109 20.2231 97.1765 20.2231V4.22308C102.392 4.22308 107.453 4.93756 111.49 6.32536C113.47 7.00593 115.645 7.99736 117.485 9.49254C119.26 10.9354 121.741 13.7348 121.741 17.9172H105.741ZM97.1765 20.2231C93.2439 20.2231 90.0221 20.7833 88.0641 21.4563C87.0463 21.8062 86.7958 22.0418 86.9591 21.909C87.058 21.8287 88.6118 20.5273 88.6118 17.9172H72.6118C72.6118 13.7348 75.0926 10.9354 76.868 9.49254C78.7077 7.99736 80.883 7.00593 82.8629 6.32536C86.9001 4.93756 91.9607 4.22308 97.1765 4.22308V20.2231Z" fill="#2A5F5E" mask="url(#path-2-inside-1_343_452)"/>
</svg>
