<svg width="26" height="20" viewBox="0 0 26 20" fill="none" xmlns="http://www.w3.org/2000/svg">
<path fill-rule="evenodd" clip-rule="evenodd" d="M8.59307 20C18.0269 20 23.187 12.3044 23.187 5.63153C23.187 5.41246 23.187 5.19505 23.172 4.97845C24.1758 4.26464 25.042 3.37836 25.7308 2.36428C24.7958 2.77287 23.802 3.04082 22.7857 3.15896C23.8558 2.52762 24.657 1.53574 25.0408 0.365349C24.0333 0.953619 22.932 1.3688 21.7832 1.59156C19.8407 -0.441553 16.5919 -0.540058 14.5256 1.37244C13.1944 2.60559 12.6281 4.44421 13.0419 6.19794C8.91807 5.99365 5.07552 4.07626 2.47049 0.921997C1.10922 3.22954 1.80548 6.18044 4.05926 7.6622C3.243 7.63881 2.44424 7.42244 1.73048 7.03108V7.09517C1.73173 9.49873 3.453 11.5683 5.84553 12.0446C5.09052 12.2476 4.29801 12.2771 3.5305 12.1306C4.20176 14.1884 6.12804 15.5978 8.32182 15.6384C6.50554 17.0438 4.26176 17.807 1.95173 17.8045C1.54423 17.8033 1.13672 17.7799 0.730469 17.7319C3.07675 19.2137 5.80553 20 8.59307 19.9963" fill="#A3A6B4"/>
</svg>
