<svg width="30" height="20" viewBox="0 0 30 20" fill="none" xmlns="http://www.w3.org/2000/svg">
<path fill-rule="evenodd" clip-rule="evenodd" d="M14.8674 0C15.679 0.0014159 23.848 0.029734 25.9638 0.596095C27.1938 0.922569 28.161 1.8878 28.491 3.12272C29.0642 5.26212 29.0872 9.6254 29.0881 9.97104V10.0148C29.0872 10.3614 29.0642 14.7378 28.491 16.8772C28.161 18.1121 27.1938 19.0774 25.9638 19.4038C23.7812 19.9881 15.157 19.9998 14.8129 20H14.7917C14.4476 19.9998 5.82201 19.9881 3.638 19.4038C2.40943 19.0774 1.44085 18.1121 1.11228 16.8772C0.540392 14.7378 0.517517 10.3614 0.516602 10.0148V9.97104C0.517517 9.6254 0.540392 5.26212 1.11228 3.12272C1.44085 1.8878 2.40943 0.922569 3.638 0.596095C5.75516 0.029734 13.9255 0.0014159 14.7373 0H14.8674ZM11.8795 5.7771V14.2228L19.3481 9.99287L11.8795 5.7771Z" fill="#A3A6B4"/>
</svg>
